<?xml version="1.0" encoding="UTF-8" standalone="no"?>
<svg
   role="img"
   viewBox="0 0 24 24"
   version="1.1"
   id="svg6"
   sodipodi:docname="autohotkey.svg"
   inkscape:version="1.2 (dc2aedaf03, 2022-05-15)"
   xmlns:inkscape="http://www.inkscape.org/namespaces/inkscape"
   xmlns:sodipodi="http://sodipodi.sourceforge.net/DTD/sodipodi-0.dtd"
   xmlns="http://www.w3.org/2000/svg"
   xmlns:svg="http://www.w3.org/2000/svg">
  <defs
     id="defs10" />
  <sodipodi:namedview
     id="namedview8"
     pagecolor="#505050"
     bordercolor="#eeeeee"
     borderopacity="1"
     inkscape:showpageshadow="0"
     inkscape:pageopacity="0"
     inkscape:pagecheckerboard="0"
     inkscape:deskcolor="#505050"
     showgrid="false"
     inkscape:zoom="35.291667"
     inkscape:cx="11.57497"
     inkscape:cy="12.014168"
     inkscape:window-width="1920"
     inkscape:window-height="1027"
     inkscape:window-x="-8"
     inkscape:window-y="-8"
     inkscape:window-maximized="1"
     inkscape:current-layer="svg6" />
  <title
     id="title2">AutoHotkey</title>
  <rect
     style="fill:#13b100;fill-opacity:1"
     id="rect846"
     width="22.356552"
     height="21.364817"
     x="0.85005903"
     y="1.133412"
     ry="2.8050518" />
  <path
     d="M20.514.508V.51H1.803C1.053.51.079 1.135 0 2.27v17.133h.002v2.325c.08 1.136 1.05 1.763 1.8 1.763h1.505l.002-.002h18.869c1.256-.053 1.766-1.066 1.822-1.699v-3.023h-.002V2.209c-.056-.633-.567-1.648-1.824-1.701h-1.66zM3.412 1.623h17.154c.898 0 1.618.72 1.618 1.617v16.64c0 .898-.72 1.62-1.618 1.62H3.412a1.616 1.616 0 01-1.619-1.62V3.24c0-.897.722-1.617 1.62-1.617zm3.315 12.412l-1.895 5.037h.703l.526-1.467h2.02l.497 1.467h.744l-1.824-5.037h-.771zm8.43.008v5.037h.679v-1.767l.793-.758 1.76 2.525h.884l-2.154-3.002 2.098-2.035h-.94l-2.441 2.441v-2.441h-.68zm-5.153.027v5.037h.682v-2.351h2.628v2.351h.682V14.07h-.682v2.084h-2.628V14.07h-.682zm-2.926.717h.014l.742 2.217H6.271l.807-2.217z"
     id="path4" />
</svg>
