<?xml version="1.0" encoding="UTF-8" standalone="no"?>
<!-- Created with Inkscape (http://www.inkscape.org/) -->

<svg
   width="512.88678"
   height="512.88678"
   viewBox="0 0 512.88678 512.88678"
   version="1.1"
   id="SVGRoot"
   sodipodi:docname="C:\Users\OpenM\AppData\Local\Temp\ink_ext_XXXXXX.svg971GP1"
   inkscape:export-filename="bash.svg"
   inkscape:export-xdpi="96"
   inkscape:export-ydpi="96"
   xmlns:inkscape="http://www.inkscape.org/namespaces/inkscape"
   xmlns:sodipodi="http://sodipodi.sourceforge.net/DTD/sodipodi-0.dtd"
   xmlns="http://www.w3.org/2000/svg"
   xmlns:svg="http://www.w3.org/2000/svg">
  <sodipodi:namedview
     id="namedview2387"
     pagecolor="#505050"
     bordercolor="#eeeeee"
     borderopacity="1"
     inkscape:showpageshadow="0"
     inkscape:pageopacity="0"
     inkscape:pagecheckerboard="0"
     inkscape:deskcolor="#505050"
     inkscape:document-units="px"
     showgrid="true"
     inkscape:zoom="0.25"
     inkscape:cx="967.5"
     inkscape:cy="967.5"
     inkscape:window-width="1920"
     inkscape:window-height="1027"
     inkscape:window-x="1912"
     inkscape:window-y="-8"
     inkscape:window-maximized="0"
     inkscape:current-layer="layer1">
    <inkscape:grid
       type="xygrid"
       id="grid2873" />
  </sodipodi:namedview>
  <defs
     id="defs2382" />
  <g
     inkscape:label="Layer 1"
     inkscape:groupmode="layer"
     id="layer1">
    <rect
       style="fill:#5167d6;fill-opacity:1"
       id="rect4866"
       width="512.88678"
       height="512.88678"
       x="0"
       y="0"
       ry="58.467186"
       rx="0" />
    <path
       class="cls-2"
       d="m 121.99552,386.02601 a 38.089872,38.089872 0 0 0 -9.32899,-8.09488 l -1.33869,-0.79484 a 37.085855,37.085855 0 0 0 7.57196,-6.69345 31.542848,31.542848 0 0 0 7.61379,-20.43591 35.893585,35.893585 0 0 0 -4.41349,-18.53247 38.006203,38.006203 0 0 0 -11.94361,-12.71754 52.397104,52.397104 0 0 0 -16.461681,-7.1327 79.484632,79.484632 0 0 0 -18.34422,-2.32179 h -41.83402 a 5.1665009,5.1665009 0 0 0 -5.292,5.02008 v 133.70152 a 5.1665009,5.1665009 0 0 0 5.292,5.02008 h 45.05524 a 67.582852,67.582852 0 0 0 18.99264,-2.90746 53.777627,53.777627 0 0 0 16.566271,-8.22039 41.373843,41.373843 0 0 0 11.77628,-13.63789 38.403626,38.403626 0 0 0 4.35074,-18.8253 37.023103,37.023103 0 0 0 -2.09171,-12.75938 36.228259,36.228259 0 0 0 -6.17051,-10.66768 z M 96.372179,356.6167 a 16.419851,16.419851 0 0 1 -4.66449,5.10375 23.008709,23.008709 0 0 1 -6.96536,3.34672 31.375512,31.375512 0 0 1 -8.36681,1.29686 h -19.62015 v -32.48412 h 19.05539 a 41.834015,41.834015 0 0 1 8.99432,1.12952 22.025609,22.025609 0 0 1 7.06995,2.97022 13.847059,13.847059 0 0 1 4.45532,4.74816 14.244482,14.244482 0 0 1 1.63152,7.1327 12.968545,12.968545 0 0 1 -1.58969,6.75619 z m -39.55406,33.92739 h 23.00871 a 31.542848,31.542848 0 0 1 9.03615,1.54786 20.917008,20.917008 0 0 1 6.86078,3.76506 16.608104,16.608104 0 0 1 4.413481,5.75218 18.051378,18.051378 0 0 1 1.52695,8.05304 16.880025,16.880025 0 0 1 -1.736121,7.80205 17.172864,17.172864 0 0 1 -4.74816,5.77309 24.493816,24.493816 0 0 1 -7.30003,3.86965 29.283811,29.283811 0 0 1 -8.8479,1.50602 h -22.21386 z m 152.045731,-77.7276 a 5.250169,5.250169 0 0 0 -5.041,-3.49314 h -14.89291 a 5.2710861,5.2710861 0 0 0 -5.02008,3.47222 l -45.38991,133.70152 a 4.8109119,4.8109119 0 0 0 0.75302,4.49715 5.3756709,5.3756709 0 0 0 4.1834,2.09171 h 17.86312 a 5.2710861,5.2710861 0 0 0 5.041,-3.53498 l 10.14475,-31.08267 h 39.1148 l 9.9565,31.06175 a 5.250169,5.250169 0 0 0 5.06192,3.5559 H 248.397 a 5.3756709,5.3756709 0 0 0 4.1834,-2.09171 4.831829,4.831829 0 0 0 0.77393,-4.49715 z m -1.1086,80.73965 h -23.00871 l 11.62986,-35.85175 z m 153.09158,-2.36362 a 45.243489,45.243489 0 0 0 -8.3668,-8.24131 70.762238,70.762238 0 0 0 -9.91466,-6.2751 96.448323,96.448323 0 0 0 -10.85593,-4.83183 c -3.59773,-1.33868 -7.2582,-2.57279 -10.89776,-3.66047 -3.09572,-0.89943 -6.4006,-1.9662 -9.85191,-3.13755 a 46.624009,46.624009 0 0 1 -8.91065,-4.18341 21.126178,21.126178 0 0 1 -6.10776,-5.4175 11.399769,11.399769 0 0 1 -2.09171,-6.86078 13.951644,13.951644 0 0 1 1.65245,-7.0072 15.771424,15.771424 0 0 1 4.62266,-5.1665 22.151112,22.151112 0 0 1 7.00719,-3.30488 30.580666,30.580666 0 0 1 18.00955,0.3765 20.917008,20.917008 0 0 1 6.96536,4.1834 21.168012,21.168012 0 0 1 4.74816,6.56794 31.124508,31.124508 0 0 1 2.57279,9.0989 5.208335,5.208335 0 0 0 5.25017,4.39258 h 18.34422 a 5.417505,5.417505 0 0 0 3.76506,-1.50603 4.8945798,4.8945798 0 0 0 1.50603,-3.61864 41.478426,41.478426 0 0 0 -4.72725,-18.82531 45.515409,45.515409 0 0 0 -11.83903,-14.24448 55.15815,55.15815 0 0 0 -16.7336,-9.01523 62.08168,62.08168 0 0 0 -37.54603,-0.52293 53.798544,53.798544 0 0 0 -16.31526,7.90663 42.879867,42.879867 0 0 0 -11.88087,13.01038 34.701318,34.701318 0 0 0 -4.68541,17.88404 32.546865,32.546865 0 0 0 4.74816,17.59121 45.808248,45.808248 0 0 0 11.65078,12.52928 72.184596,72.184596 0 0 0 15.123,8.53414 c 5.27108,2.2172 10.4585,4.1834 15.625,5.68943 q 5.02008,1.52694 10.4585,3.43039 a 45.515409,45.515409 0 0 1 9.0989,4.3089 20.373166,20.373166 0 0 1 6.17052,5.7731 12.884877,12.884877 0 0 1 2.0917,7.59287 12.675707,12.675707 0 0 1 -1.75703,6.92353 16.503519,16.503519 0 0 1 -4.95733,5.06191 23.238796,23.238796 0 0 1 -7.34187,3.11664 37.985285,37.985285 0 0 1 -19.47373,-0.37651 24.451982,24.451982 0 0 1 -8.05305,-4.1834 22.360282,22.360282 0 0 1 -5.66851,-6.67253 26.501849,26.501849 0 0 1 -2.99113,-9.3499 5.208335,5.208335 0 0 0 -5.25017,-4.37165 h -18.26055 a 5.417505,5.417505 0 0 0 -3.78598,1.52694 4.8945798,4.8945798 0 0 0 -1.4851,3.63956 39.742314,39.742314 0 0 0 5.4175,19.36915 47.523443,47.523443 0 0 0 12.92671,14.18173 59.278802,59.278802 0 0 0 17.67487,8.74331 68.084862,68.084862 0 0 0 19.97575,2.99113 70.532151,70.532151 0 0 0 18.23963,-2.42637 55.848413,55.848413 0 0 0 16.7336,-7.42554 42.064103,42.064103 0 0 0 12.36195,-12.69662 33.843719,33.843719 0 0 0 4.93642,-18.28147 36.62568,36.62568 0 0 0 -2.0917,-12.5502 37.859784,37.859784 0 0 0 -5.83585,-10.27025 z M 478.003,309.32335 h -16.90093 a 5.1665009,5.1665009 0 0 0 -5.29202,5.02008 v 52.45985 h -47.08419 v -52.45985 a 5.1665009,5.1665009 0 0 0 -5.292,-5.02008 h -16.73361 a 5.1665009,5.1665009 0 0 0 -5.292,5.02008 v 133.70152 a 5.1665009,5.1665009 0 0 0 5.292,5.02008 h 16.73361 a 5.1665009,5.1665009 0 0 0 5.292,-5.02008 v -56.76877 h 47.08419 v 56.76877 a 5.1665009,5.1665009 0 0 0 5.29202,5.02008 H 478.003 a 5.1665009,5.1665009 0 0 0 5.29198,-5.02008 V 314.34343 A 5.1665009,5.1665009 0 0 0 478.003,309.32335 Z M 44.456169,476.24107 h -6.40061 v 17.11012 h -3.40947 v -17.11012 h -6.2751 v -2.69829 h 16.16885 z m 19.6829,17.11012 h -3.34672 v -8.8479 h -7.09086 v 8.8479 h -3.32581 v -19.80841 h 3.32581 v 8.3668 h 7.09086 v -8.3668 h 3.34672 z m 19.66199,-8.86882 h -8.57597 v 6.27511 h 10.01925 v 2.65646 h -13.44964 v -19.80841 h 13.36597 v 2.6983 h -9.93558 v 5.58484 h 8.57597 z m 29.681241,8.86882 v -19.80841 h 6.6516 a 12.550205,12.550205 0 0 1 2.80288,0.33467 7.0071978,7.0071978 0 0 1 2.27996,0.96218 4.6854097,4.6854097 0 0 1 1.54786,1.67337 4.7899949,4.7899949 0 0 1 0.54384,2.40545 3.9114806,3.9114806 0 0 1 -0.8576,2.51004 5.4384221,5.4384221 0 0 1 -2.27995,1.61061 5.5639243,5.5639243 0 0 1 1.54785,0.66935 4.3298207,4.3298207 0 0 1 1.12952,1.02493 4.5808248,4.5808248 0 0 1 0.71118,1.31777 4.8945798,4.8945798 0 0 1 0.25101,1.54786 5.417505,5.417505 0 0 1 -0.54385,2.48912 5.0828331,5.0828331 0 0 1 -1.50602,1.79887 6.9653638,6.9653638 0 0 1 -2.27996,1.08768 10.646757,10.646757 0 0 1 -2.84471,0.39742 z m 3.4513,-11.46252 h 3.28397 a 5.6685091,5.6685091 0 0 0 1.44328,-0.18826 3.4303895,3.4303895 0 0 0 1.15043,-0.54384 2.65646,2.65646 0 0 0 0.77393,-0.87851 2.4891239,2.4891239 0 0 0 0.29284,-1.19227 2.8028791,2.8028791 0 0 0 -0.27192,-1.27594 2.3636219,2.3636219 0 0 0 -0.77393,-0.87851 3.4513062,3.4513062 0 0 0 -1.17135,-0.50201 7.0490316,7.0490316 0 0 0 -1.4642,-0.16734 h -3.26305 z m 0,2.48912 v 6.2751 h 3.74415 a 4.9782479,4.9782479 0 0 0 1.4851,-0.23009 3.6395595,3.6395595 0 0 0 1.15044,-0.6275 2.8237961,2.8237961 0 0 0 0.77393,-0.96219 2.8656301,2.8656301 0 0 0 0.27192,-1.27594 3.4722232,3.4722232 0 0 0 -0.251,-1.33868 2.698294,2.698294 0 0 0 -0.69027,-1.00402 3.2003024,3.2003024 0 0 0 -1.1086,-0.62751 4.831829,4.831829 0 0 0 -1.46419,-0.23009 z m 31.62652,0.35559 a 11.922695,11.922695 0 0 1 -0.48109,3.36764 8.7014752,8.7014752 0 0 1 -1.40144,2.84471 6.9026127,6.9026127 0 0 1 -2.34271,1.9662 7.0908657,7.0908657 0 0 1 -3.30489,0.7321 6.6725256,6.6725256 0 0 1 -5.56392,-2.6983 8.7433093,8.7433093 0 0 1 -1.38052,-2.84471 11.985446,11.985446 0 0 1 -0.46018,-3.36764 v -2.53096 a 12.382869,12.382869 0 0 1 0.20917,-2.27995 10.458504,10.458504 0 0 1 0.6066,-2.0917 8.8897285,8.8897285 0 0 1 1.02493,-1.81978 6.4424385,6.4424385 0 0 1 1.42236,-1.44328 6.6516086,6.6516086 0 0 1 1.86161,-0.94126 7.3627868,7.3627868 0 0 1 2.27995,-0.33468 6.8398616,6.8398616 0 0 1 5.6476,2.6983 8.5759733,8.5759733 0 0 1 1.42235,2.84471 11.985446,11.985446 0 0 1 0.48109,3.36764 z m -3.45131,-2.55188 a 13.219549,13.219549 0 0 0 -0.20917,-2.2172 6.4842726,6.4842726 0 0 0 -0.66934,-1.9662 4.0369825,4.0369825 0 0 0 -1.25502,-1.40144 3.3676383,3.3676383 0 0 0 -1.94529,-0.54384 3.2839702,3.2839702 0 0 0 -1.92436,0.54384 3.8696466,3.8696466 0 0 0 -1.21319,1.40144 6.4633555,6.4633555 0 0 0 -0.62751,1.9662 14.746491,14.746491 0 0 0 -0.18825,2.2172 v 2.55188 a 14.307234,14.307234 0 0 0 0.20917,2.2172 6.7352767,6.7352767 0 0 0 0.62751,1.9662 3.9114806,3.9114806 0 0 0 1.21319,1.42236 3.2630532,3.2630532 0 0 0 1.92436,0.54384 3.3467213,3.3467213 0 0 0 1.94528,-0.54384 4.1834015,4.1834015 0 0 0 1.25502,-1.42236 6.4424385,6.4424385 0 0 0 0.66935,-1.9662 13.805225,13.805225 0 0 0 0.20917,-2.2172 z m 23.82447,-8.6178 v 13.26138 a 7.6137909,7.6137909 0 0 1 -0.52292,2.78196 6.2751025,6.2751025 0 0 1 -1.40144,2.0917 6.1496003,6.1496003 0 0 1 -2.0917,1.38053 7.9693799,7.9693799 0 0 1 -2.86563,0.48109 7.676542,7.676542 0 0 1 -2.80288,-0.48109 6.0868492,6.0868492 0 0 1 -3.55589,-3.53498 7.655625,7.655625 0 0 1 -0.52293,-2.80288 v -13.26138 h 3.36764 v 13.26138 a 6.1286833,6.1286833 0 0 0 0.251,1.67336 3.9323974,3.9323974 0 0 0 0.64843,1.31777 2.9702151,2.9702151 0 0 0 1.06677,0.8576 3.3885554,3.3885554 0 0 0 1.48511,0.31376 3.5768084,3.5768084 0 0 0 1.52694,-0.31376 3.0329662,3.0329662 0 0 0 1.1086,-0.8576 3.8068955,3.8068955 0 0 0 0.66934,-1.31777 6.2751025,6.2751025 0 0 0 0.25101,-1.67336 v -13.26138 z m 14.3909,12.02728 h -3.49313 v 7.71837 h -3.45131 v -19.80841 h 6.58886 a 11.357935,11.357935 0 0 1 2.94929,0.39743 6.8816956,6.8816956 0 0 1 2.34271,1.1086 5.040999,5.040999 0 0 1 1.52694,1.86161 5.8985962,5.8985962 0 0 1 0.54384,2.61463 5.6685091,5.6685091 0 0 1 -0.27192,1.81978 5.2710861,5.2710861 0 0 1 -0.77393,1.48511 5.5848413,5.5848413 0 0 1 -1.19227,1.17135 7.655625,7.655625 0 0 1 -1.54785,0.8576 l 4.41348,8.3668 v 0.16734 h -3.66047 z m -3.49313,-2.63555 h 3.15846 a 5.1455839,5.1455839 0 0 0 1.56878,-0.23008 3.7859784,3.7859784 0 0 0 1.2341,-0.66935 2.9492981,2.9492981 0 0 0 0.81576,-1.04585 3.3676383,3.3676383 0 0 0 0.29284,-1.42235 3.7232273,3.7232273 0 0 0 -0.27192,-1.4642 2.8865471,2.8865471 0 0 0 -0.77393,-1.06676 3.4303895,3.4303895 0 0 0 -1.2341,-0.66935 5.8776792,5.8776792 0 0 0 -1.63153,-0.23008 h -3.13755 z m 30.91533,10.39576 h -3.4513 l -6.77711,-13.61698 v 13.61698 h -3.47223 v -19.80841 h 3.47223 l 6.75619,13.59605 v -13.59605 h 3.47222 z m 19.68291,-8.86882 h -8.57598 v 6.27511 h 10.01925 v 2.65646 h -13.44963 v -19.80841 h 13.36596 v 2.6983 h -9.93558 v 5.58484 h 8.57598 z m 21.62818,1.50603 h -11.46252 v -2.61463 h 11.46252 z m 18.15597,2.78196 h -6.50519 l -1.42236,4.60174 H 258.73 l 6.75619,-19.8084 h 2.92838 l 6.63069,19.8084 h -3.53497 z m -5.62668,-2.78196 h 4.76908 l -2.36362,-7.76021 z m 30.45516,4.89458 a 7.1536168,7.1536168 0 0 1 -1.2341,1.1086 8.220384,8.220384 0 0 1 -1.61061,0.87852 10.144749,10.144749 0 0 1 -1.92436,0.56476 11.441603,11.441603 0 0 1 -2.2172,0.20917 7.5719569,7.5719569 0 0 1 -3.32581,-0.69027 7.0699486,7.0699486 0 0 1 -2.44729,-1.90344 8.4713881,8.4713881 0 0 1 -1.52694,-2.84472 11.734442,11.734442 0 0 1 -0.54385,-3.51406 v -2.44728 a 11.588022,11.588022 0 0 1 0.52293,-3.51406 8.6805582,8.6805582 0 0 1 1.48511,-2.84472 6.9235297,6.9235297 0 0 1 2.36362,-1.90344 7.0490316,7.0490316 0 0 1 3.2003,-0.71118 9.2453175,9.2453175 0 0 1 2.88655,0.41834 6.2751025,6.2751025 0 0 1 2.0917,1.21319 5.7730943,5.7730943 0 0 1 1.44328,1.94528 7.8020439,7.8020439 0 0 1 0.66934,2.55187 h -3.36764 a 6.1496003,6.1496003 0 0 0 -0.39742,-1.44327 3.3258043,3.3258043 0 0 0 -0.7321,-1.08769 3.0748002,3.0748002 0 0 0 -1.1086,-0.69026 4.4553226,4.4553226 0 0 0 -1.54786,-0.23008 3.3258043,3.3258043 0 0 0 -1.86161,0.502 4.1834015,4.1834015 0 0 0 -1.29686,1.38053 6.6097745,6.6097745 0 0 0 -0.75301,2.0917 11.901778,11.901778 0 0 0 -0.251,2.38454 v 2.4682 a 11.546188,11.546188 0 0 0 0.27192,2.36362 6.2751025,6.2751025 0 0 0 0.79484,2.09171 4.1834015,4.1834015 0 0 0 1.38053,1.38052 3.9323974,3.9323974 0 0 0 2.0917,0.52292 h 1.00401 a 6.2751025,6.2751025 0 0 0 0.9831,-0.18825 4.4553226,4.4553226 0 0 0 0.8576,-0.35559 2.0917008,2.0917008 0 0 0 0.62751,-0.52292 v -3.95332 h -3.76506 v -2.53096 h 7.1327 z m 17.06828,-2.11262 h -6.50519 l -1.42235,4.60174 h -3.5559 l 6.7562,-19.8084 h 3.01205 l 6.63069,19.8084 h -3.53498 z m -5.62667,-2.78196 h 4.76908 l -2.36363,-7.76021 z m 16.94278,-12.4247 h 12.38286 v 2.69829 h -4.49715 v 14.41182 h 4.49715 v 2.69829 h -12.38286 v -2.69829 h 4.41348 v -14.41182 h -4.41348 z m 33.96922,19.78749 h -3.45131 l -6.77711,-13.61698 v 13.61698 h -3.45131 v -19.80841 h 3.47223 l 6.75619,13.59605 v -13.59605 h 3.47222 z m 39.21939,-5.08283 a 2.4472899,2.4472899 0 0 0 -0.31376,-1.23411 3.0538832,3.0538832 0 0 0 -0.87851,-0.94126 6.0450155,6.0450155 0 0 0 -1.33869,-0.71118 q -0.77393,-0.31376 -1.69428,-0.56476 a 19.912992,19.912992 0 0 1 -2.42637,-0.83668 9.4963216,9.4963216 0 0 1 -2.09171,-1.23411 6.0868492,6.0868492 0 0 1 -1.52694,-1.69427 4.3089037,4.3089037 0 0 1 -0.58567,-2.25904 4.5389908,4.5389908 0 0 1 0.58567,-2.30087 5.4593391,5.4593391 0 0 1 1.54786,-1.7152 7.3627868,7.3627868 0 0 1 2.25904,-1.08768 9.5172387,9.5172387 0 0 1 2.6983,-0.37651 8.8060604,8.8060604 0 0 1 2.80287,0.43926 7.3418698,7.3418698 0 0 1 2.27996,1.2341 5.9404303,5.9404303 0 0 1 1.54786,1.90345 5.417505,5.417505 0 0 1 0.58567,2.44729 h -3.43039 a 4.5389908,4.5389908 0 0 0 -0.33467,-1.3596 3.1166342,3.1166342 0 0 0 -0.75301,-1.06677 3.2839702,3.2839702 0 0 0 -1.17135,-0.69026 4.7272438,4.7272438 0 0 0 -1.5897,-0.25101 5.1665009,5.1665009 0 0 0 -1.42235,0.18826 3.3885554,3.3885554 0 0 0 -1.12952,0.56476 2.65646,2.65646 0 0 0 -0.75301,0.87851 2.4891239,2.4891239 0 0 0 -0.27193,1.17135 2.0917008,2.0917008 0 0 0 0.37651,1.19227 3.4513062,3.4513062 0 0 0 0.96218,0.89943 6.7352767,6.7352767 0 0 0 1.38052,0.66935 q 0.77393,0.27192 1.63153,0.50201 a 17.863125,17.863125 0 0 1 2.48913,0.89943 9.0152304,9.0152304 0 0 1 2.0917,1.29685 5.8776792,5.8776792 0 0 1 1.42235,1.73611 4.7481608,4.7481608 0 0 1 0.52293,2.27996 4.5389908,4.5389908 0 0 1 -0.58568,2.32179 5.229252,5.229252 0 0 1 -1.56877,1.69427 7.3627868,7.3627868 0 0 1 -2.27996,1.02493 10.458504,10.458504 0 0 1 -2.71921,0.3556 10.249334,10.249334 0 0 1 -1.90345,-0.16734 8.9524793,8.9524793 0 0 1 -1.79886,-0.52293 7.990297,7.990297 0 0 1 -1.61061,-0.87851 6.3796874,6.3796874 0 0 1 -1.29685,-1.21319 5.4384221,5.4384221 0 0 1 -1.19227,-3.40947 h 3.45131 a 4.1834015,4.1834015 0 0 0 0.41834,1.56878 3.2421361,3.2421361 0 0 0 0.92034,1.1086 3.9951485,3.9951485 0 0 0 1.33869,0.66934 6.0240984,6.0240984 0 0 0 1.69428,0.23009 5.7730943,5.7730943 0 0 0 1.44327,-0.16734 3.6813936,3.6813936 0 0 0 1.17135,-0.52292 2.593709,2.593709 0 0 0 0.79485,-0.8576 2.3217879,2.3217879 0 0 0 0.25101,-1.21318 z m 23.63621,5.08283 h -3.3258 v -8.8479 h -7.11178 v 8.8479 h -3.34672 v -19.80841 h 3.3258 v 8.3668 h 7.1327 v -8.3668 h 3.34672 z m 19.68291,-8.86882 h -8.57597 v 6.27511 h 10.01924 v 2.65646 h -13.47055 v -19.80841 h 13.36597 v 2.6983 h -9.93558 v 5.58484 h 8.59689 z m 12.5502,6.21236 h 9.93558 v 2.65646 h -13.36597 v -19.80841 h 3.43039 z m 20.917,0 h 9.93559 v 2.65646 h -13.36595 v -19.80841 h 3.43036 z"
       id="path16"
       style="fill:#2f3a3e;stroke-width:2.0917" />
    <g
       id="g4812"
       transform="translate(-5.3011555)">
      <path
         class="cls-1"
         d="m 366.50377,73.245958 -88.92011,-52.79298 a 33.491936,33.491936 0 0 0 -34.31099,0 l -88.93792,52.79298 a 35.468334,35.468334 0 0 0 -17.14659,30.554052 v 105.56814 a 35.468334,35.468334 0 0 0 17.14659,30.53624 l 88.92011,52.77519 a 33.509741,33.509741 0 0 0 34.31099,0 l 88.92012,-52.77519 a 35.468334,35.468334 0 0 0 17.16439,-30.55404 V 103.80001 A 35.468334,35.468334 0 0 0 366.50377,73.245958 Z"
         id="path8"
         style="fill:#ffffff;stroke-width:1.78054" />
      <path
         class="cls-2"
         d="m 366.50377,73.245958 -88.92011,-52.79298 a 33.491936,33.491936 0 0 0 -34.31099,0 l -88.93792,52.79298 a 35.468334,35.468334 0 0 0 -17.14659,30.554052 v 105.56814 a 35.468334,35.468334 0 0 0 17.14659,30.53624 l 88.92011,52.77519 a 33.509741,33.509741 0 0 0 34.31099,0 l 88.92012,-52.77519 a 35.468334,35.468334 0 0 0 17.16439,-30.55404 V 103.80001 A 35.468334,35.468334 0 0 0 366.50377,73.245958 Z M 246.37081,287.28454 157.45069,234.50936 A 29.272059,29.272059 0 0 1 143.34882,209.36815 V 103.80001 a 29.254253,29.254253 0 0 1 14.10187,-25.141214 l 88.92012,-52.792972 a 27.420298,27.420298 0 0 1 28.0969,0 l 88.84889,52.792972 a 29.076199,29.076199 0 0 1 13.65674,20.333753 c -2.9557,-6.285296 -9.59711,-8.012421 -17.34245,-3.561078 l -84.05924,52.062959 c -10.48738,6.10725 -18.21492,12.99793 -18.23272,25.63976 v 103.66297 c 0,7.5673 3.04472,12.46378 7.74534,13.90601 a 27.242246,27.242246 0 0 1 -4.66501,0.44514 27.544938,27.544938 0 0 1 -14.04845,-3.86377 z"
         id="path10"
         style="fill:#2f3a3e;stroke-width:1.78054" />
      <path
         class="cls-3"
         d="m 343.19652,219.57064 -22.14991,13.24721 a 1.6202904,1.6202904 0 0 0 -1.01491,1.44224 v 5.82236 c 0,0.71222 0.48075,0.9971 1.06833,0.6588 l 22.48821,-13.67454 a 1.7805389,1.7805389 0 0 0 0.6766,-1.78054 v -5.11015 c -0.0178,-0.65879 -0.53416,-0.94368 -1.06832,-0.60538 z"
         id="path12"
         style="fill:#3ab14a;stroke-width:1.78054" />
      <path
         class="cls-1"
         d="m 296.04784,170.80168 c 0.71222,-0.35611 1.2998,0 1.3176,1.01491 l 0.0712,7.72753 a 14.244311,14.244311 0 0 1 8.51097,-1.0327 c 0.55197,0.14244 0.78344,0.89026 0.56977,1.78054 l -1.69151,6.78385 a 2.9200839,2.9200839 0 0 1 -0.76563,1.35321 1.7805389,1.7805389 0 0 1 -0.44514,0.32049 1.0149071,1.0149071 0 0 1 -0.6588,0.10684 11.288617,11.288617 0 0 0 -8.20828,1.31759 10.309321,10.309321 0 0 0 -6.07164,9.13417 c 0,3.56108 1.78054,4.54037 7.99463,4.64721 8.20828,0.14244 11.76936,3.72132 11.85838,12.00083 a 29.432307,29.432307 0 0 1 -10.8969,22.20332 l 0.14245,7.5851 a 2.7776406,2.7776406 0 0 1 -1.2998,2.3147 l -4.48696,2.58178 c -0.71221,0.3561 -1.29979,0 -1.3176,-0.99711 v -7.46045 c -3.84596,1.60248 -7.74534,1.97639 -10.23809,0.97929 -0.46294,-0.17806 -0.67661,-0.87247 -0.48075,-1.6737 l 1.62029,-6.85508 a 2.8666676,2.8666676 0 0 1 0.80125,-1.42443 1.7805389,1.7805389 0 0 1 0.42733,-0.30269 0.89026942,0.89026942 0 0 1 0.73002,0 12.463772,12.463772 0 0 0 9.41905,-1.19296 12.321329,12.321329 0 0 0 6.96191,-10.68324 c 0,-3.84596 -2.11885,-5.44844 -7.12216,-5.48406 -6.46335,0 -12.46377,-1.24638 -12.58841,-10.68323 a 27.598352,27.598352 0 0 1 10.43396,-21.11719 l -0.3205,-7.76315 a 2.7598352,2.7598352 0 0 1 1.29979,-2.35031 z"
         id="path14"
         style="fill:#ffffff;stroke-width:1.78054" />
    </g>
  </g>
</svg>
