<?xml version="1.0" encoding="UTF-8" standalone="no"?>
<!-- Created with Inkscape (http://www.inkscape.org/) -->

<svg
   width="510.8989"
   height="510.23627"
   viewBox="0 0 510.8989 510.23627"
   version="1.1"
   id="SVGRoot"
   xmlns="http://www.w3.org/2000/svg"
   xmlns:svg="http://www.w3.org/2000/svg">
  <defs
     id="defs2382" />
  <g
     id="layer1"
     transform="translate(-0.66264546,-1.3252864)">
    <rect
       style="fill:#5167d6;fill-opacity:1;stroke:none;stroke-width:26.1593"
       id="rect3489"
       width="510.8989"
       height="510.23627"
       x="0.66264546"
       y="1.3252864"
       ry="136.27959" />
    <path
       class="cls-2"
       d="m 144.27826,387.26516 a 30.991128,30.991128 0 0 0 -7.59036,-6.58625 l -1.0892,-0.6467 a 30.174228,30.174228 0 0 0 6.16078,-5.44601 25.664262,25.664262 0 0 0 6.19482,-16.6273 29.204159,29.204159 0 0 0 -3.59095,-15.07861 30.923052,30.923052 0 0 0 -9.7177,-10.34739 42.631946,42.631946 0 0 0 -13.39375,-5.80339 64.671218,64.671218 0 0 0 -14.92544,-1.88908 H 72.288977 a 4.203629,4.203629 0 0 0 -4.30574,4.08449 v 108.7838 a 4.203629,4.203629 0 0 0 4.30574,4.0845 h 36.658373 a 54.987552,54.987552 0 0 0 15.45302,-2.36561 43.755183,43.755183 0 0 0 13.47884,-6.68837 33.663071,33.663071 0 0 0 9.58155,-11.09622 31.246408,31.246408 0 0 0 3.5399,-15.31686 30.123171,30.123171 0 0 0 -1.70188,-10.38143 29.476461,29.476461 0 0 0 -5.02052,-8.67957 z M 123.4303,363.33682 a 13.359712,13.359712 0 0 1 -3.79518,4.15257 18.720615,18.720615 0 0 1 -5.66724,2.723 25.528112,25.528112 0 0 1 -6.8075,1.05516 H 91.196797 v -26.43011 h 15.504073 a 34.037481,34.037481 0 0 1 7.31807,0.91902 17.920734,17.920734 0 0 1 5.75233,2.41666 11.266406,11.266406 0 0 1 3.62499,3.86326 11.589762,11.589762 0 0 1 1.32746,5.80339 10.55162,10.55162 0 0 1 -1.29342,5.49705 z m -32.182443,27.6044 h 18.720623 a 25.664262,25.664262 0 0 1 7.35209,1.25939 17.018741,17.018741 0 0 1 5.58215,3.06337 13.51288,13.51288 0 0 1 3.59095,4.68015 14.687174,14.687174 0 0 1 1.24237,6.55221 13.734124,13.734124 0 0 1 -1.41256,6.348 13.972387,13.972387 0 0 1 -3.86325,4.69717 19.928946,19.928946 0 0 1 -5.93954,3.14847 23.826237,23.826237 0 0 1 -7.19893,1.22534 H 91.247857 Z M 214.95709,327.69958 a 4.271704,4.271704 0 0 0 -4.10152,-2.84213 h -12.11734 a 4.2887228,4.2887228 0 0 0 -4.0845,2.82511 l -36.93067,108.78379 a 3.9143105,3.9143105 0 0 0 0.61268,3.65903 4.3738163,4.3738163 0 0 0 3.40375,1.70188 h 14.534 a 4.2887228,4.2887228 0 0 0 4.10152,-2.87617 l 8.25409,-25.28985 h 31.82504 l 8.10092,25.27282 a 4.271704,4.271704 0 0 0 4.11854,2.8932 h 14.44891 a 4.3738163,4.3738163 0 0 0 3.40375,-1.70188 3.9313293,3.9313293 0 0 0 0.62969,-3.65903 z m -0.90199,65.69234 h -18.72062 l 9.46242,-29.17012 z m 124.56016,-1.92312 a 36.811538,36.811538 0 0 0 -6.80749,-6.70539 57.574401,57.574401 0 0 0 -8.06688,-5.10562 78.473415,78.473415 0 0 0 -8.83273,-3.93133 c -2.92723,-1.08919 -5.90551,-2.0933 -8.86677,-2.97828 -2.51877,-0.7318 -5.20773,-1.59976 -8.01582,-2.55281 a 37.934772,37.934772 0 0 1 -7.24999,-3.40375 17.188928,17.188928 0 0 1 -4.96947,-4.40785 9.2752136,9.2752136 0 0 1 -1.70188,-5.58215 11.3515,11.3515 0 0 1 1.34449,-5.70128 12.832131,12.832131 0 0 1 3.76114,-4.20363 18.022847,18.022847 0 0 1 5.70127,-2.68895 24.8814,24.8814 0 0 1 14.65314,0.30633 17.018741,17.018741 0 0 1 5.66724,3.40375 17.222966,17.222966 0 0 1 3.86325,5.34388 25.323887,25.323887 0 0 1 2.09331,7.40315 4.2376665,4.2376665 0 0 0 4.2717,3.57395 h 14.92544 a 4.4078539,4.4078539 0 0 0 3.06337,-1.22536 3.9823854,3.9823854 0 0 0 1.22536,-2.94424 33.748163,33.748163 0 0 0 -3.84624,-15.31687 37.03278,37.03278 0 0 0 -9.63261,-11.58976 44.87842,44.87842 0 0 0 -13.61499,-7.33507 50.511624,50.511624 0 0 0 -30.54864,-0.42548 43.772202,43.772202 0 0 0 -13.27462,6.43309 34.88842,34.88842 0 0 0 -9.66665,10.58566 28.234093,28.234093 0 0 0 -3.8122,14.55102 26.481162,26.481162 0 0 0 3.86326,14.31276 37.271043,37.271043 0 0 0 9.47944,10.19422 58.731677,58.731677 0 0 0 12.30455,6.94365 c 4.28872,1.80399 8.50937,3.40375 12.713,4.6291 q 4.0845,1.24237 8.50937,2.79108 a 37.03278,37.03278 0 0 1 7.40315,3.50585 16.576254,16.576254 0 0 1 5.02053,4.69718 10.483545,10.483545 0 0 1 1.70187,6.1778 10.313357,10.313357 0 0 1 -1.42957,5.6332 13.427786,13.427786 0 0 1 -4.03344,4.11853 18.907821,18.907821 0 0 1 -5.97358,2.5358 30.906033,30.906033 0 0 1 -15.84444,-0.30634 19.894908,19.894908 0 0 1 -6.55222,-3.40375 18.193035,18.193035 0 0 1 -4.61208,-5.42898 21.562745,21.562745 0 0 1 -2.43368,-7.60737 4.2376665,4.2376665 0 0 0 -4.2717,-3.55692 h -14.85737 a 4.4078539,4.4078539 0 0 0 -3.08039,1.24237 3.9823854,3.9823854 0 0 0 -1.20832,2.96126 32.335607,32.335607 0 0 0 4.40785,15.75936 38.666581,38.666581 0 0 0 10.51758,11.5387 48.231113,48.231113 0 0 0 14.38083,7.11384 55.396003,55.396003 0 0 0 16.25291,2.43368 57.387195,57.387195 0 0 0 14.84034,-1.97418 45.44004,45.44004 0 0 0 13.61498,-6.04165 34.224688,34.224688 0 0 0 10.05808,-10.33037 27.536323,27.536323 0 0 0 4.01643,-14.87439 29.799815,29.799815 0 0 0 -1.70188,-10.21124 30.803921,30.803921 0 0 0 -4.74823,-8.3562 z m 95.32198,-66.61135 H 420.1861 a 4.203629,4.203629 0 0 0 -4.30575,4.08449 v 42.683 h -38.30919 v -42.683 a 4.203629,4.203629 0 0 0 -4.30574,-4.08449 h -13.615 a 4.203629,4.203629 0 0 0 -4.30574,4.08449 v 108.7838 a 4.203629,4.203629 0 0 0 4.30574,4.0845 h 13.615 a 4.203629,4.203629 0 0 0 4.30574,-4.0845 v -46.18887 h 38.30919 v 46.18887 a 4.203629,4.203629 0 0 0 4.30575,4.0845 h 13.75114 a 4.203629,4.203629 0 0 0 4.30572,-4.0845 v -108.7838 a 4.203629,4.203629 0 0 0 -4.30572,-4.08449 z M 81.189777,460.667 h -5.20773 v 13.92133 h -2.77406 V 460.667 h -5.10562 v -2.19542 h 13.15549 z m 16.01464,13.92133 h -2.723 v -7.19893 h -5.76935 v 7.19893 h -2.70598 v -16.11675 h 2.70598 v 6.8075 h 5.76935 v -6.8075 h 2.723 z m 15.997613,-7.21595 h -6.97768 v 5.10563 h 8.15198 v 2.16138 h -10.94305 v -16.11675 h 10.87498 v 2.19542 h -8.08391 v 4.544 h 6.97768 z m 24.1496,7.21595 v -16.11675 h 5.41196 a 10.211245,10.211245 0 0 1 2.28051,0.2723 5.7012784,5.7012784 0 0 1 1.85505,0.78286 3.8121979,3.8121979 0 0 1 1.25938,1.36151 3.8972918,3.8972918 0 0 1 0.44249,1.95715 3.1825047,3.1825047 0 0 1 -0.69777,2.04225 4.4248727,4.4248727 0 0 1 -1.85504,1.31044 4.5269853,4.5269853 0 0 1 1.25938,0.54461 3.5228794,3.5228794 0 0 1 0.91901,0.83391 3.7271043,3.7271043 0 0 1 0.57864,1.07218 3.9823854,3.9823854 0 0 1 0.20423,1.25939 4.4078539,4.4078539 0 0 1 -0.44249,2.02523 4.1355542,4.1355542 0 0 1 -1.22535,1.46361 5.6672409,5.6672409 0 0 1 -1.85505,0.88497 8.6625392,8.6625392 0 0 1 -2.31454,0.32336 z m 2.80809,-9.32627 h 2.67194 a 4.6120788,4.6120788 0 0 0 1.1743,-0.15317 2.7910737,2.7910737 0 0 0 0.93603,-0.44249 2.1613801,2.1613801 0 0 0 0.62969,-0.71478 2.0252302,2.0252302 0 0 0 0.23827,-0.97007 2.2805113,2.2805113 0 0 0 -0.22125,-1.03814 1.9231177,1.9231177 0 0 0 -0.62969,-0.71479 2.8080922,2.8080922 0 0 0 -0.95305,-0.40845 5.7353157,5.7353157 0 0 0 -1.19132,-0.13615 h -2.65492 z m 0,2.02523 v 5.10562 h 3.04636 a 4.0504604,4.0504604 0 0 0 1.20832,-0.18721 2.961261,2.961261 0 0 0 0.93604,-0.51055 2.2975301,2.2975301 0 0 0 0.62969,-0.78287 2.3315675,2.3315675 0 0 0 0.22125,-1.03814 2.8251109,2.8251109 0 0 0 -0.20423,-1.0892 2.1954176,2.1954176 0 0 0 -0.56162,-0.8169 2.6038675,2.6038675 0 0 0 -0.90199,-0.51056 3.9313293,3.9313293 0 0 0 -1.19131,-0.18721 z m 25.73234,0.28932 a 9.7006828,9.7006828 0 0 1 -0.39143,2.74002 7.0797962,7.0797962 0 0 1 -1.14026,2.31455 5.6161846,5.6161846 0 0 1 -1.9061,1.59976 5.7693532,5.7693532 0 0 1 -2.68896,0.59566 5.4289785,5.4289785 0 0 1 -4.52698,-2.19542 7.1138338,7.1138338 0 0 1 -1.12324,-2.31455 9.751739,9.751739 0 0 1 -0.37442,-2.74002 v -2.05927 a 10.075095,10.075095 0 0 1 0.17019,-1.85504 8.5093706,8.5093706 0 0 1 0.49355,-1.70187 7.2329651,7.2329651 0 0 1 0.83392,-1.48063 5.2417723,5.2417723 0 0 1 1.15727,-1.1743 5.4119597,5.4119597 0 0 1 1.51467,-0.76584 5.9905969,5.9905969 0 0 1 1.85504,-0.27231 5.5651283,5.5651283 0 0 1 4.59506,2.19543 6.9776839,6.9776839 0 0 1 1.15727,2.31454 9.751739,9.751739 0 0 1 0.39143,2.74002 z m -2.80809,-2.07629 a 10.755844,10.755844 0 0 0 -0.17019,-1.80398 5.2758098,5.2758098 0 0 0 -0.5446,-1.59977 3.284617,3.284617 0 0 0 -1.02112,-1.14025 2.7400173,2.7400173 0 0 0 -1.58275,-0.44249 2.6719423,2.6719423 0 0 0 -1.56572,0.44249 3.1484672,3.1484672 0 0 0 -0.98709,1.14025 5.258791,5.258791 0 0 0 -0.51056,1.59977 11.998213,11.998213 0 0 0 -0.15317,1.80398 v 2.07629 a 11.640819,11.640819 0 0 0 0.17019,1.80399 5.4800347,5.4800347 0 0 0 0.51056,1.59976 3.1825047,3.1825047 0 0 0 0.98709,1.15727 2.6549236,2.6549236 0 0 0 1.56572,0.44249 2.7229986,2.7229986 0 0 0 1.58274,-0.44249 3.4037481,3.4037481 0 0 0 1.02112,-1.15727 5.2417723,5.2417723 0 0 0 0.54461,-1.59976 11.232369,11.232369 0 0 0 0.17019,-1.80399 z m 19.38434,-7.01172 v 10.78988 a 6.1948218,6.1948218 0 0 1 -0.42546,2.2635 5.1056224,5.1056224 0 0 1 -1.14026,1.70187 5.0035098,5.0035098 0 0 1 -1.70187,1.12324 6.4841402,6.4841402 0 0 1 -2.33157,0.39143 6.245878,6.245878 0 0 1 -2.28051,-0.39143 4.9524536,4.9524536 0 0 1 -2.89319,-2.87617 6.2288593,6.2288593 0 0 1 -0.42547,-2.28051 V 458.42053 H 174.01 v 10.78988 a 4.9864911,4.9864911 0 0 0 0.20422,1.3615 3.1995232,3.1995232 0 0 0 0.52758,1.07218 2.4166612,2.4166612 0 0 0 0.86796,0.69777 2.7570361,2.7570361 0 0 0 1.20833,0.25528 2.9102048,2.9102048 0 0 0 1.24237,-0.25528 2.4677175,2.4677175 0 0 0 0.90199,-0.69777 3.0974109,3.0974109 0 0 0 0.5446,-1.07218 5.1056224,5.1056224 0 0 0 0.20423,-1.3615 v -10.78988 z m 11.70889,9.78578 h -2.84212 v 6.27991 h -2.80809 v -16.11675 h 5.3609 a 9.2411762,9.2411762 0 0 1 2.39964,0.32336 5.5991658,5.5991658 0 0 1 1.9061,0.902 4.1015167,4.1015167 0 0 1 1.24237,1.51466 4.799285,4.799285 0 0 1 0.44248,2.12735 4.6120788,4.6120788 0 0 1 -0.22124,1.48063 4.2887228,4.2887228 0 0 1 -0.62969,1.20833 4.544004,4.544004 0 0 1 -0.97007,0.95305 6.2288593,6.2288593 0 0 1 -1.25938,0.69777 l 3.59094,6.80749 v 0.13615 h -2.97827 z m -2.84212,-2.14437 h 2.56982 a 4.1866103,4.1866103 0 0 0 1.27641,-0.1872 3.0803921,3.0803921 0 0 0 1.00411,-0.5446 2.3996425,2.3996425 0 0 0 0.66372,-0.85094 2.7400173,2.7400173 0 0 0 0.23827,-1.15727 3.0293358,3.0293358 0 0 0 -0.22124,-1.19132 2.3485863,2.3485863 0 0 0 -0.6297,-0.86795 2.7910737,2.7910737 0 0 0 -1.0041,-0.5446 4.7822662,4.7822662 0 0 0 -1.32747,-0.1872 h -2.55281 z m 25.15369,8.45832 h -2.80808 l -5.51407,-11.0792 v 11.0792 h -2.82512 v -16.11675 h 2.82512 l 5.49705,11.06218 v -11.06218 h 2.8251 z m 16.01464,-7.21595 h -6.97769 v 5.10563 h 8.15198 v 2.16138 h -10.94304 v -16.11675 h 10.87497 v 2.19542 h -8.08391 v 4.544 h 6.97769 z m 17.59738,1.22535 h -9.32627 v -2.12734 h 9.32627 z m 14.77227,2.2635 h -5.29283 l -1.15728,3.74412 h -2.89318 l 5.49705,-16.11675 h 2.38262 l 5.39494,16.11675 h -2.87616 z m -4.57805,-2.2635 h 3.88028 l -1.92312,-6.31395 z m 24.77929,3.98239 a 5.8204095,5.8204095 0 0 1 -1.0041,0.90199 6.6883651,6.6883651 0 0 1 -1.31045,0.71479 8.2540895,8.2540895 0 0 1 -1.56572,0.45951 9.3092511,9.3092511 0 0 1 -1.80398,0.17019 6.1607843,6.1607843 0 0 1 -2.70599,-0.56163 5.7523344,5.7523344 0 0 1 -1.99119,-1.5487 6.89259,6.89259 0 0 1 -1.24237,-2.31455 9.5475142,9.5475142 0 0 1 -0.44249,-2.85915 v -1.99119 a 9.4283822,9.4283822 0 0 1 0.42547,-2.85915 7.0627775,7.0627775 0 0 1 1.20834,-2.31455 5.6332034,5.6332034 0 0 1 1.92311,-1.5487 5.7353157,5.7353157 0 0 1 2.60387,-0.57864 7.5222835,7.5222835 0 0 1 2.34859,0.34038 5.1056224,5.1056224 0 0 1 1.70187,0.98709 4.6971726,4.6971726 0 0 1 1.1743,1.58274 6.3479904,6.3479904 0 0 1 0.54459,2.07628 h -2.74001 a 5.0035098,5.0035098 0 0 0 -0.32336,-1.17429 2.7059799,2.7059799 0 0 0 -0.59566,-0.88498 2.501755,2.501755 0 0 0 -0.90199,-0.56162 3.6249918,3.6249918 0 0 0 -1.25939,-0.1872 2.7059799,2.7059799 0 0 0 -1.51466,0.40845 3.4037481,3.4037481 0 0 0 -1.05517,1.12324 5.3779222,5.3779222 0 0 0 -0.61267,1.70187 9.6836641,9.6836641 0 0 0 -0.20422,1.94014 v 2.00821 a 9.3943448,9.3943448 0 0 0 0.22124,1.92311 5.1056224,5.1056224 0 0 0 0.64671,1.70188 3.4037481,3.4037481 0 0 0 1.12324,1.12324 3.1995232,3.1995232 0 0 0 1.70187,0.42546 h 0.8169 a 5.1056224,5.1056224 0 0 0 0.79988,-0.15316 3.6249918,3.6249918 0 0 0 0.69777,-0.28932 1.7018741,1.7018741 0 0 0 0.51056,-0.42547 v -3.21654 h -3.06337 v -2.05927 h 5.80339 z m 13.88729,-1.71889 h -5.29283 l -1.15726,3.74412 h -2.8932 l 5.49706,-16.11675 h 2.4507 l 5.39494,16.11675 h -2.87617 z m -4.57803,-2.2635 h 3.88027 l -1.92312,-6.31395 z m 13.78518,-10.10913 h 10.07509 v 2.19542 h -3.65903 v 11.72591 h 3.65903 v 2.19542 h -10.07509 v -2.19542 h 3.59095 v -11.72591 h -3.59095 z m 27.63843,16.09973 h -2.80809 l -5.51407,-11.0792 v 11.0792 h -2.8081 v -16.11675 h 2.82512 l 5.49705,11.06218 v -11.06218 h 2.82511 z m 31.91014,-4.13555 a 1.9911927,1.9911927 0 0 0 -0.25528,-1.00411 2.4847362,2.4847362 0 0 0 -0.71479,-0.76584 4.9184163,4.9184163 0 0 0 -1.0892,-0.57864 q -0.62969,-0.25528 -1.37852,-0.4595 a 16.201842,16.201842 0 0 1 -1.97417,-0.68075 7.7265084,7.7265084 0 0 1 -1.70188,-1.00411 4.9524536,4.9524536 0 0 1 -1.24237,-1.37851 3.5058607,3.5058607 0 0 1 -0.47652,-1.83803 3.6930669,3.6930669 0 0 1 0.47652,-1.87206 4.4418914,4.4418914 0 0 1 1.25939,-1.39554 5.9905969,5.9905969 0 0 1 1.83803,-0.88497 7.7435273,7.7435273 0 0 1 2.19542,-0.30634 7.16489,7.16489 0 0 1 2.28051,0.35739 5.9735781,5.9735781 0 0 1 1.85504,1.0041 4.8333225,4.8333225 0 0 1 1.25939,1.54871 4.4078539,4.4078539 0 0 1 0.47652,1.99119 h -2.79107 a 3.6930669,3.6930669 0 0 0 -0.2723,-1.10621 2.5357924,2.5357924 0 0 0 -0.61267,-0.86796 2.6719423,2.6719423 0 0 0 -0.95305,-0.56161 3.8462355,3.8462355 0 0 0 -1.29343,-0.20423 4.203629,4.203629 0 0 0 -1.15727,0.15317 2.7570361,2.7570361 0 0 0 -0.91901,0.45951 2.1613801,2.1613801 0 0 0 -0.61268,0.71478 2.0252302,2.0252302 0 0 0 -0.22125,0.95305 1.7018741,1.7018741 0 0 0 0.30634,0.97007 2.8080922,2.8080922 0 0 0 0.78286,0.7318 5.4800347,5.4800347 0 0 0 1.12324,0.54461 q 0.62969,0.22124 1.32746,0.40845 a 14.534005,14.534005 0 0 1 2.02524,0.7318 7.3350774,7.3350774 0 0 1 1.70187,1.05516 4.7822662,4.7822662 0 0 1 1.15727,1.41255 3.8632542,3.8632542 0 0 1 0.42547,1.85505 3.6930669,3.6930669 0 0 1 -0.47653,1.88908 4.2546853,4.2546853 0 0 1 -1.2764,1.37852 5.9905969,5.9905969 0 0 1 -1.85504,0.83391 8.5093706,8.5093706 0 0 1 -2.21244,0.28933 8.3391832,8.3391832 0 0 1 -1.54871,-0.13615 7.2840211,7.2840211 0 0 1 -1.46361,-0.42548 6.5011591,6.5011591 0 0 1 -1.31044,-0.71478 5.190716,5.190716 0 0 1 -1.05516,-0.98709 4.4248727,4.4248727 0 0 1 -0.97007,-2.77405 h 2.8081 a 3.4037481,3.4037481 0 0 0 0.34037,1.27641 2.6379048,2.6379048 0 0 0 0.74882,0.90199 3.2505795,3.2505795 0 0 0 1.0892,0.54459 4.9013975,4.9013975 0 0 0 1.37852,0.18721 4.6971726,4.6971726 0 0 0 1.17429,-0.13615 2.9952986,2.9952986 0 0 0 0.95305,-0.42547 2.1103239,2.1103239 0 0 0 0.64671,-0.69777 1.8890803,1.8890803 0 0 0 0.20423,-0.98708 z m 19.23117,4.13555 h -2.70597 v -7.19893 h -5.78637 v 7.19893 h -2.723 v -16.11675 h 2.70598 v 6.8075 h 5.80339 v -6.8075 h 2.72299 z m 16.01464,-7.21595 h -6.97768 v 5.10563 h 8.15197 v 2.16138 h -10.96006 v -16.11675 h 10.87497 v 2.19542 h -8.0839 v 4.544 h 6.9947 z m 10.21124,5.05457 h 8.08391 v 2.16138 h -10.87498 v -16.11675 h 2.79107 z m 17.01874,0 h 8.08391 v 2.16138 h -10.87496 v -16.11675 h 2.79105 z"
       id="path16"
       style="fill:#2f3a3e;stroke-width:1.70187" />
    <g
       id="g4812"
       transform="translate(-5.3011555)">
      <path
         class="cls-1"
         d="m 366.50377,73.245958 -88.92011,-52.79298 a 33.491936,33.491936 0 0 0 -34.31099,0 l -88.93792,52.79298 a 35.468334,35.468334 0 0 0 -17.14659,30.554052 v 105.56814 a 35.468334,35.468334 0 0 0 17.14659,30.53624 l 88.92011,52.77519 a 33.509741,33.509741 0 0 0 34.31099,0 l 88.92012,-52.77519 a 35.468334,35.468334 0 0 0 17.16439,-30.55404 V 103.80001 A 35.468334,35.468334 0 0 0 366.50377,73.245958 Z"
         id="path8"
         style="fill:#ffffff;stroke-width:1.78054" />
      <path
         class="cls-2"
         d="m 366.50377,73.245958 -88.92011,-52.79298 a 33.491936,33.491936 0 0 0 -34.31099,0 l -88.93792,52.79298 a 35.468334,35.468334 0 0 0 -17.14659,30.554052 v 105.56814 a 35.468334,35.468334 0 0 0 17.14659,30.53624 l 88.92011,52.77519 a 33.509741,33.509741 0 0 0 34.31099,0 l 88.92012,-52.77519 a 35.468334,35.468334 0 0 0 17.16439,-30.55404 V 103.80001 A 35.468334,35.468334 0 0 0 366.50377,73.245958 Z M 246.37081,287.28454 157.45069,234.50936 A 29.272059,29.272059 0 0 1 143.34882,209.36815 V 103.80001 a 29.254253,29.254253 0 0 1 14.10187,-25.141214 l 88.92012,-52.792972 a 27.420298,27.420298 0 0 1 28.0969,0 l 88.84889,52.792972 a 29.076199,29.076199 0 0 1 13.65674,20.333753 c -2.9557,-6.285296 -9.59711,-8.012421 -17.34245,-3.561078 l -84.05924,52.062959 c -10.48738,6.10725 -18.21492,12.99793 -18.23272,25.63976 v 103.66297 c 0,7.5673 3.04472,12.46378 7.74534,13.90601 a 27.242246,27.242246 0 0 1 -4.66501,0.44514 27.544938,27.544938 0 0 1 -14.04845,-3.86377 z"
         id="path10"
         style="fill:#2f3a3e;stroke-width:1.78054" />
      <path
         class="cls-3"
         d="m 343.19652,219.57064 -22.14991,13.24721 a 1.6202904,1.6202904 0 0 0 -1.01491,1.44224 v 5.82236 c 0,0.71222 0.48075,0.9971 1.06833,0.6588 l 22.48821,-13.67454 a 1.7805389,1.7805389 0 0 0 0.6766,-1.78054 v -5.11015 c -0.0178,-0.65879 -0.53416,-0.94368 -1.06832,-0.60538 z"
         id="path12"
         style="fill:#3ab14a;stroke-width:1.78054" />
      <path
         class="cls-1"
         d="m 296.04784,170.80168 c 0.71222,-0.35611 1.2998,0 1.3176,1.01491 l 0.0712,7.72753 a 14.244311,14.244311 0 0 1 8.51097,-1.0327 c 0.55197,0.14244 0.78344,0.89026 0.56977,1.78054 l -1.69151,6.78385 a 2.9200839,2.9200839 0 0 1 -0.76563,1.35321 1.7805389,1.7805389 0 0 1 -0.44514,0.32049 1.0149071,1.0149071 0 0 1 -0.6588,0.10684 11.288617,11.288617 0 0 0 -8.20828,1.31759 10.309321,10.309321 0 0 0 -6.07164,9.13417 c 0,3.56108 1.78054,4.54037 7.99463,4.64721 8.20828,0.14244 11.76936,3.72132 11.85838,12.00083 a 29.432307,29.432307 0 0 1 -10.8969,22.20332 l 0.14245,7.5851 a 2.7776406,2.7776406 0 0 1 -1.2998,2.3147 l -4.48696,2.58178 c -0.71221,0.3561 -1.29979,0 -1.3176,-0.99711 v -7.46045 c -3.84596,1.60248 -7.74534,1.97639 -10.23809,0.97929 -0.46294,-0.17806 -0.67661,-0.87247 -0.48075,-1.6737 l 1.62029,-6.85508 a 2.8666676,2.8666676 0 0 1 0.80125,-1.42443 1.7805389,1.7805389 0 0 1 0.42733,-0.30269 0.89026942,0.89026942 0 0 1 0.73002,0 12.463772,12.463772 0 0 0 9.41905,-1.19296 12.321329,12.321329 0 0 0 6.96191,-10.68324 c 0,-3.84596 -2.11885,-5.44844 -7.12216,-5.48406 -6.46335,0 -12.46377,-1.24638 -12.58841,-10.68323 a 27.598352,27.598352 0 0 1 10.43396,-21.11719 l -0.3205,-7.76315 a 2.7598352,2.7598352 0 0 1 1.29979,-2.35031 z"
         id="path14"
         style="fill:#ffffff;stroke-width:1.78054" />
    </g>
  </g>
</svg>
