<?xml version="1.0" encoding="UTF-8" standalone="no"?>
<svg
   id="logo_vector"
   data-name="logo vector"
   viewBox="0 0 170 170"
   version="1.1"
   width="170"
   height="170"
   xmlns="http://www.w3.org/2000/svg"
   xmlns:svg="http://www.w3.org/2000/svg">
  <defs
     id="defs3696">
    <style
       id="style3681">.cls-1{fill:none;}.cls-2{fill:#757575;}.cls-3{clip-path:url(#clip-path);}.cls-4{isolation:isolate;opacity:0.2;}.cls-5{fill:#54c5f8;}.cls-6{fill:#01579b;}.cls-7{fill:url(#linear-gradient);}.cls-8{fill:#29b6f6;}.cls-9{fill:url(#radial-gradient);} </style>
    <clipPath
       id="clip-path">
      <path
         class="cls-1"
         d="M 137.31,78.47 91.55,124.23 137.31,170 H 85 L 65.39,150.39 v 0 L 39.23,124.23 85,78.47 Z M 85,0 0,85 26.16,111.16 137.31,0 Z"
         id="path3683" />
    </clipPath>
    <linearGradient
       id="linear-gradient"
       x1="6319.0601"
       y1="3680.76"
       x2="6396.98"
       y2="3602.8401"
       gradientTransform="matrix(0.25,0,0,0.25,-1506.75,-764.75)"
       gradientUnits="userSpaceOnUse">
      <stop
         offset="0"
         stop-color="#1a237e"
         stop-opacity="0.4"
         id="stop3686" />
      <stop
         offset="1"
         stop-color="#1a237e"
         stop-opacity="0"
         id="stop3688" />
    </linearGradient>
  </defs>
  <g
     class="cls-3"
     clip-path="url(#clip-path)"
     id="g3714"
     transform="translate(16.345)">
    <polygon
       class="cls-5"
       points="137.31,78.47 85,78.47 39.24,124.24 65.39,150.39 "
       id="polygon3712" />
  </g>
  <g
     class="cls-3"
     clip-path="url(#clip-path)"
     id="g3718"
     transform="translate(16.345)">
    <polygon
       class="cls-5"
       points="85,0 137.31,0 26.16,111.16 0,85 "
       id="polygon3716" />
  </g>
  <g
     class="cls-3"
     clip-path="url(#clip-path)"
     id="g3722"
     transform="translate(16.345)">
    <polygon
       class="cls-6"
       points="85,170 137.31,170 91.53,124.24 65.39,150.39 "
       id="polygon3720" />
  </g>
  <g
     class="cls-3"
     clip-path="url(#clip-path)"
     id="g3726"
     transform="translate(16.345)">
    <polygon
       class="cls-7"
       points="104.18,136.96 91.53,124.24 65.39,150.39 "
       id="polygon3724"
       style="fill:url(#linear-gradient)" />
  </g>
  <g
     class="cls-3"
     clip-path="url(#clip-path)"
     id="g3730"
     transform="translate(16.345)">
    <rect
       class="cls-8"
       x="46.889999"
       y="105.74"
       width="36.98"
       height="36.98"
       transform="rotate(-45,65.386162,124.22616)"
       id="rect3728" />
  </g>
</svg>
