<?xml version="1.0" encoding="UTF-8" standalone="no"?>
<svg
   role="img"
   viewBox="0 0 10922.667 10921.301"
   version="1.1"
   id="svg6"
   sodipodi:docname="lua-icon.svg"
   inkscape:export-filename="lua.svg"
   inkscape:export-xdpi="2047.74"
   inkscape:export-ydpi="2047.74"
   inkscape:version="1.2 (dc2aedaf03, 2022-05-15)"
   width="512"
   height="511.936"
   xmlns:inkscape="http://www.inkscape.org/namespaces/inkscape"
   xmlns:sodipodi="http://sodipodi.sourceforge.net/DTD/sodipodi-0.dtd"
   xmlns="http://www.w3.org/2000/svg"
   xmlns:svg="http://www.w3.org/2000/svg"
   xmlns:rdf="http://www.w3.org/1999/02/22-rdf-syntax-ns#"
   xmlns:cc="http://creativecommons.org/ns#"
   xmlns:dc="http://purl.org/dc/elements/1.1/">
  <defs
     id="defs10" />
  <sodipodi:namedview
     id="namedview8"
     pagecolor="#505050"
     bordercolor="#eeeeee"
     borderopacity="1"
     inkscape:showpageshadow="0"
     inkscape:pageopacity="0"
     inkscape:pagecheckerboard="0"
     inkscape:deskcolor="#505050"
     showgrid="false"
     inkscape:zoom="1.1028646"
     inkscape:cx="291.06021"
     inkscape:cy="294.68713"
     inkscape:window-width="1920"
     inkscape:window-height="1027"
     inkscape:window-x="1912"
     inkscape:window-y="-8"
     inkscape:window-maximized="1"
     inkscape:current-layer="svg6" />
  <title
     id="title2">Lua</title>
  <g
     id="g3713"
     transform="matrix(455.05423,0,0,455.05423,0.45505423,0)">
    <ellipse
       style="fill:#ffffff;fill-opacity:1;fill-rule:nonzero;stroke:none;stroke-width:1.03424;stroke-opacity:1"
       id="path3371"
       cx="12.028336"
       cy="12.014167"
       rx="8.9964581"
       ry="8.9822903" />
    <path
       d="m 15.324,15.447 c 0,0.471 0.314,0.66 0.852,0.66 0.67,0 1.297,-0.396 1.297,-1.016 v -0.645 c -0.23,0.107 -0.379,0.141 -1.107,0.24 -0.735,0.109 -1.042,0.306 -1.042,0.761 z M 12,2.818 c -5.07,0 -9.18,4.109 -9.18,9.18 0,5.068 4.11,9.18 9.18,9.18 5.07,0 9.18,-4.111 9.18,-9.18 0,-5.07 -4.11,-9.18 -9.18,-9.18 z M 9.513,16.588 H 5.771 V 10.565 H 6.54 v 5.346 h 2.974 v 0.677 z m 4.13,0 h -0.619 v -0.67 c -0.405,0.57 -0.811,0.793 -1.446,0.793 -0.843,0 -1.38,-0.463 -1.38,-1.182 v -3.271 h 0.686 v 3 c 0,0.52 0.347,0.85 0.893,0.85 0.719,0 1.181,-0.578 1.181,-1.461 v -2.389 h 0.686 v 4.33 z m -0.53,-8.393 c 0,-1.484 1.205,-2.689 2.689,-2.689 1.484,0 2.688,1.205 2.688,2.689 0,1.484 -1.203,2.688 -2.688,2.688 -1.485,0 -2.689,-1.203 -2.689,-2.688 z m 5.567,7.856 v 0.52 c -0.223,0.059 -0.33,0.074 -0.471,0.074 -0.34,0 -0.637,-0.238 -0.711,-0.57 -0.381,0.406 -0.918,0.637 -1.471,0.637 -0.877,0 -1.422,-0.463 -1.422,-1.248 0,-0.527 0.256,-0.916 0.76,-1.123 0.266,-0.107 0.414,-0.141 1.389,-0.264 0.545,-0.066 0.719,-0.191 0.719,-0.48 v -0.182 c 0,-0.412 -0.348,-0.645 -0.967,-0.645 -0.645,0 -0.957,0.24 -1.016,0.77 h -0.693 c 0.041,-1 0.686,-1.404 1.734,-1.404 1.066,0 1.627,0.412 1.627,1.182 v 2.412 c 0,0.215 0.133,0.338 0.373,0.338 0.041,-0.002 0.074,-0.002 0.149,-0.017 z"
       id="path1722"
       style="fill:#000080;fill-opacity:1" />
    <path
       d="m 21.18,0.129 a 2.689,2.689 0 1 0 0,5.378 2.689,2.689 0 1 0 0,-5.378 z"
       id="path1720"
       style="fill:#000080;fill-opacity:1" />
    <g
       id="g1757"
       style="fill:#9a9a9a;fill-opacity:1">
      <path
         d="m 14.445,23.475 0.059,0.27 c 0.34,-0.074 0.68,-0.162 1.014,-0.266 l -0.082,-0.262 c -0.325,0.099 -0.659,0.185 -0.991,0.258 z"
         id="path1718"
         style="fill:#9a9a9a;fill-opacity:1" />
      <path
         d="m 3.083,20.041 c 0.233,0.258 0.48,0.51 0.734,0.746 L 4.005,20.586 C 3.756,20.356 3.515,20.109 3.288,19.857 Z"
         id="path1716"
         style="fill:#9a9a9a;fill-opacity:1" />
      <path
         d="m 6.37,22.604 c 0.307,0.162 0.625,0.314 0.946,0.449 L 7.423,22.799 C 7.11,22.666 6.799,22.52 6.499,22.36 Z"
         id="path1714"
         style="fill:#9a9a9a;fill-opacity:1" />
      <path
         d="M 12.417,23.725 12.426,24 c 0.348,-0.014 0.699,-0.041 1.045,-0.084 l -0.035,-0.271 c -0.336,0.041 -0.68,0.068 -1.019,0.08 z"
         id="path1712"
         style="fill:#9a9a9a;fill-opacity:1" />
      <path
         d="m 4.613,21.467 c 0.274,0.213 0.562,0.418 0.854,0.605 l 0.149,-0.23 C 5.331,21.658 5.051,21.457 4.783,21.25 Z"
         id="path1710"
         style="fill:#9a9a9a;fill-opacity:1" />
      <path
         d="m 17.326,22.449 c -0.303,0.154 -0.613,0.297 -0.926,0.424 l 0.104,0.256 c 0.318,-0.131 0.639,-0.275 0.947,-0.434 l 0.004,-0.002 -0.123,-0.246 z"
         id="path1708"
         style="fill:#9a9a9a;fill-opacity:1" />
      <path
         d="m 10.335,23.889 c 0.345,0.049 0.696,0.082 1.043,0.102 l 0.014,-0.275 C 11.053,23.698 10.71,23.665 10.373,23.618 Z"
         id="path1706"
         style="fill:#9a9a9a;fill-opacity:1" />
      <path
         d="m 8.296,23.418 c 0.331,0.107 0.67,0.201 1.009,0.279 L 9.367,23.429 C 9.036,23.353 8.704,23.261 8.381,23.156 Z"
         id="path1704"
         style="fill:#9a9a9a;fill-opacity:1" />
      <path
         d="m 22.453,6.672 c 0.154,0.303 0.297,0.617 0.424,0.932 L 23.133,7.5 C 23.002,7.178 22.856,6.857 22.697,6.547 Z"
         id="path1702"
         style="fill:#9a9a9a;fill-opacity:1" />
      <path
         d="m 23.156,15.621 0.264,0.086 c 0.107,-0.332 0.201,-0.67 0.279,-1.01 l -0.268,-0.063 c -0.077,0.333 -0.169,0.665 -0.275,0.987 z"
         id="path1700"
         style="fill:#9a9a9a;fill-opacity:1" />
      <path
         d="m 23.617,13.629 0.273,0.039 c 0.049,-0.346 0.082,-0.695 0.102,-1.043 l -0.275,-0.014 c -0.018,0.338 -0.051,0.682 -0.1,1.018 z"
         id="path1698"
         style="fill:#9a9a9a;fill-opacity:1" />
      <path
         d="m 22.359,17.504 0.244,0.129 c 0.162,-0.307 0.314,-0.625 0.449,-0.945 l -0.254,-0.107 a 11.27,11.27 0 0 1 -0.439,0.923 z"
         id="path1696"
         style="fill:#9a9a9a;fill-opacity:1" />
      <path
         d="m 19.855,20.715 0.184,0.203 c 0.258,-0.23 0.51,-0.479 0.746,-0.732 l -0.201,-0.188 c -0.23,0.248 -0.477,0.488 -0.729,0.717 z"
         id="path1694"
         style="fill:#9a9a9a;fill-opacity:1" />
      <path
         d="m 21.248,19.219 0.217,0.17 c 0.215,-0.273 0.418,-0.561 0.607,-0.854 l -0.23,-0.148 c -0.186,0.285 -0.385,0.564 -0.594,0.832 z"
         id="path1692"
         style="fill:#9a9a9a;fill-opacity:1" />
      <path
         d="m 18.223,21.943 0.145,0.234 c 0.295,-0.186 0.586,-0.385 0.863,-0.594 l -0.164,-0.219 c -0.272,0.204 -0.557,0.4 -0.844,0.579 z"
         id="path1690"
         style="fill:#9a9a9a;fill-opacity:1" />
      <path
         d="M 0.943,7.318 1.196,7.425 C 1.328,7.112 1.476,6.8 1.635,6.501 L 1.392,6.373 C 1.229,6.68 1.078,6.998 0.943,7.318 Z"
         id="path1688"
         style="fill:#9a9a9a;fill-opacity:1" />
      <path
         d="m 1.921,5.469 0.231,0.15 C 2.337,5.334 2.536,5.053 2.744,4.785 L 2.527,4.615 C 2.314,4.891 2.11,5.178 1.921,5.469 Z"
         id="path1686"
         style="fill:#9a9a9a;fill-opacity:1" />
      <path
         d="M 9.544,0.527 9.486,0.257 C 9.146,0.329 8.805,0.417 8.472,0.521 L 8.553,0.783 C 8.878,0.684 9.212,0.598 9.544,0.527 Z"
         id="path1684"
         style="fill:#9a9a9a;fill-opacity:1" />
      <path
         d="M 13.654,0.105 C 13.308,0.058 12.958,0.025 12.611,0.007 L 12.597,0.28 c 0.339,0.018 0.683,0.051 1.019,0.098 z"
         id="path1682"
         style="fill:#9a9a9a;fill-opacity:1" />
      <path
         d="m 23.727,11.588 0.275,-0.01 A 11.797,11.797 0 0 0 23.92,10.533 l -0.273,0.033 c 0.041,0.338 0.068,0.682 0.08,1.022 z"
         id="path1680"
         style="fill:#9a9a9a;fill-opacity:1" />
      <path
         d="M 6.674,1.545 C 6.972,1.395 7.28,1.254 7.59,1.127 L 7.486,0.873 C 7.169,1 6.854,1.145 6.549,1.301 L 6.534,1.309 6.659,1.553 Z"
         id="path1678"
         style="fill:#9a9a9a;fill-opacity:1" />
      <path
         d="M 15.693,0.572 C 15.361,0.467 15.023,0.373 14.683,0.295 L 14.62,0.563 c 0.332,0.076 0.664,0.168 0.988,0.273 z"
         id="path1676"
         style="fill:#9a9a9a;fill-opacity:1" />
      <path
         d="M 17.621,1.389 C 17.312,1.225 16.994,1.075 16.674,0.94 l -0.107,0.252 c 0.314,0.133 0.625,0.281 0.926,0.439 z"
         id="path1674"
         style="fill:#9a9a9a;fill-opacity:1" />
      <path
         d="m 23.221,8.566 c 0.1,0.326 0.186,0.66 0.256,0.992 l 0.27,-0.059 C 23.675,9.159 23.587,8.817 23.485,8.485 Z"
         id="path1672"
         style="fill:#9a9a9a;fill-opacity:1" />
      <path
         d="M 11.573,0.275 11.563,0 c -0.348,0.012 -0.699,0.039 -1.044,0.082 l 0.034,0.273 c 0.338,-0.041 0.68,-0.068 1.02,-0.08 z"
         id="path1670"
         style="fill:#9a9a9a;fill-opacity:1" />
      <path
         d="m 0.256,14.506 c 0.073,0.34 0.162,0.682 0.264,1.014 L 0.783,15.44 C 0.683,15.114 0.596,14.782 0.525,14.45 Z"
         id="path1668"
         style="fill:#9a9a9a;fill-opacity:1" />
      <path
         d="m 0.274,12.42 -0.275,0.01 c 0.012,0.348 0.04,0.699 0.083,1.043 L 0.355,13.44 C 0.313,13.104 0.286,12.76 0.274,12.42 Z"
         id="path1666"
         style="fill:#9a9a9a;fill-opacity:1" />
      <path
         d="M 0.298,9.309 0.567,9.372 C 0.643,9.04 0.735,8.708 0.839,8.386 L 0.578,8.299 C 0.47,8.631 0.376,8.971 0.298,9.309 Z"
         id="path1664"
         style="fill:#9a9a9a;fill-opacity:1" />
      <path
         d="m 1.127,16.402 -0.255,0.104 c 0.129,0.318 0.274,0.635 0.431,0.943 l 0.005,0.01 0.245,-0.125 -0.005,-0.01 C 1.395,17.023 1.253,16.713 1.127,16.402 Z"
         id="path1662"
         style="fill:#9a9a9a;fill-opacity:1" />
      <path
         d="m 1.824,18.369 c 0.185,0.297 0.384,0.586 0.593,0.863 l 0.22,-0.164 C 2.432,18.797 2.238,18.513 2.057,18.224 Z"
         id="path1660"
         style="fill:#9a9a9a;fill-opacity:1" />
      <path
         d="M 5.769,2.059 5.623,1.824 C 5.327,2.01 5.037,2.209 4.76,2.418 L 4.926,2.637 C 5.196,2.434 5.48,2.238 5.769,2.059 Z"
         id="path1658"
         style="fill:#9a9a9a;fill-opacity:1" />
      <path
         d="M 4.136,3.289 3.952,3.084 C 3.694,3.316 3.443,3.564 3.206,3.818 L 3.408,4.006 C 3.639,3.758 3.884,3.516 4.136,3.289 Z"
         id="path1656"
         style="fill:#9a9a9a;fill-opacity:1" />
      <path
         d="M 0.38,10.377 0.108,10.34 C 0.06,10.684 0.026,11.035 0.007,11.381 l 0.275,0.016 C 0.3,11.057 0.333,10.715 0.38,10.377 Z"
         id="path4"
         style="fill:#9a9a9a;fill-opacity:1" />
    </g>
  </g>
  <metadata
     id="metadata3632">
    <rdf:RDF>
      <cc:Work
         rdf:about="">
        <dc:title>Lua</dc:title>
      </cc:Work>
    </rdf:RDF>
  </metadata>
</svg>
