<?xml version="1.0" encoding="UTF-8" standalone="no"?>
<svg
   role="img"
   viewBox="0 0 24 24"
   version="1.1"
   id="svg6"
   sodipodi:docname="python.svg"
   inkscape:version="1.2 (dc2aedaf03, 2022-05-15)"
   xmlns:inkscape="http://www.inkscape.org/namespaces/inkscape"
   xmlns:sodipodi="http://sodipodi.sourceforge.net/DTD/sodipodi-0.dtd"
   xmlns="http://www.w3.org/2000/svg"
   xmlns:svg="http://www.w3.org/2000/svg">
  <defs
     id="defs10" />
  <sodipodi:namedview
     id="namedview8"
     pagecolor="#505050"
     bordercolor="#eeeeee"
     borderopacity="1"
     inkscape:showpageshadow="0"
     inkscape:pageopacity="0"
     inkscape:pagecheckerboard="0"
     inkscape:deskcolor="#505050"
     showgrid="false"
     inkscape:zoom="35.291667"
     inkscape:cx="11.234947"
     inkscape:cy="-1.5867769"
     inkscape:window-width="1920"
     inkscape:window-height="1027"
     inkscape:window-x="-8"
     inkscape:window-y="-8"
     inkscape:window-maximized="1"
     inkscape:current-layer="svg6" />
  <title
     id="title2">Python</title>
  <path
     id="path223"
     style="fill:#d2d070;fill-opacity:1"
     d="M 18.599609 6.0703125 L 18.599609 9.1308594 L 18.580078 9.3398438 L 18.539062 9.6191406 L 18.470703 9.9394531 L 18.369141 10.289062 L 18.220703 10.650391 L 18.019531 11.009766 L 17.75 11.359375 L 17.419922 11.679688 L 17.009766 11.960938 L 16.509766 12.169922 L 15.919922 12.310547 L 15.230469 12.359375 L 9.390625 12.359375 L 9.2597656 12.369141 L 9.0507812 12.390625 L 8.7890625 12.429688 L 8.4902344 12.490234 L 8.1601562 12.589844 L 7.8105469 12.730469 L 7.4609375 12.929688 L 7.1308594 13.169922 L 6.8300781 13.490234 L 6.5703125 13.869141 L 6.359375 14.330078 L 6.2304688 14.869141 L 6.1796875 15.509766 L 6.1796875 20.849609 L 6.1699219 20.980469 L 6.1894531 21.179688 L 6.2304688 21.429688 L 6.3300781 21.730469 L 6.4902344 22.060547 L 6.7402344 22.400391 L 7.0800781 22.740234 L 7.5292969 23.070312 L 8.1191406 23.369141 L 8.8496094 23.619141 L 9.75 23.820312 L 10.820312 23.960938 L 12.089844 24 L 12.929688 23.990234 L 13.699219 23.949219 L 14.410156 23.880859 L 15.050781 23.789062 L 15.630859 23.660156 L 16.140625 23.509766 L 16.580078 23.339844 L 16.960938 23.140625 L 17.269531 22.900391 L 17.519531 22.650391 L 17.689453 22.359375 L 17.800781 22.050781 L 17.849609 21.710938 L 17.830078 21.349609 L 17.820312 18.589844 L 11.980469 18.589844 L 11.980469 17.769531 L 20.199219 17.769531 L 20.359375 17.779297 L 20.599609 17.759766 L 20.919922 17.710938 L 21.279297 17.619141 L 21.679688 17.460938 L 22.099609 17.220703 L 22.519531 16.890625 L 22.919922 16.439453 L 23.279297 15.869141 L 23.599609 15.160156 L 23.839844 14.300781 L 24 13.259766 L 24.060547 12.029297 L 24.009766 10.800781 L 23.869141 9.7597656 L 23.660156 8.8808594 L 23.380859 8.1503906 L 23.060547 7.5605469 L 22.710938 7.0898438 L 22.349609 6.7402344 L 21.990234 6.4707031 L 21.640625 6.2890625 L 21.320312 6.1699219 L 21.039062 6.109375 L 20.830078 6.0800781 L 20.689453 6.0703125 L 18.599609 6.0703125 z M 15.310547 20.050781 L 15.720703 20.130859 L 16.050781 20.359375 L 16.279297 20.689453 L 16.359375 21.099609 L 16.279297 21.509766 L 16.050781 21.839844 L 15.720703 22.070312 L 15.310547 22.150391 L 14.900391 22.070312 L 14.570312 21.839844 L 14.339844 21.509766 L 14.259766 21.099609 L 14.339844 20.689453 L 14.570312 20.359375 L 14.900391 20.130859 L 15.310547 20.050781 z " />
  <path
     id="path219"
     style="fill:#3963aa;fill-opacity:1"
     d="M 11.910156 0 L 11.070312 0.01953125 L 10.300781 0.060546875 L 9.5898438 0.11914062 L 8.9492188 0.22070312 L 8.3691406 0.33984375 L 7.859375 0.49023438 L 7.4199219 0.66992188 L 7.0390625 0.86914062 L 6.7304688 1.0996094 L 6.4804688 1.359375 L 6.3105469 1.640625 L 6.1992188 1.9492188 L 6.1503906 2.2890625 L 6.1699219 2.6601562 L 6.1796875 5.4101562 L 12.019531 5.4101562 L 12.019531 6.2402344 L 3.859375 6.2402344 L 3.8007812 6.2304688 L 3.640625 6.2304688 L 3.4003906 6.2402344 L 3.0800781 6.2890625 L 2.7207031 6.390625 L 2.3203125 6.5507812 L 1.9003906 6.7890625 L 1.4804688 7.1191406 L 1.0800781 7.5605469 L 0.72070312 8.1308594 L 0.40039062 8.8398438 L 0.16015625 9.7109375 L 0 10.75 L -0.060546875 11.970703 L -0.009765625 13.199219 L 0.13085938 14.25 L 0.33984375 15.130859 L 0.61914062 15.859375 L 0.93945312 16.449219 L 1.2890625 16.910156 L 1.6503906 17.269531 L 2.0097656 17.529297 L 2.359375 17.710938 L 2.6796875 17.830078 L 2.9609375 17.900391 L 3.1699219 17.929688 L 5.4003906 17.929688 L 5.4003906 14.869141 L 5.4199219 14.660156 L 5.4609375 14.390625 L 5.5292969 14.070312 L 5.6308594 13.720703 L 5.7792969 13.349609 L 5.9804688 12.990234 L 6.25 12.640625 L 6.5800781 12.320312 L 6.9902344 12.050781 L 7.4902344 11.830078 L 8.0800781 11.689453 L 8.7695312 11.640625 L 14.740234 11.640625 L 14.949219 11.619141 L 15.210938 11.580078 L 15.509766 11.509766 L 15.839844 11.410156 L 16.189453 11.269531 L 16.539062 11.080078 L 16.869141 10.830078 L 17.169922 10.519531 L 17.429688 10.140625 L 17.640625 9.6796875 L 17.769531 9.1308594 L 17.820312 8.5 L 17.820312 3.1601562 L 17.830078 3.0292969 L 17.810547 2.8300781 L 17.769531 2.5703125 L 17.669922 2.2695312 L 17.509766 1.9394531 L 17.259766 1.5996094 L 16.919922 1.2597656 L 16.470703 0.93945312 L 15.880859 0.640625 L 15.150391 0.38085938 L 14.25 0.1796875 L 13.179688 0.05078125 L 11.910156 0 z M 8.6894531 1.8496094 L 9.0996094 1.9394531 L 9.4296875 2.1601562 L 9.6601562 2.4902344 L 9.7402344 2.9003906 L 9.6601562 3.3105469 L 9.4296875 3.6503906 L 9.0996094 3.8691406 L 8.6894531 3.9609375 L 8.2792969 3.8691406 L 7.9492188 3.6503906 L 7.7207031 3.3105469 L 7.640625 2.9003906 L 7.7207031 2.4902344 L 7.9492188 2.1601562 L 8.2792969 1.9394531 L 8.6894531 1.8496094 z " />
</svg>
