<?xml version="1.0" encoding="UTF-8" standalone="no"?>
<svg
   role="img"
   viewBox="0 0 10922.667 10922.667"
   version="1.1"
   id="svg3914"
   sodipodi:docname="scratch-icon.svg"
   inkscape:export-filename="scratch.svg"
   inkscape:export-xdpi="2047.74"
   inkscape:export-ydpi="2047.74"
   width="512"
   height="512"
   inkscape:version="1.2 (dc2aedaf03, 2022-05-15)"
   xmlns:inkscape="http://www.inkscape.org/namespaces/inkscape"
   xmlns:sodipodi="http://sodipodi.sourceforge.net/DTD/sodipodi-0.dtd"
   xmlns="http://www.w3.org/2000/svg"
   xmlns:svg="http://www.w3.org/2000/svg"
   xmlns:rdf="http://www.w3.org/1999/02/22-rdf-syntax-ns#"
   xmlns:cc="http://creativecommons.org/ns#"
   xmlns:dc="http://purl.org/dc/elements/1.1/">
  <defs
     id="defs3918">
    <inkscape:path-effect
       effect="fill_between_strokes"
       id="path-effect5861"
       is_visible="true"
       lpeversion="1.2"
       linkedpath=""
       secondpath=""
       reversesecond="false"
       join="true"
       close="true" />
  </defs>
  <sodipodi:namedview
     id="namedview3916"
     pagecolor="#505050"
     bordercolor="#eeeeee"
     borderopacity="1"
     inkscape:showpageshadow="0"
     inkscape:pageopacity="0"
     inkscape:pagecheckerboard="0"
     inkscape:deskcolor="#505050"
     showgrid="false"
     inkscape:zoom="1.0729167"
     inkscape:cx="171.02913"
     inkscape:cy="256.31068"
     inkscape:window-width="1920"
     inkscape:window-height="1027"
     inkscape:window-x="1912"
     inkscape:window-y="-8"
     inkscape:window-maximized="1"
     inkscape:current-layer="svg3914" />
  <title
     id="title3910">Scratch</title>
  <g
     id="g5991"
     transform="matrix(455.11104,0,0,454.22182,-0.02352347,10.666673)">
    <path
       style="fill:#f5a519;fill-opacity:1;fill-rule:nonzero;stroke:none;stroke-width:0.0582524;stroke-opacity:1"
       d="M 8.3455078,21.259713 C 7.8537859,21.127286 7.454607,20.892786 7.0407087,20.493202 6.3542958,19.830525 6.1349036,19.249067 6.0780111,17.941748 6.0349088,16.951309 6.1528581,13.453341 6.2430069,13.048544 6.3320193,12.64885 6.5530292,12.1601 6.7639284,11.896558 L 6.9399408,11.67661 6.8459288,11.226655 C 6.6341826,10.213206 6.6913886,8.6146777 6.9881531,7.2524272 7.4176598,5.2808448 8.5636008,3.992756 10.281553,3.5504981 10.567038,3.4770049 10.92515,3.4436875 11.475728,3.4393966 l 0.786408,-0.00613 0.305001,-0.2121404 c 0.617267,-0.4293324 1.465901,-0.6067813 2.186023,-0.4570961 0.788588,0.1639165 1.608743,0.7634081 2.014401,1.4724238 0.102082,0.1784202 0.239048,0.5302468 0.304371,0.7818367 0.11452,0.4410774 0.116469,0.5220167 0.05451,2.2632616 -0.0867,2.4365889 -0.152562,3.3792318 -0.261297,3.7400248 l -0.09136,0.303131 0.271879,0.395898 c 0.339103,0.493786 0.568501,0.998238 0.732517,1.610822 0.179068,0.668801 0.178435,1.900449 -0.0013,2.571484 -0.275327,1.027807 -0.97966,2.142262 -1.798108,2.845123 -1.076037,0.924071 -2.339386,1.390323 -3.772803,1.392393 l -0.696964,0.001 -0.323094,0.32734 c -0.349455,0.354049 -0.835631,0.640468 -1.3372402,0.787805 -0.3851236,0.113121 -1.0892888,0.114588 -1.5031426,0.0031 z"
       id="path5510"
       class="UnoptimicedTransforms"
       sodipodi:nodetypes="csssscsssscsssssscsscsccsscc"
       transform="matrix(1.040604,0,0,1.040604,-0.48686089,-0.48834612)" />
    <path
       d="m 11.406,11.312 c -0.78,-0.123 -1.198,-0.654 -0.99,-2.295 l 0.023,-0.198 c 0.175,-1.426 0.321,-1.743 0.996,-1.706 0.198,0.013 0.426,0.14 0.654,0.33 0.211,0.247 0.68,0.568 0.945,1.204 0.19,0.466 0.254,0.77 0.281,1.098 l 0.042,0.402 v -0.002 a 0.68,0.68 0 0 0 1.342,-0.007 c 0.008,-0.044 0.176,-4.365 0.176,-4.436 0,-0.38 -0.302,-0.69 -0.68,-0.696 a 0.685,0.685 0 0 0 -0.682,0.688 c 0,0.009 -10e-4,0.605 -0.014,1.206 C 12.963,6.308 12.276,5.777 11.505,5.73 9.447,5.62 9.222,7.541 9.086,8.648 l -0.02,0.196 c -0.278,2.189 0.441,3.569 2.13,3.837 1.838,0.293 3.063,0.72 3.074,1.868 0.007,0.446 -0.224,0.903 -0.627,1.254 a 2.163,2.163 0 0 1 -1.749,0.507 3.233,3.233 0 0 1 -0.539,-0.141 c -0.24,-0.136 -0.847,-0.51 -1.154,-0.942 -0.26,-0.364 -0.35,-0.937 -0.378,-1.3 0.004,-0.163 0.005,-0.27 0.005,-0.283 A 0.69,0.69 0 0 0 9.159,12.941 0.689,0.689 0 0 0 8.463,13.623 c 0,0.013 -0.017,1.367 -0.066,2.183 -0.07,1.313 0,2.426 0,2.474 0.028,0.382 0.35,0.67 0.727,0.644 a 0.681,0.681 0 0 0 0.635,-0.733 c 0,-0.006 -0.033,-0.545 -0.029,-1.29 a 5.21,5.21 0 0 0 1.938,0.773 3.451,3.451 0 0 0 2.856,-0.82 c 0.713,-0.619 1.122,-1.464 1.11,-2.32 C 15.61,11.979 12.769,11.53 11.406,11.312 M 14.174,0 A 5.51,5.51 0 0 0 11.45,0.723 H 11.338 C 8.701,0.723 6.401,2.115 5.188,4.451 4.46,5.844 4.288,7.201 4.189,8.03 4.177,8.119 4.171,8.2 4.161,8.292 4.041,9.266 4.038,10.196 4.151,11.064 a 5.824,5.824 0 0 0 -0.625,2.529 v 0.016 a 58.919,58.919 0 0 1 -0.057,1.95 29.72,29.72 0 0 0 -0.008,2.94 l 0.013,0.209 C 3.698,21.676 6.159,24 9.083,24 a 5.516,5.516 0 0 0 3.463,-1.21 8.357,8.357 0 0 0 5.195,-2.08 c 1.826,-1.587 2.859,-3.845 2.83,-6.19 -0.013,-1.362 -0.346,-2.638 -0.978,-3.763 0.117,-1.273 0.221,-4.996 0.221,-5.03 0,-3.103 -2.484,-5.67 -5.539,-5.727 z m 0.056,2.675 c 1.642,0.03 2.978,1.412 2.978,3.081 0,0.038 -0.145,4.497 -0.215,4.883 a 3.152,3.152 0 0 1 -0.203,0.69 c 0.756,0.89 1.165,2 1.175,3.256 0.021,1.555 -0.681,3.076 -1.926,4.16 a 5.763,5.763 0 0 1 -3.8,1.444 5.986,5.986 0 0 1 -0.718,-0.048 3.386,3.386 0 0 1 -0.172,0.215 2.97,2.97 0 0 1 -2.264,1.038 c -1.573,0 -2.897,-1.255 -3.013,-2.856 L 6.064,18.416 a 27.366,27.366 0 0 1 0.005,-2.662 c 0.039,-0.679 0.06,-1.831 0.062,-2.08 A 3.124,3.124 0 0 1 6.914,11.649 C 6.677,10.814 6.602,9.813 6.747,8.629 L 6.771,8.417 C 6.854,7.722 6.979,6.697 7.491,5.717 8.256,4.244 9.659,3.399 11.339,3.399 a 4.568,4.568 0 0 1 0.824,0.07 c 0.546,-0.5 1.27,-0.81 2.067,-0.794 z"
       id="path3912"
       style="display:inline;fill:#ffffff;fill-opacity:1" />
  </g>
  <metadata
     id="metadata5993">
    <rdf:RDF>
      <cc:Work
         rdf:about="">
        <dc:title>Scratch</dc:title>
      </cc:Work>
    </rdf:RDF>
  </metadata>
</svg>
