<?xml version="1.0" encoding="UTF-8" standalone="no"?>
<svg
   width="516.92914"
   height="608.78516"
   viewBox="0 0 335.17603 394.59475"
   version="1.1"
   id="svg468"
   sodipodi:docname="virtualbox-logo-vector.svg"
   inkscape:version="1.2.2 (b0a8486541, 2022-12-01)"
   xmlns:inkscape="http://www.inkscape.org/namespaces/inkscape"
   xmlns:sodipodi="http://sodipodi.sourceforge.net/DTD/sodipodi-0.dtd"
   xmlns="http://www.w3.org/2000/svg"
   xmlns:svg="http://www.w3.org/2000/svg">
  <defs
     id="defs472" />
  <sodipodi:namedview
     id="namedview470"
     pagecolor="#505050"
     bordercolor="#eeeeee"
     borderopacity="1"
     inkscape:showpageshadow="0"
     inkscape:pageopacity="0"
     inkscape:pagecheckerboard="0"
     inkscape:deskcolor="#505050"
     showgrid="false"
     inkscape:zoom="0.4668"
     inkscape:cx="937.23222"
     inkscape:cy="304.1988"
     inkscape:window-width="1920"
     inkscape:window-height="1027"
     inkscape:window-x="-8"
     inkscape:window-y="-8"
     inkscape:window-maximized="1"
     inkscape:current-layer="svg468" />
  <ellipse
     fill="#323a53"
     cx="170.67061"
     cy="307.608"
     rx="98.732002"
     ry="87.056999"
     id="ellipse200" />
  <path
     fill="#eff1f4"
     d="m 170.67062,394.665 c -54.527,0 -98.729002,-38.975 -98.729002,-87.055 0,-48.082 44.203002,-87.061 98.729002,-87.061 z"
     id="path202" />
  <path
     fill="#d2e2ed"
     d="m 286.24562,51.075004 c 14.335,6.239 28.698,12.415 42.984,18.761 3.363,1.493 5.854,4 5.813,8.119 -0.711,1.342 -1.496,2.594 -3.274,2.582 -1.839,-0.321 -3.355,0.421 -4.783,1.461 -1.133,0.647 -2.207,1.55 -3.655,0.896 -1.813,-3.353 -1.778,-3.292 -5.215,-1.372 -2.54,1.416 -4.798,3.473 -7.901,3.718 -5.522,-1.376 -11.063,-2.698 -16.458,-4.555 -3.224,-1.11 -3.699,-1.944 -1.658,-4.52 1.668,-2.104 0.759,-2.937 -1.039,-3.823 -2.041,-1.007 -4.033,-2.126 -6.208,-2.84 -23.82,-10.904 -47.621,-21.851 -71.495,-32.632 -1.044,-0.471 -2.02,-1.257 -3.099,-1.438 -1.729,-0.293 -3.151,-3.87 -5.255,-0.596 -4.861,-1.059 -9.117,-3.613 -13.549,-5.678 -7.464,-3.471 -15.137,-6.501 -22.317,-10.559 -1.188,-1.354 -2.591,-1.264 -4.076,-0.582 -4.264,2.13 -8.737,3.796 -12.918,6.088 -4.099,1.174 -7.474,4.198 -11.855,4.656 -0.793,-0.102 -1.593,-0.149 -2.392,-0.218 -4.217,-0.345 -5.462,-2.914 -3.297,-6.594 3.162,-5.374 8.216,-8.539 13.444,-11.422 5.013,-2.7650001 10.141,-5.3130001 15.426,-7.5430001 2.955,-1.249 5.778,-1.151 8.651,0.076 21.993,9.4250001 43.825,19.2300001 65.839,28.6140001 15.467,6.59 30.811,13.507 46.635,19.235 0.532,0.198 1.07,0.421 1.652,0.166 z"
     id="path204" />
  <path
     fill="#ebf0f5"
     d="m 2.0146181,103.352 c -1.697,-3.17 -0.494,-6.679996 -1.15,-10.038996 -0.905,-4.654 -0.817,-9.526 -0.86400000307,-14.31 -0.0409999969,-4.244 1.95800000307,-7.509 5.91600000307,-9.244 13.9009999,-6.101 27.8449999,-12.104 41.7529999,-18.188 13.691,-5.99 27.359,-12.038 41.037,-18.057 a 16586.814,16586.814 0 0 1 34.492002,-15.147 c 0.604,-0.264 1.332,-0.246 2.002,-0.359 -0.558,3.28 -3.589,3.909 -5.852,5.108 -7.378,3.918 -14.862,7.639 -22.333002,11.378 -1.813,0.908 -4.62,1.86 -4.542,3.699 0.08,2.077 3.215,1.926 4.972,2.83 2.14,1.102 4.402002,0.861 6.722002,0.516 1.64,-0.246 3.67,-1.159 4.653,1.284 -0.665,1.022 -1.776,1.41 -2.786,1.913 -16.959002,8.448 -34.387002,15.883 -51.576002,23.835 -3.936,1.818 -7.793,3.808 -11.927,5.176 -2.918,2.852 -6.277,2.581 -10.059,2.077 -7.002,-0.933 -14.101,-0.439 -21.157,-0.248 -2.5989999,0.072 -4.5469999,1.347 -5.5219999,3.87 -2.658,2.397 -2.227,5.488 -1.875,8.535 0.517,4.481 0.732,8.981 0.776,13.493996 -0.48,1.212 -1.333,1.9 -2.68,1.877 z"
     id="path206" />
  <path
     fill="#e1eaf1"
     d="m 108.68662,42.732004 c -1.183,-1.086 -2.747,-0.914 -3.901,-0.479 -5.068002,1.902 -9.036002,-1.228 -13.372002,-2.647 -1.465,-0.479 -1.274,-1.447 -0.258,-2.281 1.143,-0.937 2.264,-1.973 3.563,-2.639 7.918002,-4.055 15.905002,-7.984 23.830002,-12.028 2.417,-1.234 4.838,-2.523 6.654,-4.644 4.007,-2.703 8.621,-4.125 12.972,-6.093 8.225,-3.7110001 16.638,-7.0080001 24.798,-10.8470001 3.461,-1.62900003 6.379,-1.43500003 9.72,0.052 a 9680.395,9680.395 0 0 0 58.633,25.8770001 c 17.16,7.514 34.364,14.919 51.542,22.384 1.154,0.504 2.256,1.122 3.381,1.69 -1.201,1.373 -2.374,0.147 -3.45,-0.16 -9.274,-2.639 -17.784,-7.175 -26.686,-10.742 -25.039,-10.02 -49.474,-21.43 -74.263,-32.0190001 -3.259,-1.391 -6.542,-2.719 -9.754,-4.208 -3.273,-1.521 -6.354,-1.224 -9.543,0.318 -7.822,3.784 -15.783,7.3180001 -22.708,12.6870001 -2.298,1.778 -3.773,4.294 -5.262,6.705 -1.088,1.762 0.359,3.803 2.501,4 1.102,0.099 2.317,-0.373 3.26,0.597 -0.325,1.44 -1.586,1.863 -2.703,2.36 -8.409,3.745 -16.74,7.651 -25.087,11.532 -1.201,0.553 -2.439,1.332 -3.867,0.585 z"
     id="path208" />
  <path
     fill="#dbe0e8"
     d="m 14.402618,257.507 c -1.125,-3.36 -0.879,-6.907 -1.397,-10.355 -0.89,-11.124 -1.799,-22.249 -2.657,-33.377 -0.5279999,-6.818 -0.9139999,-13.649 -1.4659999,-20.466 -0.836,-10.326 -1.926,-20.636 -2.586,-30.972 -0.415,-6.486 -0.992,-12.956 -1.495,-19.431 -0.836,-10.783 -1.479,-21.583 -2.673,-32.338 -0.264,-2.383 -0.086,-4.813 -0.11,-7.218 0.67,-0.467 1.337,-0.938 2.007,-1.403 1.369,0.791 1.635,2.151 1.718,3.538 0.741,12.433 1.894,24.833 2.876,37.242 1.032,12.981 2.1299999,25.957 3.1349999,38.938 0.772,10.019 1.787,20.021 2.276,30.062 1.028,11.851 1.866,23.721 2.844,35.582 0.246,2.984 2.543,4.482 4.075,6.551 0.602,1.506 1.598,2.899 1.363,4.653 -1.023,1.262 -1.724,0.058 -2.534,-0.323 -0.943,-0.744 -1.967,-1.383 -2.833,-2.223 -0.31,-0.264 -0.609,-0.537 -0.97,-0.712 -1.282,0.237 -0.598,1.829 -1.573,2.252 z"
     id="path210" />
  <path
     fill="#8d9ebd"
     d="m 333.15762,107.455 c -0.468,6.429 -0.934,12.86 -1.403,19.293 1.744,2.949 -0.223,5.987 0.226,8.967 -0.595,3.614 -0.582,7.282 -0.946,10.916 a 145.085,145.085 0 0 0 -1.183,15.529 c -0.188,1.42 -0.504,2.796 -1.373,3.983 -1.014,0.791 -2.044,1.448 -3.281,0.388 -0.634,-4.234 0.239,-8.4 0.564,-12.597 0.41,-10.569 1.602,-21.081 2.402,-31.621 0.215,-2.84 0.452,-5.665 0.434,-8.512 0.766,-8.607 1.615,-17.215996 2.107,-25.847996 0.039,-0.686 0.182,-1.355 0.489,-1.968 2.08,-1.585 1.969,1.371 3.195,1.557 0.265,6.681 -0.943,13.267996 -1.231,19.912996 z"
     id="path212" />
  <path
     fill="#b5c2d4"
     d="m 334.38862,87.544004 c -2.734,1.304 -1.738,-1.052 -2.066,-2.108 -1.224,-1.715 -1.243,-3.568 -0.636,-5.494 1.552,0.066 2.118,-1.533 3.356,-1.984 -0.193,3.195 0.751,6.472 -0.654,9.586 z"
     id="path214" />
  <path
     fill="#27334e"
     d="m 151.90462,23.411004 13.137,-6.146 c 1.53,-0.411 2.925,0.028 4.285,0.688 l 35.74,16.427 c 5.22,0.357 9.376,3.507 13.911,5.546 21.283,9.589 42.438,19.476 63.74,29.032 1.318,0.714 2.647,1.416 4.019,2.033 0.727,0.331 1.451,0.661 2.17,1.002 1.395,0.657 3.481,0.825 3.521,2.737 0.031,1.631 -1.835,2.139 -3.081,2.869 -7.06,4.151 -14.201,8.169 -21.237,12.358 -1.461,0.639 -2.816,1.467 -4.146,2.337 -0.41,0.263 -0.835,0.5 -1.265,0.729 -18.957,10.966996 -37.951,21.870996 -56.853,32.931996 -11.156,6.298 -22.231,12.747 -33.287,19.221 -3.438,2.016 -6.476,2.047 -9.956,0.065 -12.326,-7.021 -24.409,-14.463 -36.914,-21.163 -8.117,-4.627 -16.481,-8.825 -24.263,-14.032 -8.248002,-5.182 -16.805002,-9.832 -25.213002,-14.734996 -10.489,-6.118 -21.024,-12.158 -31.544,-18.224 -1.068,-0.616 -2.338,-1.121 -2.225,-2.729 0.75,-1.133 2.008,-1.446 3.146,-1.958 12.705,-5.712 25.332,-11.593 38.009,-17.367 17.776002,-8.1 35.532002,-16.238 53.301002,-24.352 5.047,-2.306 10.338,-4.163 15.005,-7.27 z"
     id="path216" />
  <path
     fill="#fdfdfe"
     d="m 101.89062,109.333 24.001,14.07 c 2.807,3.235 4.647,7.081 6.693,10.78 2.977,5.386 6.99,9.467 12.708,12.033 6.161,2.768 12.206,5.767 18.467,8.348 4.042,1.664 8.027,1.829 12.107,1.418 3.749,-0.38 7.549,-1.005 11.084,-2.325 10.384,-3.87 20.873,-7.378 30.562,-13.056 14.031,-8.221 28.131,-16.332 42.024,-24.788 1.172,-0.714 2.43,-1.307 3.202,-2.524 3.68,-3.474 8.351,-5.422 12.561,-8.081 2.104,-1.332 4.302,-2.531 6.448,-3.81 8.583,-5.159996 17.197,-10.270996 25.772,-15.446996 0.875,-0.528 1.756,-1.074 2.816,-1.162 2.959,-1.593 5.897,-3.238 8.886,-4.777 3.315,-1.711 3.872,-1.336 4.167,2.627 -0.902,2.487 -3.249,3.411 -5.226,4.651 -12.084,7.582 -24.47,14.673996 -36.546,22.272996 -35.592,21.045 -70.806,42.717 -106.212,64.071 -2.795,1.688 -4.004,3.685 -3.937,6.93 0.154,7.441 0.028,14.891 0.071,22.34 a 8.878,8.878 0 0 1 -0.466,2.964 c -1.036,3.876 -1.773,7.778 -1.11,11.803 0.169,1.026 0.205,2.053 0.25,3.081 1.005,21.985 0.662,43.988 0.692,65.986 0.023,13.188 -0.002,26.373 0.014,39.556 -0.023,6.918 -0.016,13.837 0,20.752 0.003,1.362 0.134,2.731 -0.657,3.959 -2.079,1.549 -3.897,1.058 -5.557,-0.708 -0.629,-1.146 -0.688,-2.407 -0.688,-3.664 0.004,-19.553 -0.125,-39.104 0.049,-58.652 1.15,-12.831 2.02,-25.658 0.908,-38.561 -0.491,-5.688 -0.132,-11.428 -0.124,-17.141 0.005,-3.556 -0.639,-7.028 -1.191,-10.512 -0.654,-8.434 -0.174,-16.88 -0.295,-25.32 -0.07,-5.02 -0.01,-10.043 -0.015,-15.068 -0.002,-1.955 -0.078,-3.89 -1.188,-5.597 -1.019,-2.471 -3.171,-3.489 -5.506,-4.271 -6.632,-2.75 -12.188,-7.386 -18.576,-10.567 -15.595,-9.708 -31.383,-19.092 -47.068002,-28.652 -14.412,-8.734 -28.77,-17.563 -43.269,-26.155 -7.898,-5.04 -15.984,-9.770996 -23.976,-14.655996 -2.013,-1.252 -4.068,-2.429 -6.062,-3.707 -1.019,-0.654 -2.272,-1.142 -2.339,-2.654 1.411,-3.197 2.32,-3.579 5.818,-2.035 7.231,3.19 14.016,7.234 20.837,11.195 2.997,1.74 6.047,3.24 9.586,3.429 0.455,0.026 0.959,0.047 1.336,0.272 5.698,3.461996 12.271,4.780996 18.27,7.503996 1.457,0.662 2.81,1.664 4.454,1.643 7.102,-0.066 14.038,2.077 21.169,1.476 1.755,-0.142 3.369002,0.524 5.056002,0.729 z"
     id="path218" />
  <path
     fill="#516494"
     d="m 281.42262,108.85 c 10.291,-6.319 20.549,-12.695996 30.893,-18.931996 a 169.347,169.347 0 0 0 11.073,-7.28 c 1.422,0.313 2.186,-1.184 3.463,-1.263 0.991,1.729 0.104,3.218 -0.957,4.323 -3.778,3.928 -5.021,9.099 -7.046,13.876 -0.93,2.192996 -1.646,4.495996 -2.292,6.789996 -1.156,4.106 -4.324,6.53 -7.274,9.169 -0.646,0.987 -1.614,1.604 -2.587,2.208 -27.796,17.324 -55.586,34.657 -83.376,51.987 -0.875,0.545 -1.707,1.166 -2.731,1.415 -1.936,-0.335 -3.31,2.14 -5.391,1.084 -0.637,-1.393 0.249,-2.27 1.211,-2.854 5.561,-3.373 9.341,-8.339 12.584,-13.798 5.462,-9.195 14.234,-14.75 22.814,-20.399 6.894,-4.539 13.522,-9.475 19.935,-14.583 3.84,-3.059 7.992,-6.579 9.681,-11.743 z"
     id="path220" />
  <path
     fill="#dae7f0"
     d="m 310.33762,84.788004 c -3.781,3.334 -8.4,5.362 -12.631,7.983 -5.13,3.18 -10.39,6.146 -15.595,9.203996 -9.412,3.116 -19.139,2.315 -28.8,2.265 -1.29,-0.007 -2.661,-0.373 -2.979,-1.825 -0.334,-1.522 0.709,-2.602996 1.855,-3.410996 3.432,-2.434 7.364,-4.1 10.604,-6.836 l 0.755,-0.453 c 1.767,-0.055 2.898,-1.215 4.054,-2.333 8.179,-4.84 16.357,-9.677 24.601,-14.549 -1.67,-1.845 -4.274,-1.71 -5.919,-3.294 -0.138,-0.981 -1.25,-1.271 -1.531,-2.151 0.039,-0.147 0.086,-0.296 0.13,-0.442 3.211,0.243 5.69,2.25 8.421,3.6 2.017,1.003 1.004,2.319 -0.089,3.564 -2.469,2.825 -2.319,2.622 1.236,3.911 5.218,1.885 10.805,2.49 15.888,4.767 z"
     id="path222" />
  <path
     fill="#5a6e9e"
     d="m 308.98962,115.08 c -0.797,-1.226 0.439,-1.292 1.001,-1.56 3.003,-1.445 4.547,-4.077 5.579,-7.005 1.769,-5.031 3.389,-10.095996 5.614,-14.971996 1.006,-2.202 1.87,-4.323 3.753,-5.91 1.309,-1.1 1.503,-2.735 1.916,-4.258 1.413,-1.151 2.718,-2.657 4.833,-1.434 1.102,1.729 0.566,3.648 0.636,5.495 -1.516,3.306 -0.708,6.901 -1.127,10.344 -0.729,5.922996 -0.941,11.934996 -1.602,17.893996 -3.845,9.996 -6.96,20.286 -11.855,29.871 -0.936,1.831 -1.891,3.656 -3.26,5.209 -0.669,0.759 -1.409,1.692 -2.563,1.336 -1.023,-0.318 -0.986,-1.434 -1.11,-2.316 -0.111,-0.796 -0.414,-1.542 -0.541,-2.334 0.334,-7.619 0.95,-15.225 1.544,-22.825 0.188,-2.398 0.48,-4.753 0.056,-7.122 -0.837,-0.96 -1.986,0.178 -2.874,-0.413 z"
     id="path224" />
  <path
     fill="#eceeef"
     d="m 282.61662,69.744004 c -11.962,-5.387 -23.945,-10.729 -35.879,-16.173 -13.913,-6.351 -27.782,-12.791 -41.671,-19.194 0.631,-1.707 1.433,-1.885 3.213,-1.063 24.234,11.203 48.525,22.282 72.787,33.419 1.334,0.61 2.796,1.04 3.818,2.208 l -0.012,0.021 c -0.607,0.672 -1.313,1.07 -2.256,0.782 z"
     id="path226" />
  <path
     fill="#2d2e31"
     d="m 151.90462,23.411004 c -1.236,2.533 -3.975,2.813 -6.107,3.82 -9.599,4.535 -19.315,8.813 -28.973,13.218 a 55460.58,55460.58 0 0 0 -63.237002,28.89 c -3.634,1.661 -7.232,3.401 -10.848,5.105 -0.472,-0.414 -0.466,-0.869 -0.109,-1.349 19,-8.696 38.003,-17.389 56.999,-26.094 3.035002,-1.391 6.037002,-2.844 9.057002,-4.271 10.553,-4.826 21.104,-9.654 31.657,-14.479 3.854,-1.612 7.708,-3.226 11.561,-4.84 z"
     id="path228" />
  <path
     fill="#868887"
     d="m 169.32562,17.951004 c -1.521,0.342 -2.867,-0.399 -4.286,-0.688 1.596,-0.81 3.174,-1.505 4.286,0.688 z"
     id="path230" />
  <path
     fill="#c0bfcc"
     d="m 15.749618,85.506004 c 2.769,1.807 5.538,3.614 8.308,5.418 0.995,0.994 1.729,2.146 1.947,3.546 0.886,5.662996 2.87,11.043996 4.287,16.567996 0.629,2.448 0.375,4.051 -2.417,4.467 -1.898,0.687 -3.296,-1.845 -5.246,-0.807 -0.786,4.002 0.213,7.966 0.513,11.877 0.329,4.296 0.58,8.633 0.929,12.93 0.821,10.091 1.362,20.207 2.253,30.298 0.071,0.794 -0.01,1.599 -0.179,2.388 -0.784,2.803 -0.574,5.672 -0.313,8.491 1.086,11.645 1.609,23.332 2.587,34.982 0.124,1.465 0.123,2.964 -0.181,4.425 -1.334,2.743 -3.305,2.414 -5.323,0.95 -3.617,-2.618 -7.027,-5.479 -9.871,-8.954 -0.896,-10.646 -1.82,-21.29 -2.683,-31.938 -0.5329999,-6.575 -0.9359999,-13.16 -1.4669999,-19.739 -0.862,-10.648 -1.823,-21.29 -2.667,-31.941 a 927.185,927.185 0 0 1 -1.42,-21.121 c -0.104,-1.841 -0.18,-3.647 -0.784,-5.394 -0.444,-6.276996 -0.894,-12.551996 -1.331,-18.826996 -0.14,-2.046 0.462,-3.585 2.777,-3.891 4.01,1.132 7.3839999,3.312 10.2809999,6.272 z"
     id="path232" />
  <path
     fill="#fdfdfd"
     d="m 15.749618,85.506004 c -3.428,-2.09 -6.8539999,-4.18 -10.2829999,-6.269 -0.368,-4.317 3.198,-4.631 5.7209999,-4.646 8.629,-0.052 17.322,-0.999 25.874,0.918 1.35,0.303 2.09,0.026 2.854,-1.078 0.589,-0.855 0.979,-2.623 2.715,-1.335 0.037,0.45 0.074,0.9 0.109,1.349 0.574,1.265 1.879,1.567 2.931,2.18 17.785,10.297 35.583,20.575 53.367,30.869996 0.980002,0.563 1.904002,1.224 2.854002,1.838 -4.689002,0.459 -9.385002,0.285 -14.071002,-0.002 -1.802,-0.107 -3.646,-1.001 -5.37,-0.771 -7.713,1.018 -13.719,-4.427 -20.911,-5.263 -1.161,-0.137 -2.054,-0.926 -3.036,-1.515 -2.823,-1.697 -5.621,-3.105996 -9.146,-3.422996 -4.751,-0.422 -8.513,-3.725 -12.561,-6.039 a 288.535,288.535 0 0 0 -16.063,-8.513 c -2.292,-1.129 -4.133,-1.254 -4.984,1.699 z"
     id="path234" />
  <path
     fill="#cfcace"
     d="m 13.039618,212.084 c 3.606,1.556 5.618,5.067 8.806,7.16 1.756,1.153 3.204,2.904 5.633,1.792 1.989,0.339 1.681,2.043 1.519,3.186 -0.965,6.695 1.683,11.298 7.486,14.612 2.533,1.445 4.751,3.539 6.992,5.479 10.57,8.187 21.488,15.906 32.133,23.997 1.259,0.957 2.729,1.727 3.371,3.326 0.263,4.508 -1.72,6.452 -6.058,5.845 -2.151,-0.306 -4.226,-1.024 -6.353,-1.458 -4.372,-0.897 -8.732,-1.736 -13.232,-1.833 -4.04,-0.088 -7.843,-1.131 -11.318,-3.463 -7.408,-4.973 -14.933,-9.768 -21.416,-15.964 -5.545,-3.119 -4.871,-8.817 -5.406,-13.803 -0.791,-7.339 -1.066,-14.733 -1.467,-22.109 -0.122,-2.274 -1.116,-4.446 -0.69,-6.767 z"
     id="path236" />
  <path
     fill="#dbd5d6"
     d="m 20.604618,254.762 c 4.733,2.314 8.385,6.166 12.756,9.001 3.911,2.534 7.804,5.106 11.685,7.686 2.302,1.531 5.067,1.725 7.559,1.76 6.687,0.099 13.069,1.643 19.481,3.182 4.64,1.113 6.242,-0.161 6.302,-5.078 4.065,1.162 7.333,3.741 10.597,6.235 3.385,2.591 6.712,5.207 10.53,7.175 2.209002,1.14 3.642002,3.303 5.474002,4.944 2.556,2.294 5.316,4.195 8.224,6.024 3.125,1.963 7.036,3.337 8.224,7.522 0.518,4.121 -1.238,5.86 -5.519,5.289 -4.579,-0.611 -8.946,-2.216 -13.002,-4.233 -10.381002,-5.164 -21.203002,-8.902 -32.479002,-11.418 -2.823,-1.035 -5.12,-2.925 -7.433,-4.75 -4.382,-3.452 -9.257,-6.153 -13.819,-9.33 -0.613,-0.424 -1.266,-0.444 -1.956,-0.353 -3.87,-1.284 -6.287,-4.691 -9.712,-6.631 -2.418,-1.987 -5.004,-3.746 -7.562,-5.544 -2.106,-2.031 -4.671,-3.5 -6.837,-5.461 -0.531,-0.573 -1.104,-1.125 -1.151,-1.981 -0.457,-1.344 -0.91,-2.694 -1.362,-4.039 z"
     id="path238" />
  <path
     fill="#8ea2c6"
     d="m 325.48562,166.67 c 0.902,-0.232 1.799,-0.463 2.698,-0.692 1.587,1.76 1.106,3.874 0.872,5.867 -0.253,2.156 -0.466,4.307 -0.497,6.477 -0.721,6.381 -1.139,12.79 -1.629,19.193 -1.008,6.663 -0.848,13.43 -1.784,20.099 0.132,4.279 -0.862,8.484 -0.789,12.759 -0.264,1.744 -0.666,3.477 -0.661,5.259 -0.634,3.64 -0.569,7.339 -0.907,11.001 -0.551,3.396 -0.875,6.905 -4.253,8.964 -2.275,1.568 -4.399,3.339 -6.505,5.133 -8.683,6.044 -16.547,13.15 -25.21,19.22 -0.371,0.313 -0.737,0.623 -1.101,0.941 -17.932,13.694 -35.876,27.368 -53.759,41.125 -13.71,10.542 -27.646,20.784 -41.351,31.326 -1.182,0.906 -2.367,1.811 -3.729,2.441 -1.822,0.548 -3.333,1.505 -4.247,3.246 -1.729,1.646 -2.915,4.1 -5.859,3.916 -0.884,-1.034 -0.4,-2.182 -0.274,-3.306 0.484,-1.55 1.87,-2.207 3.047,-3.08 8.945,-6.631 17.706,-13.502 26.47,-20.373 18.186,-13.753 36.137,-27.814 54.342,-41.544 2.193,-1.655 4.322,-3.4 6.49,-5.09 14.117,-10.737 28.145,-21.587 42.276,-32.302 9.207,-6.979 9.155,-6.952 9.896,-18.276 0.91,-13.906 2.071,-27.794 3.291,-41.675 0.309,-3.516 0.583,-7.047 0.772,-10.584 0.057,-5.9 0.7,-11.753 1.392,-17.599 0.106,-0.904 0.249,-1.806 1.009,-2.446 z"
     id="path240" />
  <path
     fill="#768eba"
     d="m 325.48562,166.67 c -0.466,6.877 -0.936,13.759 -1.403,20.636 -2.429,6.284 -5.351,12.385 -7.294,18.836 -2.383,7.903 -5.196,15.667 -7.558,23.575 -0.46,1.542 -0.971,3.672 -3.477,2.025 -0.564,-1.055 -0.556,-2.209 -0.447,-3.334 0.754,-7.669 0.945,-15.378 1.525,-23.058 0.757,-3.522 0.721,-7.046 0.016,-10.569 0.258,-6.124 0.438,-12.26 1.426,-18.321 0.391,-0.826 0.84,-1.433 1.688,-0.395 0.585,0.72 0.188,1.767 0.902,2.592 2.629,-5.165 6.734,-9.215 9.573,-14.156 1.531,-2.667 3.162,-5.254 4.195,-8.174 0.362,-1.021 0.59,-2.312 2.198,-2.052 -0.452,4.131 -0.896,8.264 -1.344,12.395 z"
     id="path242" />
  <path
     fill="#6d83b3"
     d="m 326.82762,154.276 c -1.978,0.981 -1.457,3.192 -2.274,4.764 -2.907,5.587 -6.393,10.778 -10.315,15.662 -1.5,1.867 -1.924,4.413 -4.007,6.056 -1.344,-1.606 0.188,-3.71 -1.136,-5.137 -0.626,-0.411 -0.99,-1.058 -0.927,-1.735 0.821,-8.923 0.898,-17.901 2.188,-26.787 0.065,-0.456 0.421,-0.794 0.809,-1.057 1.03,1.01 0.194,2.452 0.971,3.933 3.973,-3.718 5.821,-8.525 7.75,-13.175 2.789,-6.728 5.173,-13.621 7.757,-20.432 0.399,-1.054 0.766,-2.186 1.95,-2.694 0.025,8.686 -1.157,17.276 -1.961,25.897 -0.458,4.882 -0.549,9.801 -0.805,14.705 z"
     id="path244" />
  <path
     fill="#fefefd"
     d="m 266.67262,74.876004 c -0.416,1.065 -1.391,1.268 -2.156,1.694 -31.924,17.95 -63.867,35.872996 -95.775,53.849996 -1.539,0.866 -2.657,1.112 -4.336,0.149 -31.666,-18.173 -63.382,-36.270996 -95.086002,-54.379996 -0.474,-0.272 -0.902,-0.617 -1.801,-1.232 1.219,-0.576 2.077,-0.989 2.938,-1.388 31.358002,-14.49 62.718002,-28.969 94.064002,-43.484 1.494,-0.689 2.74,-1.15 4.473,-0.351 32.283,14.932 64.604,29.784 96.916,44.66 0.27,0.127 0.507,0.318 0.763,0.482 z"
     id="path246" />
  <path
     fill="#fdfdfd"
     d="m 263.52962,113.67 c -3.094,3.516 -7.485,5.094 -11.313,7.492 -15.388,9.641 -30.852,19.313 -47.396,26.733 -10.767,4.825 -21.954,9.519 -34.363,9.249 -3.906,-0.083 -7.059,-1.864 -10.375,-3.157 -6.265,-2.439 -12.399,-5.314 -18.336,-8.483 -5.898,-3.146 -9.123,-8.859 -11.973,-14.61 -1.249,-2.525 -3.697,-4.434 -3.882,-7.492 2.214,0.349 3.86,1.854 5.708,2.907 10.715,6.104 21.422,12.231 32.026,18.521 2.825,1.676 5.12,1.619 7.911,-0.054 10.554,-6.326 21.208,-12.477 31.838,-18.662 0.666,-0.388 1.459,-0.556 2.191,-0.825 0.322,-0.148 0.845,-0.201 0.884,0.102 0.457,3.558 3.224,3.492 5.835,3.973 13.053,2.417 24.625,-1.639 35.646,-8.049 3.956,-2.297 7.929,-4.563 11.854,-6.906 1.128,-0.671 2.259,-1.739 3.745,-0.739 z"
     id="path248" />
  <path
     fill="#eaf4f8"
     d="m 263.52962,113.67 c -5.193,2.096 -9.739,5.373 -14.567,8.125 -9.834,5.603 -19.968,10.013 -31.648,9.077 -2.489,-0.199 -4.963,-0.612 -7.449,-0.759 -3.114,-0.188 -4.293,-1.94 -4.293,-4.824 13.312,-7.777 26.611,-15.577 39.941,-23.317 5.727,-3.326996 11.522,-6.538996 17.284,-9.806996 -1.147,2.729 -4.158,2.995 -6.138,4.631 -2.046,1.697 -6.061,2.693 -5.438,5.402996 0.573,2.491 4.363,0.944 6.71,1.104 8.104,0.566 16.135,-0.663 24.185,-1.332 -5.515,3.33 -11.022,6.673 -16.55,9.988 -0.782,0.471 -1.668,0.772 -2.037,1.711 z"
     id="path250" />
  <path
     fill="#d2e2ed"
     d="m 282.61662,69.744004 c 0.752,-0.261 1.505,-0.526 2.258,-0.787 -0.285,1.273 3.577,0.272 1.41,2.577 -1.297,-0.441 -2.618,-0.843 -3.668,-1.79 z"
     id="path252" />
  <path
     fill="#eaf4f8"
     d="m 267.60462,89.379004 c -0.838,1.67 -1.801,3.123 -4.054,2.334 z"
     id="path254" />
  <path
     fill="#eee7dd"
     d="m 165.11362,287.804 0.015,62.616 c 0.867,0.899 1.01,2.062 0.893,3.184 -0.307,2.993 1.026,4.729 3.867,5.45 0.427,0.376 0.624,0.864 0.702,1.411 0.029,1.57 -0.714,2.902 -2.242,2.847 -3.616,-0.141 -7.543,0.595 -10.393,-2.651 -5.179,-4.563 -10.991,-8.352 -16.081,-13.024 -1.14,-1.051 -2.702,-1.799 -2.49,-3.741 1.135,-1.753 3.692,-0.954 4.826,-2.711 2.596,-7.223 6.906,-13.646 9.482,-20.896 1.339,-3.771 2.036,-7.305 1.405,-11.347 -1.252,-8.028 -1.462,-16.16 -1.547,-24.29 -0.059,-5.496 -1.103,-10.924 -1.405,-16.412 -0.567,-10.193 -2.71,-20.188 -4.022,-30.285 -0.811,-6.24 -0.61,-12.625 -1.969,-18.766 -2.033,-9.19 -0.916,-18.444 -1.239,-27.668 -0.068,-1.886 -0.243,-3.624 -1.726,-5.021 -0.941,-0.89 -1.397,-2.124 -1.547,-3.383 -0.854,-7.059 -2.347,-14.005 -3.596,-20.994 -0.1,-0.566 -0.062,-1.14 0.233,-1.666 2.991,0.815 5.442,2.691 7.996,4.289 3.447,2.163 6.862,4.35 10.559,6.061 1.795,1.223 3.909,1.944 5.521,3.46 1.744,1.72 2.126,3.796 2.111,6.213 -0.092,13.751 -0.031,27.501 -0.025,41.251 0.577,2.689 0.634,5.457 0.609,8.155 -0.116,12.82 0.683,25.639 0.364,38.455 -0.156,6.493 -0.408,12.974 -0.301,19.463 z"
     id="path256" />
  <path
     fill="#495c8f"
     d="m 281.42262,108.85 c 1.197,1.983 -0.23,3.165 -1.348,4.458 -8.146,9.435 -18.536,16.056 -28.688,23.005 -9.314,6.373 -18.566,12.827 -24.001,23.292 -2.298,4.425 -6.139,7.569 -10.28,10.27 -0.9,0.588 -1.768,1.088 -1.739,2.319 -0.017,1.868 -1.655,2.318 -2.827,3.063 -5.311,3.394 -10.582,6.859 -16.04,9.992 -3.442,1.977 -6.26,4.115 -6.383,8.459 -4.816,4.063 -10.663,6.274 -16.212,9.017 -1.03,0.513 -2.185,0.663 -3.164,-0.278 -0.042,-7.792 -0.086,-15.583 -0.122,-23.372 -0.013,-2.561 0.965,-4.188 3.396,-5.624 12.288,-7.258 24.387,-14.844 36.585,-22.255 12.333,-7.492 24.707,-14.922 37.072,-22.358 10.721,-6.448 21.459,-12.868 32.2,-19.291 0.483,-0.292 1.032,-0.468 1.551,-0.697 z"
     id="path258" />
  <path
     fill="#e6ded8"
     d="m 138.28262,160.457 c 2.248,6.851 3.053,13.984 4.097,21.066 0.27,1.831 0.403,3.556 2.021,4.867 1.211,0.981 1.49,2.488 1.472,4.058 -0.044,3.553 0.209,7.126 -0.056,10.662 -0.701,9.319 2.049,18.294 2.53,27.456 0.425,8.123 1.75,16.079 3.085,24.032 1.679,10.005 1.641,20.162 3.211,30.176 0.404,2.579 0.063,5.372 0.104,8.074 0.108,7.312 0.536,14.573 2.005,21.755 0.241,1.177 -0.088,2.238 -0.455,3.348 -2.266,6.815 -5.046,13.434 -8.683,19.599 -1.271,2.154 -0.857,5.025 -3.14,6.608 -1.461,-1.665 -1.313,-3.741 -0.81,-5.53 1.403,-4.947 1.305,-9.909 0.813,-14.925 -0.06,-0.569 0.025,-1.139 0.187,-1.688 0.521,-1.032 0.893,-2.085 0.896,-3.274 0.007,-8.938 0.042,-17.877 -0.025,-26.816 -0.004,-0.696 -0.186,-1.356 -0.393,-2.017 -0.703,-3.894 0.313,-7.897 -0.714,-11.774 -0.394,-2.037 -0.295,-4.104 -0.295,-6.164 -0.01,-24.513 -0.108,-49.027 0.077,-73.538 0.037,-4.893 -1.389,-8.106 -5.738,-10.642 -6.22,-3.619 -12.491,-7.222 -18.197,-11.663 -3.029,-3.253 -5.044,-7.07 -6.115,-11.376 -1.59,-6.366 -5.903,-11.073 -9.875,-15.916 -3.322,-4.048 -6.406002,-8.382 -10.923002,-11.354 -1.182,-0.779 -2.861,-1.809 -1.894,-3.865 14.917002,9.048 29.832002,18.102 44.756002,27.139 0.777,0.469 1.684,0.757 2.059,1.702 z"
     id="path260" />
  <path
     fill="#526596"
     d="m 170.73862,202.447 c 1.153,0.071 2.243,-0.095 3.294,-0.653 5.271,-2.786 10.56,-5.535 15.84,-8.297 1.249,1.179 0.977,2.742 0.979,4.188 0.025,16.219 0.015,32.437 0.021,48.65 0.002,2.978 -0.916,5.858 -0.813,8.839 -0.287,1.582 -0.902,3.067 -1.479,4.554 -1.56,4.015 -3.759,5.123 -8.05,4.149 -0.67,-0.151 -1.348,-0.415 -2.025,-0.292 -4.583,0.825 -6.533,-2.186 -8.216,-5.601 0.042,-14.075 -0.104,-28.137 -0.594,-42.195 -0.119,-3.48 -0.147,-7.093 0.81,-10.557 0.077,-0.927 0.154,-1.857 0.233,-2.785 z"
     id="path262" />
  <path
     fill="#cbc6d0"
     d="m 27.425618,115.197 c 2.346,-0.794 2.509,-2.105 1.803,-4.464 -1.953,-6.535 -3.477,-13.195996 -5.17,-19.809996 8.21,4.533 16.167,9.488996 24.055,14.556996 8.167,12.48 20.166,21.081 31.192,30.644 4.197,3.646 8.099,7.42 10.336,12.623 0.873,2.025 2.211,3.717 3.758,5.285 0.828,0.84 2.077,1.599 1.507,3.156 -1.527,0.72 -2.635,-0.271 -3.765,-0.98 -20.038,-12.557 -40.099,-25.078 -60.154,-37.608 -1.376,-0.863 -3.211,-1.403 -3.562,-3.403 z"
     id="path264" />
  <path
     fill="#d7d2d1"
     d="m 94.833618,157.246 c -5.524,-5.223 -7.321,-13.146 -13.276,-18.099 -7.366,-6.124 -14.887,-12.117 -21.755,-18.771 -4.503,-4.358 -9.824,-8.357 -11.69,-14.9 11.829,7.104 23.655,14.203 35.475,21.313 2.639,1.588 5.256,3.213 7.88,4.821 0.054,1.44 1.086,2.336 2.08,2.988 7.397002,4.866 11.563002,12.683 17.327002,19.028 1.824,2.008 2.709,4.99 3.648,7.656 1.467,4.177 2.746,8.402 5.776,11.797 -1.235,0.566 -2.217,-0.123 -3.16,-0.722 -6.809,-4.324 -13.704,-8.504 -20.502002,-12.845 -0.854,-0.544 -1.819,-1.023 -1.803,-2.266 z"
     id="path266" />
  <path
     fill="#7e91b4"
     d="m 169.95262,360.709 a 200.68,200.68 0 0 0 -0.138,-1.356 c -1.395,-2.758 -1.407,-5.505 0.047,-8.244 0.042,-8.214 0.078,-16.434 0.122,-24.651 0.419,-0.292 0.766,-0.221 1.044,0.211 1.356,5.114 0.373,10.317 0.612,15.475 0.013,4.392 0.681,5.18 4.979,4.427 8.371,-1.468 16.451,-3.876 23.896,-8.155 1.78,-1.025 3.462,-2.822 5.914,-1.745 -5.089,4.895 -11.188,8.524 -16.519,13.103 -4.219,3.624 -9.183,6.284 -13.091,10.286 -1.11,1.811 -2.719,2.865 -4.815,3.183 -1.581,-0.123 -1.542,-1.552 -2.051,-2.534 z"
     id="path268" />
  <path
     fill="#fdfdfd"
     d="m 170.50662,326.143 a 4.42,4.42 0 0 0 -0.524,0.313 c -0.015,-29.742 0.217,-59.488 -0.229,-89.224 -0.103,-6.882 -0.212,-13.854 -0.963,-20.786 -0.393,-3.624 -0.411,-7.719 1.715,-11.213 0.021,16.394 0.042,32.79 0.07,49.185 0.003,1.487 0.075,2.976 0.11,4.465 0.943,1.129 1.045,2.498 1.042,3.874 -0.021,13.782 0.152,27.563 -0.078,41.343 0.063,6.568 0.217,13.141 -0.083,19.71 -0.052,0.913 -0.248,1.762 -1.06,2.333 z m -5.393,-38.339 c -1.019,-0.905 -0.662,-2.13 -0.665,-3.229 -0.015,-20.948 -0.004,-41.899 -0.002,-62.846 1.176,2.523 1.298,5.363 1.247,7.941 -0.269,12.585 1.467,25.148 0.677,37.694 -0.433,6.81 0.053,13.69 -1.257,20.44 z m 4.749,63.303 -0.047,8.244 c -4.229,-0.085 -4.678,-0.541 -4.697,-4.807 -0.008,-1.374 0.004,-2.75 0.01,-4.126 1.554,0.384 3.09,0.909 4.734,0.689 z m -7.504,-176.84 c -2.033,-0.847 -4.071,-1.683 -5.517,-3.459 2.183,0.605 4.326,1.27 5.517,3.459 z"
     id="path270" />
  <path
     fill="#27334e"
     d="m 308.98962,115.08 c 0.916,-0.422 1.833,-0.849 2.749,-1.269 0.916,1.082 0.673,2.397 0.637,3.626 -0.258,8.223 -1.107,16.409 -1.642,24.613 -0.556,8.549 -1.188,17.092 -1.771,25.637 -0.522,7.638 -0.946,15.292 -1.684,22.899 -0.414,4.223 -0.179,8.428 -0.444,12.637 -0.571,9.111 -1.919,18.194 -1.591,27.354 1.007,3.415 -2.043,3.904 -3.825,5.311 a 18416.134,18416.134 0 0 1 -80.135,59.354 c -8.906,6.729 -17.951,13.263 -26.896,19.934 -1.197,0.891 -2.302,2.397 -4.175,1.313 a 3.286,3.286 0 0 1 -0.457,-1.08 c -0.317,-10.267 -0.054,-20.527 -0.149,-30.789 0.103,-30.558 1.063,-61.113 0.6,-91.678 -0.047,-3.147 1.164,-4.978 3.848,-6.585 7.833,-4.688 15.496,-9.655 23.264,-14.452 0.884,-0.545 1.72,-1.123 2.778,-1.252 16.878,-10.491 33.768,-20.974 50.644,-31.475 a 19592.433,19592.433 0 0 0 35.177,-21.961 c 1.055,-0.659 2.049,-1.423 3.072,-2.137 z"
     id="path272" />
  <path
     fill="#6b7997"
     d="m 220.09462,170.654 c -8.436,5.292 -16.783,10.719 -25.344,15.799 -3.088,1.833 -4.146,4.049 -4.138,7.513 0.064,28.651 -0.007,57.303 -0.042,85.952 -0.002,1.491 -0.054,2.978 -0.083,4.469 -0.582,3.253 -0.091,6.535 -0.269,9.799 -0.693,3.969 -0.3,7.971 -0.275,11.956 0.012,2.325 -0.548,4.101 -2.314,5.73 -4.28,3.942 -8.505,7.941 -13.312,11.248 -1.092,0.752 -2.188,1.753 -3.734,1.16 0.023,-6.658 0.047,-13.314 0.069,-19.973 2.954,-2 6.417,-2.938 9.55,-4.592 5.253,-2.775 8.216,-6.358 8.213,-12.907 -0.002,-7.525 -0.371,-15.051 -0.217,-22.573 0.056,-2.747 0.279,-5.448 1.004,-8.1 1.34,-20.865 0.438,-41.759 0.67,-62.639 -0.474,-3.575 0.84,-5.796 4.146,-7.707 7.298,-4.219 14.253,-9.03 21.347,-13.597 1.797,0.163 2.623,-2.639 4.729,-1.538 z"
     id="path274" />
  <path
     fill="#25272b"
     d="m 304.78162,231.363 c -0.924,-0.81 -0.696,-1.914 -0.625,-2.9 0.625,-8.979 1.378,-17.947 1.921,-26.928 0.233,-3.873 0.472,-7.74 0.752,-11.609 0.852,-11.599 1.286,-23.23 2.194,-34.823 1.077,-13.755 2.452,-27.485 2.715,-41.292 2.191,0.104 1.391,1.808 1.327,2.824 -0.558,8.665 -1.229,17.322 -1.847,25.985 -0.081,1.135 -0.039,2.282 -0.055,3.422 l -2.067,29.579 c -0.463,6.436 -0.922,12.874 -1.384,19.309 0.635,2.838 -0.179,5.651 -0.146,8.479 -0.735,7.915 -1.135,15.851 -1.698,23.778 -0.106,1.464 0.01,2.971 -1.087,4.176 z"
     id="path276" />
  <path
     fill="#27334e"
     d="m 94.833618,157.246 c 8.365002,5.471 16.785002,10.859 25.463002,15.835 7.054,4.469 14.046,9.045 21.194,13.357 2.595,1.561 3.542,3.441 3.538,6.411 -0.025,26.493 0.066,52.989 0.132,79.482 0.002,1.257 0.07,2.52 0.108,3.778 0.666,12.979 0.644,25.973 0.541,38.963 -0.025,2.911 -1.33,3.486 -3.997,1.618 -5.796,-4.059 -11.375,-8.416 -17.03,-12.658 -26.489002,-20.416 -53.910002,-39.594 -80.598002,-59.756 -4.617,-3.07 -8.778,-6.777 -13.483,-9.713 -1.721,-1.072 -1.519,-2.584 -1.487,-4.165 0.128,-10.305 -1.146,-20.518 -1.866,-30.762 -0.256,-3.645 -0.343,-7.292 -0.715,-10.941 -0.813,-7.945 -0.665,-15.958 -1.208,-23.926 a 8116.747,8116.747 0 0 0 -2.532,-35.886 c -0.287,-3.987 -0.468,-7.979 -0.879,-11.962 -0.135,-1.323 -0.318,-2.768 0.656,-3.962 1.956,-0.047 3.013,1.828 4.757,2.234 z"
     id="path278" />
  <path
     fill="#2e2f31"
     d="m 22.667618,112.962 c 0.141,10.135 1.182,20.206 1.992,30.296 0.643,7.938 0.895,15.908 1.462,23.854 0.817,11.448 1.746,22.885 2.677,34.327 0.259,3.183 0.198,6.377 0.357,9.558 0.338,6.777 2.027,13.544 0.597,20.373 -1.127,-0.88 -1.182,-2.173 -1.219,-3.411 -0.277,-9.78 -1.116,-19.529 -1.782,-29.292 -0.553,-8.146 -1.511,-16.27 -1.67,-24.444 -0.013,-0.68 -0.086,-1.373 0.241,-2.019 -0.768,-11.228 -1.521,-22.456 -2.313,-33.683 -0.538,-7.615 -1.175,-15.229 -1.655,-22.85 -0.06,-0.956 -0.999,-2.736 1.313,-2.709 z"
     id="path280" />
  <path
     fill="#dddcde"
     d="m 25.323618,172.203 c 0.217,15.313 2.698,30.472 3.09,45.794 0.111,4.376 -0.377,9.056 1.34,13.373 -0.323,1.596 0.854,2.075 1.898,2.832 4.349,3.135 8.617,6.387 12.912,9.594 0.477,1.313 0.381,2.072 -1.278,1.33 -4.332,-3.311 -8.636,-6.661 -13.008,-9.916 -2.295,-1.706 -1.7,-4.246 -2.088,-6.494 -0.44,-2.533 0.708,-5.225 -0.712,-7.68 -0.366,-13.521 -1.606,-26.98 -2.645,-40.457 -0.209,-2.754 -0.78,-5.654 0.491,-8.376 z"
     id="path282" />
  <path
     fill="#e8e7e8"
     d="m 43.287618,245.127 c 1.199,0.299 0.852,-0.888 1.277,-1.33 15.114,11.088 30.265,22.14 45.339,33.279 11.583002,8.557 23.080002,17.229 34.615002,25.851 0.27,0.845 0.663,1.791 -0.45,2.262 -0.864,0.366 -1.469,-0.29 -1.829,-0.994 -0.409,-0.793 -1.299,-0.76 -1.854,-1.264 -0.026,-2.747 -2.816,-3.07 -4.269,-4.271 -3.827,-3.153 -8.356,-5.278 -12.097,-8.812 -1.883,-1.776 -3.2,-5.561 -7.029002,-4.965 -0.952,-2.826 -5.024,-1.783 -5.996,-4.947 -0.295,-0.962 -2.229,-1.928 -3.267,-2.543 -3.208,-1.9 -6.285,-3.972 -9.347,-6.082 a 71043.841,71043.841 0 0 0 -35.093,-26.184 z"
     id="path284" />
  <path
     fill="#e2dcdb"
     d="m 120.38762,302.927 c 0.783,0.301 2.08,-1.297 2.393,0.582 0.125,0.762 0.318,1.484 1.102,1.188 0.381,-0.146 0.436,-1.151 0.639,-1.772 6.723,4.853 13.448,9.702 20.75,14.972 V 276.11 c 1.254,3.846 0.241,7.81 0.592,11.702 0.72,8.206 0.15,16.433 0.308,24.646 0.05,2.604 0.324,5.261 -1.007,7.694 0.812,5.426 1.413,10.794 -0.536,16.195 -0.623,1.732 -0.132,3.858 -0.153,5.808 -0.886,2.375 -3.573,0.535 -4.822,2.066 -1.461,1.003 -2.386,-0.222 -3.282,-0.935 -14.674,-11.661 -30.038,-22.405 -44.854002,-33.88 -6.231,-4.824 -12.729,-9.309 -18.959,-14.142 -1.101,-0.855 -2.713,-1.438 -2.408,-3.345 4.188,1.036 8.248,2.462 12.588,3.043 3.562,0.479 6.94,1.897 10.191,3.758 6.96,3.981 14.505002,6.686 22.249002,8.756 1.745,0.465 3.642,0.808 5.151,-0.76 1.187,-1.223 0.712,-2.513 0.058,-3.789 z"
     id="path286" />
  <path
     fill="#dbe0e8"
     d="m 70.148618,291.925 c 4.57,4.656 10.124,8.079 15.277,11.99 16.510002,12.538 33.374002,24.609 49.698002,37.4 1.383,1.087 2.568,2.653 4.529,2.907 4.881,5.283 10.842,9.276 16.449,13.692 0.811,0.64 1.678,1.169 2.146,2.131 -1.495,1.229 -3.025,0.109 -4.542,0.075 -2.388,-0.71 -4.053,-2.508 -5.962,-3.948 -22.183,-16.751 -44.221,-33.694 -66.292002,-50.595 -2.452,-1.874 -4.776,-3.921 -7.367,-5.616 -8.056,-6.691 -16.784,-12.515 -24.878,-19.169 -0.613,-0.854 -1.99,-1.196 -1.788,-2.61 1.152,-2.37 1.914,-0.141 2.705,0.298 7.073,3.89 13.139,9.277 20.025,13.445 z"
     id="path288" />
  <path
     fill="#7689b6"
     d="m 206.42962,336.664 c -1.651,0.155 -3.062,1.015 -4.361,1.873 -7.449,4.934 -15.991,6.826 -24.446,8.968 -0.65,0.167 -1.355,0.141 -2.037,0.159 -4.903,0.131 -5.007,0.03 -4.887,-4.848 0.637,-0.612 1.428,-0.641 2.243,-0.62 4.995,0.104 9.368,-1.82 13.606,-4.185 7.505,-4.184 14.313,-9.404 21.426,-14.171 11.927,-7.988 22.438,-17.69 33.317,-26.937 7.951,-6.757 13.38,-15.565 18.119,-24.782 0.613,-1.185 0.714,-2.388 0.413,-3.656 0.311,-1.516 1.625,-2.16 2.693,-2.963 10.422,-7.846 21.016,-15.461 31.46,-23.273 0.998,-0.746 1.978,-1.591 3.334,-1.641 2.779,1.021 2.017,2.989 1.083,4.743 -2.364,4.439 -4.529,9.026 -7.628,13.009 -5.347,6.875 -10.063,14.181 -14.839,21.438 -2.596,3.943 -5.651,7.439 -8.953,10.76 -14.829,11.326 -29.652,22.656 -44.489,33.97 -5.336,4.076 -10.704,8.106 -16.054,12.156 z"
     id="path290" />
  <path
     fill="#7e95be"
     d="m 266.97162,290.541 c 3.318,-4.579 6.938,-8.976 9.902,-13.777 6.639,-10.764 15.292,-20.205 20.767,-31.725 0.67,-1.414 1.852,-2.892 -0.383,-4.037 -0.072,-1.815 1.543,-2.297 2.602,-3.137 2.262,-1.798 4.742,-3.341 6.363,-5.831 1.664,-0.066 1.76,-1.29 2.158,-2.554 3.114,-9.85 6.229,-19.699 9.59,-29.463 1.249,-3.635 3.246,-7.011 4.019,-10.836 0.233,-1.156 0.892,-1.809 2.089,-1.877 -1.136,12.918 -2.316,25.832 -3.386,38.751 -0.572,6.926 -1.127,13.856 -1.35,20.795 -0.141,4.236 -3.092,6.201 -5.839,8.309 -15.468,11.849 -31.014,23.601 -46.532,35.382 z"
     id="path292" />
  <path
     fill="#92a3c1"
     d="m 176.83462,362.866 -1.348,1.453 c -1.127,1.913 -2.685,3.102 -5.012,3.02 a 1.25,1.25 0 0 1 -0.732,-0.556 c -0.04,-1.751 0.976,-2.912 2.211,-3.947 1.622,-0.929 3.247,-1.854 4.867,-2.782 0.695,0.934 -0.334,1.876 0.014,2.812 z"
     id="path294" />
  <path
     fill="#7e91b4"
     d="m 186.61962,355.324 c -1.226,1.36 -2.437,2.745 -4.313,3.236 0.548,-2.265 2.217,-3.038 4.313,-3.236 z"
     id="path296" />
  <path
     fill="#929db2"
     d="m 306.22262,232.037 c -0.377,3.416 -3.455,4.414 -5.603,6.243 -1.099,0.935 -2.241,1.816 -3.363,2.724 -12.392,9.17 -24.786,18.34 -37.179,27.512 -0.177,1.148 -1.083,1.692 -1.911,2.287 -16.878,12.117 -33.334,24.807 -50.188,36.95 -1.1,0.788 -2.256,2.589 -3.953,0.736 1.063,-2.819 4.027,-3.485 6.068,-5.155 3.589,-2.932 7.349,-5.683 11.167,-8.33 25.825,-19.088 51.601,-38.246 77.477,-57.269 0.799,-0.587 1.843,-1.03 2.015,-2.217 0.9,-1.821 4.391,-1.119 4.032,-4.157 0.745,-9.396 1.49,-18.789 2.23,-28.183 1.445,0.318 0.88,1.208 0.574,2.026 -0.454,8.944 -0.91,17.888 -1.366,26.833 z"
     id="path298" />
  <path
     fill="#7e95be"
     d="m 307.58862,205.207 c -0.045,-0.719 0.122,-1.494 -0.574,-2.026 0.232,-2.754 0.466,-5.502 0.697,-8.251 0.862,3.434 1.043,6.864 -0.123,10.277 z"
     id="path300" />
  <path
     fill="#293550"
     d="m 188.27762,58.545004 5.12,-6.52 c -0.127,-0.189 -0.261,-0.373 -0.393,-0.563 -17.173,7.021 -34.347,14.04 -51.52,21.059 -0.133,-0.189 -0.271,-0.378 -0.404,-0.567 4.402,-4.39 8.809,-8.779 13.205,-13.176 5.049,-5.052 5.046,-5.055 -1.599,-8.102 -2.982,-1.368 -5.961,-2.743 -9.659,-4.449 5.833,-2.734 11.277,-4.788 16.195,-7.728 5.471,-3.266 10.045,-2.899 15.793,-0.123 25.021,12.078 50.316,23.59 75.514,35.312 0.808,0.375 1.616,0.763 2.39,1.133 -0.103,1.203 -1.073,1.292 -1.697,1.637 -16.394,9.13 -32.82,18.197 -49.194,27.366996 -1.812,1.014 -3.26,1.112 -5.059,0.095 -3.585,-2.025 -7.271,-3.87 -10.912,-5.792996 -4.291,-2.269 -4.28,-2.257 -1.345,-5.902 8.479,-10.532 16.947,-21.073 25.96,-32.278 l -13.127,4.912 c -0.317,0.146 -0.752,0.246 -0.938,-0.013 -2.12,-2.976 -5.233,-4.624 -8.33,-6.301 z"
     id="path302" />
  <path
     fill="#2b3753"
     d="m 181.81762,103.26 10.749,5.654 c -5.653,3.162 -10.75,6.053 -15.889,8.874 -3.394,1.865 -6.833,5.019 -10.268,5.037 -3.288,0.021 -6.602,-3.243 -9.886,-5.096 -23.923,-13.501 -47.841,-27.005996 -71.760002,-40.507996 -0.991,-0.563 -1.972,-1.146 -2.939,-1.705 0.047,-1.358 1.239,-1.323 1.951,-1.659 16.670002,-7.819 33.374002,-15.568 50.035002,-23.404 1.803,-0.849 3.344,-1.023 5.166,-0.1 2.443,1.235 4.963,2.377 7.543,3.284 2.61,0.921 3.164,1.645 0.856,3.864 -9.674,9.299 -19.158,18.79 -28.734,28.189 -0.896,0.881 -1.931,1.624 -2.498,2.963 6.917,-2.685 13.832,-5.366 20.748,-8.052 2.441,0.825 2.427,2.973 2.217,4.837 -0.478,4.138 1.554,6.291 5.075,7.859 8.872,3.958 17.632,8.160996 26.473,12.188996 1.94,0.884 3.635,0.867 5.561,-0.029 1.808,-0.837 3.34,-2.484 5.6,-2.197 z"
     id="path304" />
  <path
     fill="#32415f"
     d="m 181.81762,103.26 c -0.564,0.385 -1.13,0.762 -1.692,1.148 -4.023,2.776 -7.738,3.417 -12.517,0.73 -7.115,-4 -14.827,-6.935996 -22.281,-10.331996 -0.934,-0.428 -1.833,-0.93 -2.768,-1.351 -3.061,-1.373 -5.009,-3.306 -4.332,-7.081 0.358,-1.997 0.253,-4.114 -1.334,-5.771 12.17,-5.12 24.342,-10.237 36.514,-15.357 0.157,0.211 0.318,0.417 0.473,0.627 l -19.406,22.604 c 0.086,0.163 0.177,0.327 0.269,0.492 l 35.462,-14.629 c 0.141,0.166 0.28,0.332 0.419,0.494 -2.793,3.502 -5.584,7.007 -8.382,10.507 -2.861,3.574 -5.681,7.182 -8.614,10.695 -1.083,1.301 -1.063,1.942 0.533,2.767 2.619,1.349996 5.111,2.959996 7.656,4.456996 z"
     id="path306" />
  <path
     fill="#32415e"
     d="m 188.27762,58.545004 c 4.646,-0.174 6.74,3.391 9.275,6.314 l -21.616,9.188 c -0.187,-0.242 -0.369,-0.482 -0.556,-0.727 4.297,-4.923 8.596,-9.852 12.897,-14.775 z"
     id="path308" />
  <path
     fill="#cbd7df"
     d="m 171.95062,362.837 c -0.078,1.638 -1.563,2.57 -2.008,4.021 -0.28,1.053 -1.11,1.346 -2.043,1.481 -3.948,0.577 -12.788,-4.938 -14.42,-8.992 l 4.766,0.703 c 2.676,3.09 6.573,1.786 9.863,2.658 1.133,0.3 1.738,-0.849 1.842,-1.997 0.795,0.587 0.919,1.806 2,2.126 z"
     id="path310" />
  <path
     fill="#eee7dd"
     d="m 145.16162,320.153 c -0.613,-0.271 -2.447,-0.41 -0.967,-1.257 1.938,-1.112 1.646,-2.532 1.653,-4.041 0.028,-9.015 0.015,-18.025 0.015,-27.04 0.955,0.78 0.661,1.873 0.662,2.86 0.022,8.646 0.015,17.295 0.017,25.943 0.001,1.356 0.205,2.796 -1.38,3.535 z"
     id="path312" />
  <path
     fill="#5e7195"
     d="m 189.20062,256.134 c 0.319,7.297 -0.049,14.591 0.448,21.913 0.308,4.542 -0.271,9.313 -0.501,13.979 -0.122,2.396 -1.954,3.875 -3.611,5.224 -4.362,3.56 -9.229,6.181 -14.887,7.058 0.01,-15.144 0.022,-30.285 0.035,-45.427 0.113,0.016 0.292,-0.011 0.326,0.05 2.499,4.265 7.172,3.325 10.936,4.49 2.613,0.81 4.268,-0.771 5.427,-2.966 0.738,-1.386 0.677,-3.11 1.827,-4.321 z"
     id="path314" />
  <path
     fill="#6d82a9"
     d="m 204.34662,308.422 c 1.389,0.722 2.008,-0.521 2.85,-1.139 17.631,-12.918 35.253,-25.846 52.881,-38.77 1.735,0.749 1.151,1.882 0.562,3.086 -6.121,12.44 -14.319,23.19 -25.393,31.686 -7.307,5.606 -13.661,12.404 -21.471,17.384 -7.667,4.89 -14.282,11.312 -22.542,15.354 -2.337,1.144 -4.438,2.771 -6.739,4.001 -4.301,2.298 -8.855,3.56 -13.797,2.791 l -0.186,-16.672 0.071,-1.863 c 6.94,-3.678 12.235,-9.383 17.954,-14.57 1.027,-0.932 0.553,-2.131 0.662,-3.223 0.388,-3.921 -0.786,-7.937 0.687,-11.795 0.766,6.092 0.112,12.21 0.36,18.311 0.049,1.207 -0.425,2.499 0.417,3.622 l -0.085,0.072 c 2.439,0.451 3.533,-1.733 5.09,-2.814 2.311,-1.604 4.755,-3.075 6.812,-5.056 0.462,-0.445 1.14,-0.751 1.867,-0.405 z"
     id="path316" />
  <path
     fill="#32405d"
     d="m 284.19362,199.2 c -1.948,3.407 -2.004,7.162 -2.089,10.931 -0.123,5.326 -0.958,10.42 -4.585,14.701 -1.87,2.208 -4.141,3.919 -6.473,5.48 -6.251,4.187 -11.853,9.285 -18.413,13.02 -2.333,1.328 -4.859,1.703 -7.561,1.857 -6.324,0.369 -12.173,2.791 -18.104,4.797 -3.661,1.236 -7.162,3.057 -11.222,2.736 -1.166,-0.094 -2.271,-0.202 -3.282,-0.811 3.314,-6.371 1.431,-13.389 2.695,-20.011 -0.148,-0.48 -0.857,-0.141 -0.405,-0.199 0.163,-0.022 0.226,0.073 0.189,0.286 -0.813,4.714 -1.302,9.455 -1.389,14.244 -0.026,1.37 0.386,3.063 -1.517,3.735 -2.103,-0.02 -2.743,-2.317 -4.496,-2.879 -0.6,-0.789 -0.66,-1.709 -0.475,-2.608 1.145,-5.567 1.876,-11.217 3.466,-16.689 a 4.31,4.31 0 0 1 2.821,-1.242 c 0.855,0.302 1.732,0.604 2.19,-0.565 0.455,-1.168 0.168,-2.142 -0.87,-2.871 0.813,-4.896 4.051,-8.439 7.307,-11.663 10.716,-10.604 21.407,-21.28 32.729,-31.219 6.293,-5.521 13.82,-9.627 20.794,-14.371 0.939,-0.643 1.855,-1.323 2.826,-1.902 1.363,-0.816 2.709,-1.642 4.433,-0.758 1.817,0.938 2.181,2.427 2.124,4.287 -0.086,2.744 -0.034,5.493 -0.016,8.243 0.007,1.102 -0.285,2.407 1.396,2.647 0.347,1.027 -0.268,1.789 -0.804,2.493 -2.943,3.857 -3.162,8.481 -3.77,13.007 -0.303,2.326 1.031,3.852 2.501,5.324 z"
     id="path318" />
  <path
     fill="#fbfbfa"
     d="m 210.53362,227.79 c 0.547,4.232 -1.092,8.173 -1.65,12.254 -0.324,2.365 -0.887,4.697 -1.341,7.046 -0.556,2.413 -1.332,4.802 -1.608,7.244 -0.311,2.765 -1.818,4.235 -4.678,5.39 -0.793,-7.488 -1.615,-14.738 -2.301,-22.001 -0.191,-2.031 1.768,-2.304 3.199,-3.424 0.543,5.927 1.053,11.478 1.56,17.026 0.182,0.025 0.361,0.053 0.546,0.077 1.15,-6.173 2.437,-12.322 3.38,-18.525 0.337,-2.212 1.039,-3.893 2.893,-5.087 z"
     id="path320" />
  <path
     fill="#fcfcfb"
     d="m 284.19362,199.2 c -4.068,-0.06 -3.538,-3.211 -3.376,-5.583 0.384,-5.54 1.602,-10.892 5.455,-15.24 3.705,-2.11 4.875,-1.519 4.865,2.795 -0.021,6.858 -0.634,13.561 -6.944,18.028 z"
     id="path322" />
  <path
     fill="#c4ccd7"
     d="m 300.75162,235.519 c 0.481,1.172 0.475,1.16 -0.727,2.047 -9.918,7.29 -19.838,14.577 -29.749,21.877 -16.247,11.969 -32.486,23.94 -48.73,35.914 -0.706,0.29 -0.829,-0.022 -0.658,-0.64 19.623,-14.59 39.247,-29.188 58.884,-43.766 6.971,-5.174 13.985,-10.289 20.98,-15.432 z"
     id="path324" />
  <path
     fill="#fafafa"
     d="m 296.38862,184.697 c -1.872,2.732 -0.723,6.596 -4.456,8.29 -0.224,-2.245 0.691,-4.102 1.398,-5.854 1.559,-3.872 2.088,-7.639 0.127,-11.475 -0.931,-1.822 0.416,-2.487 1.561,-3.192 2.002,-1.233 1.145,1.369 2.368,1.643 1.348,-1.744 0.527,-5.099 3.712,-5.806 0.606,1.077 -0.215,2.123 -0.596,2.993 -1.916,4.391 -2.506,8.729 -0.201,13.146 1.313,2.517 -0.778,3.101 -2.507,4.268 -0.466,-1.338 -0.893,-2.555 -1.406,-4.013 z"
     id="path326" />
  <path
     fill="#f9faf9"
     d="m 212.03862,249.967 c 0.413,-5.121 0.93,-10.24 1.189,-15.369 0.097,-1.859 0.681,-3.014 2.954,-3.757 -0.403,6.3 -0.758,12.375 -1.198,18.445 -0.105,1.461 -1.663,1.762 -2.522,2.624 z"
     id="path328" />
  <path
     fill="#afb9c4"
     d="m 220.88862,294.718 c 0.22,0.215 0.439,0.424 0.658,0.64 l -17.2,13.063 c -3.65,2.633 -7.308,5.261 -10.953,7.909 -0.891,0.646 -1.679,1.757 -2.816,0.367 8.798,-6.433 17.597,-12.871 26.401,-19.293 1.278,-0.933 2.605,-1.792 3.91,-2.686 z"
     id="path330" />
  <path
     fill="#5e7195"
     d="m 190.66262,316.626 c -1.224,-0.805 -0.747,-2.06 -0.754,-3.128 -0.045,-6.267 -0.022,-12.537 -0.023,-18.805 0.349,-3.427 -0.686,-6.938 0.603,-10.31 0.058,10.749 0.115,21.496 0.174,32.243 z"
     id="path332" />
  <path
     fill="#e8e9ec"
     d="m 214.67562,223.11 c 0.611,-0.149 1.437,-1.053 1.763,-0.419 0.742,1.443 0.427,3.034 -0.38,4.454 -0.383,0.677 -0.875,1.472 -1.738,1.34 -1.028,-0.157 -0.624,-1.288 -0.966,-1.936 z"
     id="path334" />
  <path
     fill="#33415e"
     d="m 43.761618,171.614 c 2.17,-3.083 -0.163,-6.099 -0.212,-9.147 -0.025,-1.583 -0.528,-3.187 0.13,-4.71 2.658,-6.158 5.25,-6.667 12.114,-2.437 8.384,5.168 16.222,11.396 23.498,18.147 5.991,5.557 10.655,12.196 14.277,19.502 3.454,6.974 7.479002,13.604 11.527002,20.232 0.539,0.886 0.951,1.831 0.849,2.918 0.047,6.267 1.273,12.428 1.702,18.665 0.062,0.912 0.246,1.934 0.931,2.521 3.592,3.08 6.984,6.498 11.782,7.763 1.902,1.824 1.127,4.298 1.593,6.477 0.761,3.564 1.7,7.094 2.386,10.668 0.563,2.94 0.452,5.736 -2.75,7.374 -3.237,1.661 -6.877,1.438 -9.127,-1.149 -3.215,-3.693 -6.483,-7.382 -8.696,-11.83 -2.245,-4.515 -4.354002,-9.11 -6.809002,-13.509 -4.372,-7.838 -10.204,-14.425 -18.345,-18.435 -5.359,-2.639 -11.044,-4.165 -16.36,0.465 -1.354,1.179 -2.469,0.202 -3.297,-0.614 -1.037,-1.024 -1.965,-2.273 -2.582,-3.594 -3.552,-7.621 -5.453,-15.685 -6.155,-24.043 2.603,0.324 5.312,0.852 5.711,-3.014 0.5,-0.757 0.493,-2.12 1.992,-1.701 1.382,3.062 0.58,6.543 2.052,10.103 -0.332,-3.029 -0.486,-5.586 -0.339,-8.155 0.197,-0.957 0.273,-2.311 1.535,-2.146 1.854,0.244 1.136,2.043 1.462,3.202 2.531,5.67 4.462,11.67 8.954,16.255 0.687,0.608 1.403,1.175 2.194,1.642 0.869,0.675 1.886,0.802 2.943,0.779 3.529,1.784 6.709,4.143 10.125,6.115 0.978,0.817 1.457,1.956 1.95,3.073 0.56,1.264 1.385,2.003 2.863,1.632 0.491,-0.022 0.958,0.066 1.381,0.326 2.663,3.898 6.154,6.796 10.918002,9.327 -0.838,-2.703 -2.631,-3.442 -4.100002,-4.361 -4.723,-2.951 -7.858,-6.924 -8.778,-12.522 -0.226,-1.394 -0.342,-2.718 0.17,-4.053 0.934,-2.443 2.232,-2.933 4.521,-1.63 0.993,0.569 1.823,1.397 2.81,1.979 0.854,0.504 1.541002,1.408 3.226002,1.2 -2.667002,-2.792 -5.651002,-4.575 -8.608002,-6.354 -1.104,-0.663 -2.204,0.224 -3.294,0.5 -1.704,0.13 -2.354,-1.153 -3.101,-2.311 a 54.676,54.676 0 0 1 -4.507,-8.501 c -4.045,-9.642 -9.693,-18.171 -17.213,-25.466 -2.385,-2.312 -4.199,-5.153 -6.709,-7.368 -0.773,-0.684 -1.479,-1.453 -2.403,-1.937 -1.046,-0.543 -2.178,-0.956 -3.265,-0.269 -1.181,0.747 -0.99,2.015 -0.754,3.123 0.958,4.492 2.336,8.871 3.894,13.184 0.699,1.942 1.418,3.861 1.85,5.883 0.223,1.056 0.299,2.114 -0.026,3.164 -0.212,0.515 -0.538,0.904 -1.125,0.996 -1.443,-0.472 -1.545,-1.824 -1.913,-2.983 -1.581,-4.997 -4.046,-9.338 -8.713,-12.137 -1.052,-0.633 -2.145,-1.364 -2.159,-2.839 z"
     id="path336" />
  <path
     fill="#fcfcfb"
     d="m 56.546618,194.164 c -1.297,4.711 -2.013,5.019 -6.328,2.712 -5.118,-3.796 -10.382,-7.438 -12.141,-14.151 -0.782,-2.98 -1.735,-5.932 -1.372,-9.041 0.497,-4.211 2.394,-5.005 5.861,-2.623 0.357,0.241 0.794,0.371 1.192,0.556 3.84,3.35 8.533,5.902 10.304,11.168 0.743,2.209 1.545,4.398 2.322,6.596 1.448,1.545 0.11,3.188 0.162,4.783 z"
     id="path338" />
  <path
     fill="#fbfbfb"
     d="m 132.35162,247.527 c -3.347,-2.396 -6.41,-4.589 -9.991,-7.155 0.704,3.637 2.101,6.198 4.604,8.106 a 146.66,146.66 0 0 0 6.967,5.024 c 1.149,0.776 1.593,1.622 0.861,2.828 -0.968,1.591 -1.705,0.102 -2.427,-0.307 -7.473,-4.213 -11.904,-10.523 -13.018,-19.08 -0.12,-0.908 -0.273,-1.829 -0.223,-2.731 0.108,-1.935 0.108,-4.061 2.159,-5.083 1.916,-0.955 3.193,0.677 4.563,1.6 2.088,1.409 4.051,3.007 6.162,4.377 1.263,0.818 1.344,1.789 0.675,2.861 -1.018,1.627 -1.732,-0.041 -2.4,-0.438 -1.472,-0.871 -2.788,-1.999 -4.208,-2.964 -1.183,-0.802 -2.429,-2.204 -3.808,-0.404 -1.397,1.834 0.238,2.604 1.431,3.47 2.691,1.95 5.394,3.883 8.065,5.857 1.815,1.346 1.798,1.372 0.588,4.039 z"
     id="path340" />
  <path
     fill="#fafafa"
     d="m 120.36162,245.067 c -0.597,0.697 -0.875,1.81 -2.253,0.73 -3.063,-2.396 -6.275,-4.612 -9.429,-6.893 -1.323,-0.957 -1.79,-2.359 -1.946,-3.868 -0.612,-5.925 -1.146,-11.858 -1.777,-17.782 -0.095,-0.916 0.037,-1.296 0.989,-1.136 0.881,0.758 1.381,1.599 1.476,2.869 0.262,3.513 1.145,7.019 1.044,10.506 -0.129,4.666 1.894,7.469 5.688,9.878 2.299,1.465 5.5,2.346 6.208,5.696 z"
     id="path342" />
  <path
     fill="#404354"
     d="m 153.48262,359.346 c 3.754,2.894 6.974,6.562 11.84,7.823 1.646,0.421 3.13,0.532 4.624,-0.313 l 0.026,0.318 c 5.36,0.471 10.127,-1.597 14.728,-3.817 12.377,-5.98 23.979,-13.195 34.44,-22.212 1.641,-1.411 3.003,-3.96 5.948,-3.161 0.285,1.507 -0.796,2.313 -1.707,3.129 -12.478,11.091 -26.352,20.019 -41.646,26.713 -4.56,1.998 -9.376,2.849 -14.357,2.73 -4.41,-0.575 -8.355,-2.334 -12.02,-4.776 -9.834,-6.554 -18.855,-14.166 -27.993,-21.621 A 1089.963,1089.963 0 0 0 77.231618,305.674 c -1.282,-0.929 -2.745,-1.691 -3.513,-3.207 -0.298,-1.129 -0.373,-2.216 0.604,-3.092 6.063,3.811 11.444,8.541 17.136,12.847 14.113002,10.666 28.125002,21.471 42.198002,32.189 6.581,5.014 13.214,9.96 19.826,14.935 z"
     id="path344" />
  <path
     fill="#e1e3e9"
     d="m 80.481618,329.754 a 3.979,3.979 0 0 1 -0.008,-0.673 c -0.153,-1.383 0.835,-1.094 1.554,-0.975 1.121,0.191 2.159,0.684 3.187,1.175 0.292,0.182 0.652,0.355 0.778,0.659 2.717,6.451 8.33,10.01 13.562,14.118 10.090002,7.922 19.864002,16.249 29.644002,24.563 1.862,1.588 4.275,2.239 6.229,3.618 2.024,1.438 4.868,2.429 4.338,5.83 -0.422,0.319 -0.905,0.411 -1.42,0.38 -3.405,-0.46 -6.413,-2.214 -9.912,-3.238 -0.295,2.582 3.521,4.938 0.238,7.336 -4.312,-0.81 -8.157,-2.578 -11.429,-5.534 -0.519,-2.755 -2.032,-5.054 -3.396,-7.424 -0.448,-0.775 -1.126,-1.652 -0.392,-2.516 0.855,-1.003 1.898,-0.359 2.823,0.032 1.344,0.567 2.498,1.478 3.884,2.052 -10.48,-8.084 -19.622,-17.695 -29.932002,-25.974 -0.916,-0.733 -1.896,-1.258 -3.076,-1.373 -1.614,-0.729 -2.022,-2.46 -3.052,-3.677 -1.615,-2.612 -3.087,-5.293 -3.62,-8.379 z"
     id="path346" />
  <path
     fill="#c6cbd3"
     d="m 85.281618,329.813 c -1.729,0.584 -2.979,-1.979 -4.809,-0.732 -1.18,-1.641 -1.644,-3.558 -2.081,-5.482 -0.706,-1.424 0.07,-1.804 1.29,-1.726 0.882,0.058 1.661,0.516 2.433,0.926 0.289,0.158 0.556,0.354 0.804,0.566 1.021,1.059 1.564,2.398 2.18,3.699 0.262,0.902 0.734,1.793 0.183,2.749 z"
     id="path348" />
  <path
     fill="#a8adbe"
     d="m 82.532618,323.584 c -1.375,0.768 -2.77,-2.984 -4.14,0.016 -0.46,-0.926 -0.916,-1.853 -1.376,-2.773 l -0.023,-1.362 c 3.812,-1.059 5.883,0.485 5.539,4.119 z"
     id="path350" />
  <path
     fill="#323a53"
     d="m 224.98562,338.035 c -3.74,1.787 -6.5,4.873 -9.734,7.335 -12.485,9.518 -25.444,18.156 -40.797,22.506 -1.746,0.493 -3.11,0.334 -4.48,-0.697 2.012,-0.613 3.794,-1.678 5.513,-2.859 0.466,2.001 1.626,0.974 2.62,0.587 9.133,-3.556 17.409,-8.743 25.121,-14.587 14.708,-11.149 29.037,-22.796 43.411,-34.374 4.075,-3.282 7.048,-7.863 11.924,-10.241 0.724,-0.354 0.761,-1.054 0.851,-1.75 0.302,-2.426 2.592,-3.197 4.146,-3.218 1.238,-0.017 0.447,2.322 0.631,3.601 -4.035,2.177 -5.776,6.521 -9.068,9.513 -8.529,7.758 -17.475,14.985 -26.327,22.338 -1.067,0.879 -2.056,2.247 -3.811,1.846 z"
     id="path352" />
  <path
     fill="#434e6d"
     d="m 224.98562,338.035 c 10.237,-8.115 20.553,-16.139 29.851,-25.359 1.875,-1.86 4.52,-2.877 5.104,-6.102 0.219,-1.219 2.317,-2.418 4.251,-2.235 -0.229,1.597 0.662,3.337 -0.621,4.796 -2.695,1.283 -4.079,3.828 -5.921,5.974 -6.113,7.109 -13.195,13.231 -20.287,19.317 -3.37,2.896 -6.563,6.022 -10.326,8.448 -5.54,3.88 -10.397,8.707 -16.212,12.16 -11.624,6.897 -23.313,13.753 -36.98,15.972 -1.599,0.26 -3.199,0.378 -4.797,0.157 -0.833,-0.113 -1.958,-0.068 -1.854,-1.461 10.448,0.361 18.986,-4.708 27.735,-9.453 9.867,-5.354 18.737,-12.036 27.295,-19.209 1.031,-0.871 1.846,-2.001 2.762,-3.005 z"
     id="path354" />
  <path
     fill="#566284"
     d="m 227.05562,342.168 c 7.49,-6.666 15.385,-12.858 22.506,-19.964 3.538,-3.53 7.387,-6.66 9.813,-11.18 0.771,-1.437 2.472,-1.972 4.191,-1.892 -0.185,1.854 0.411,3.817 -0.789,5.523 -1.917,1.25 -4.157,2.133 -5.057,4.523 -9.822,11.269 -20.819,21.258 -32.5,30.581 -11.967,9.547 -25.068,16.824 -39.659,21.438 -1.049,0.069 -2.093,0.093 -3.039,-0.496 -0.673,-2.098 1.174,-2.041 2.248,-2.521 6.548,-2.968 13.143,-5.813 19.493,-9.207 6.492,-3.468 11.991,-8.271 17.702,-12.791 1.69,-1.343 3.473,-2.574 5.091,-4.014 z"
     id="path356" />
  <path
     fill="#6a7799"
     d="m 257.33262,318.755 c 0.657,-2.903 2.572,-4.139 5.445,-4.098 -0.177,0.665 -0.349,1.335 -0.526,2.001 1.223,2.963 0.123,5.464 -1.545,7.856 -3.521,0.289 -5.435,2.67 -7.053,5.438 -2.691,1.815 -4.718,4.329 -6.921,6.655 -8.453,7.863 -17.11,15.489 -26.507,22.242 -3.542,2.548 -7.42,4.504 -11.091,6.825 -2.941,1.183 -5.833,2.486 -8.864,3.426 -1.28,0.396 -2.577,0.978 -3.939,0.248 -0.794,-1.704 0.759,-1.899 1.629,-2.213 11.695,-4.16 21.063,-12.048 30.569,-19.541 9.808,-7.729 18.584,-16.649 26.901,-25.981 0.754,-0.848 1.254,-1.914 1.902,-2.858 z"
     id="path358" />
  <path
     fill="#5d697e"
     d="m 231.77062,373.792 c -5.878,3.337 -11.376,7.351 -17.675,9.938 -0.934,0.383 -1.875,0.75 -2.813,1.125 -0.494,1.062 -1.417,1.638 -2.405,2.148 -7.548,3.067 -15.417,4.923 -23.445,6.178 -1.249,0.193 -2.503,0.19 -3.707,-0.321 -1.2,-0.835 -2.072,-1.813 -1.444,-3.422 0.965,-0.902 2.187,-1.192 3.445,-1.31 5.457,-0.527 10.775,-1.759 16.059,-3.157 7.713,-2.315 15.155,-5.265 22.042,-9.498 3.112,-1.166 5.378,-3.85 8.592,-4.849 0.359,-0.004 0.691,0.081 1.005,0.252 0.73,0.648 1.146,1.36 0.467,2.293 a 3.853,3.853 0 0 1 -0.121,0.623 z"
     id="path360" />
  <path
     fill="#647490"
     d="m 231.88962,373.17 c -0.231,-0.703 -0.465,-1.402 -0.698,-2.108 -0.409,-0.928 0.132,-1.65 0.768,-2.028 4.033,-2.393 4.279,-6.324 4.356,-10.353 0.72,-2.245 2.034,-3.888 4.484,-4.352 2.145,1.121 1.068,3.232 1.522,5.359 3.938,-3.602 6.848,-7.639 9.379,-11.919 1.215,-2.061 -0.879,-4.161 -0.597,-6.339 0.076,-0.863 0.416,-1.624 0.914,-2.323 1.666,-1.292 1.42,-4.314 4.18,-4.628 2.288,1.91 2.417,4.289 1.325,6.81 -0.813,1.873 -1.795,3.667 -2.237,5.685 -5.79,10.533 -13.604,19.248 -23.396,26.196 z"
     id="path362" />
  <path
     fill="#43506c"
     d="m 255.28262,346.976 c -0.57,-1.517 -0.127,-2.864 0.7,-4.141 1.786,-2.752 1.8,-5.496 -0.015,-8.24 -0.375,-3.888 1.82,-6.801 3.709,-9.832 1.738,0.62 2.086,2.435 3.119,3.66 -1.415,6.627 -3.78,12.868 -7.513,18.553 z"
     id="path364" />
  <path
     fill="#303a52"
     d="m 262.79762,328.424 c -2.073,-0.276 -2.325,-1.974 -2.748,-3.536 -0.222,-0.149 -0.294,-0.287 -0.21,-0.422 0.081,-0.133 0.157,-0.195 0.239,-0.195 1.538,-2.307 1.793,-4.976 2.175,-7.611 1.555,0.275 2.069,-0.8 2.383,-2.185 0.476,4.95 -0.236,9.514 -1.839,13.949 z"
     id="path366" />
  <path
     fill="#fcfcfb"
     d="m 269.61462,199.027 c 0.637,-4.374 -0.123,-8.817 0.872,-13.202 0.563,-2.474 3.649,-5.799 6.223,-6.061 1.563,-0.16 2.497,0.396 2.577,1.939 0.064,1.241 0.075,2.555 -0.258,3.734 -0.706,2.515 -1.381,4.503 -0.083,7.504 1.575,3.637 -0.659,7.784 -3.003,11.039 -1.697,2.354 -3.893,4.42 -6.828,5.721 v -4.925 c 0.524,-1.885 -1.001,-3.945 0.5,-5.749 z"
     id="path368" />
  <path
     fill="#344361"
     d="m 258.11662,218.38 c -1.247,6.58 -7.56,7.244 -11.942,10.12 -1.189,0.782 -2.784,0.953 -4.19,1.4 -0.46,-1.302 -0.021,-2.334 1.235,-2.716 1.869,-0.566 2.088,-2.101 2.041,-3.516 -0.174,-5.234 1.042,-10.399 0.72,-15.631 1.003,-2.132 3.047,-2.093 4.936,-2.38 0.75,-0.512 0.168,2.32 1.6,0.576 0.791,-0.956 2.219,-2.2 3.501,-0.879 1.31,1.347 0.743,3.104 -0.433,4.316 -2.501,2.576 -4.72,5.253 -5.198,8.979 -0.143,1.094 -0.869,2.454 0.4,3.104 1.32,0.678 2.049,-0.672 2.631,-1.585 1.038,-1.627 2.417,-2.325 4.308,-2.081 0.13,0.102 0.26,0.198 0.391,0.293 z"
     id="path370" />
  <path
     fill="#fafbfa"
     d="m 246.35362,207.837 c 1.258,0.963 0.629,2.31 0.58,3.454 -0.18,4.186 -0.373,8.373 -0.823,12.532 -0.189,1.738 0.771,4.749 -3.032,4.095 -0.243,-0.044 -0.724,1.29 -1.096,1.983 l -1.868,2.08 c -3.073,1.064 -3.474,-1.053 -3.702,-3.199 -0.443,-4.121 0.406,-8.179 0.691,-12.266 0.052,-1.95 0.358,-3.737 2.751,-4.115 2.052,0.396 1.707,2.103 1.883,3.502 0.357,2.828 -0.709,5.607 -0.059,8.486 1.114,-4.247 1.357,-8.619 1.672,-12.983 0.284,-1.791 0.66,-3.509 3.003,-3.569 z"
     id="path372" />
  <path
     fill="#344360"
     d="m 240.17962,212.57 c -1.47,0.771 -2.407,1.867 -2.22,3.647 -0.955,1.405 -2.411,1.13 -3.789,1.122 a 2.082,2.082 0 0 1 -0.907,-0.318 c -0.619,-0.747 -0.708,-1.479 0.049,-2.191 3.144,-0.556 5.02,-3.063 7.204,-4.947 4.479,-3.854 8.946,-7.711 13.51,-11.47 2.659,-2.184 5.542,-3.005 8.852,-2.837 1.222,1.399 0.93,2.991 0.585,4.588 -0.711,1.917 -2.117,2.581 -4.065,2.274 -2.352,-1.409 -4.247,-0.864 -5.935,1.229 -0.688,0.857 -1.324,1.887 -2.509,2.228 -1.312,1.178 -3.146,1.114 -4.602,1.944 -1.172,0.93 -2.225,1.934 -2.228,3.586 -0.835,2.028 -2.394,1.573 -3.945,1.145 z"
     id="path374" />
  <path
     fill="#f9faf9"
     d="m 234.07862,216.972 a 0.75,0.75 0 0 0 0.53,-0.023 c 1.228,1.373 0.902,2.846 -0.047,4.082 -2.825,3.673 -1.156,8.021 -1.911,11.996 -0.098,0.517 0.23,-0.113 0.403,-0.132 1.968,-0.204 1.291,0.951 1.007,1.905 -1.219,1.691 -2.191,4.7 -4.469,3.818 -1.864,-0.722 -0.723,-3.682 -0.756,-5.688 -0.052,-3.144 1.347,-6.394 -0.691,-9.437 -0.274,-0.406 -0.052,-1.536 0.341,-1.932 1.857,-1.87 1.987,-4.198 2.181,-6.598 0.083,-1.017 0.339,-2.276 1.901,-2.206 0.657,1.027 0.205,2.167 0.324,3.249 0.084,0.76 0.214,1.354 1.187,0.966 z"
     id="path376" />
  <path
     fill="#344361"
     d="m 234.06262,234.8 c -0.063,-0.451 -0.129,-1.298 -0.179,-1.298 -3.738,0.093 -2.039,-2.675 -1.951,-4.146 0.191,-3.257 -0.932,-6.909 2.49,-9.438 0.723,-0.531 0.354,-1.945 0.187,-2.967 l 3.352,-0.731 c -0.193,4.431 -0.441,8.857 -0.553,13.293 -0.044,1.688 0.204,3.408 2.708,2.473 -2.02,0.936 -4.038,1.876 -6.054,2.814 z"
     id="path378" />
  <path
     fill="#f8f8f8"
     d="m 262.70862,200.412 0.17,-4.837 c 0.011,-2.424 -0.227,-4.853 0.643,-7.231 0.417,-1.145 0.962,-2.291 2.146,-2.106 1.12,0.172 0.538,1.501 0.577,2.323 0.063,1.342 -0.013,2.69 -0.025,4.037 -0.469,1.901 -0.419,3.792 0.052,5.688 0.51,2.029 0.506,4.106 -0.272,6.02 -0.755,1.846 -0.585,3.502 0.218,5.208 0.242,2.807 -1.076,4.487 -3.74,5.206 -2.106,-1.621 -1.234,-3.94 -1.345,-5.995 -0.154,-2.883 0.694,-5.612 1.576,-8.313 z"
     id="path380" />
  <path
     fill="#f7f8f8"
     d="m 219.31662,246.563 c 0.365,-6.266 0.661,-11.972 1.047,-17.671 0.127,-1.869 0.235,-1.921 2.688,-1.689 0.845,0.078 0.479,-0.535 0.653,-0.804 0.723,-1.096 0.793,-2.632 2.631,-3.454 0.077,2.054 0.303,3.663 -1.383,5.228 -1.415,1.314 -1.939,3.299 -2.058,5.306 -0.182,3.083 -0.565,6.162 -0.585,9.245 -0.016,1.94 -0.942,2.854 -2.993,3.839 z"
     id="path382" />
  <path
     fill="#344361"
     d="m 262.70862,200.412 c 0.224,4.771 -1.313,9.517 -0.234,14.304 -2.107,0.441 -2.141,3.354 -4.356,3.663 0,0.002 -0.103,-0.104 -0.103,-0.104 -0.567,-0.466 -0.875,-1.121 -0.873,-1.802 0.017,-4.563 0.45,-9.103 0.901,-13.64 0.043,-0.452 0.419,-0.799 0.802,-1.07 1.44,-0.005 2.99,0.286 3.863,-1.351 z"
     id="path384" />
  <path
     fill="#344360"
     d="m 266.21162,209.508 c -1.149,0.306 -1.365,-0.328 -1.287,-1.271 0.433,-5.217 0.861,-10.427 1.293,-15.645 0.103,1.563 -0.094,3.231 0.41,4.654 0.362,1.036 1.132,2.663 2.988,1.781 0.082,1.936 0.196,3.878 -0.498,5.75 -0.166,-0.499 -0.318,-1.574 -0.759,-1.218 -1.032,0.838 -2.688,1.566 -2.167,3.364 0.261,0.911 0.552,1.712 0.02,2.585 z"
     id="path386" />
  <path
     fill="#344361"
     d="m 234.07862,216.972 c -0.606,0.688 -1.313,1.693 -1.465,-0.222 -0.104,-1.325 -0.037,-2.661 -0.045,-3.99 1.403,0.271 0.302,1.446 0.743,2.066 -0.065,0.829 -0.137,1.663 0.767,2.146 z"
     id="path388" />
  <path
     fill="#313d59"
     d="m 284.14362,190.961 c 0.047,-3.276 0.336,-5.648 1.472,-7.83 0.368,-0.703 0.875,-1.504 1.808,-1.288 0.769,0.178 0.839,0.999 0.865,1.695 0.111,2.982 0,5.951 -1.049,8.787 -0.388,1.047 -0.924,2.46 -2.233,2.183 -1.216,-0.253 -0.775,-1.709 -0.854,-2.692 -0.046,-0.563 -0.009,-1.141 -0.009,-0.855 z"
     id="path390" />
  <path
     fill="#344461"
     d="m 56.932618,185.25 c -2.093,-5.871 -4.183,-11.743 -5.66,-17.807 -0.453,-1.854 -1.324,-4.14 0.789,-5.256 2.083,-1.104 4.239,-0.131 5.884,1.578 9.979,10.384 20.09,20.648 25.341,34.543 1.164,3.072 3.114,5.844 4.658,8.775 0.463,0.875 1.011,1.517 2.062,1.562 0.708,4.345 0.11,8.891 2.105,13.046 0.512,1.061 1.469,2.154 0.526,3.479 -0.464,0.022 -0.93,0.041 -1.395,0.064 -1.694,-0.37 -1.798,-1.927 -2.275,-3.15 -2.496,-6.404 -4.771,-12.898 -7.179,-19.336 -0.432,-1.152 -0.608,-2.938 -1.897,-3.036 -1.563,-0.123 -1.296,1.835 -1.846,2.865 -1.861,3.498 -1.963,7.756 -4.671,10.896 -0.875,-0.037 -1.447,-0.517 -1.854,-1.25 -0.645,-2.359 -2.382,-4.149 -3.316,-6.354 -0.561,-1.324 -1.102,-2.677 1.123,-3.068 2.241,-0.395 2.116,-2.174 1.888,-3.765 -0.604,-4.221 -2.269,-7.944 -5.802,-10.544 -2.476,-1.822 -4.951,-3.657 -7.56,-5.347 -0.339,0.724 0.003,1.695 -0.921,2.105 z"
     id="path392" />
  <path
     fill="#fbfbfb"
     d="m 56.932618,185.25 c 0.314,-1.083 -0.452,-2.244 0.347,-3.522 6.359,4.533 13.859,7.908 14.825,17.116 0.395,3.796 -0.565,5.155 -3.983,4.81 1.2,2.318 2.372,4.485 3.436,6.708 0.256,0.535 1.402,1.285 -0.037,1.861 -1.625,-0.684 -2.457,-2.031 -3.197,-3.554 -2.137,-4.403 -4.364,-8.766 -6.555,-13.146 2.022,-0.968 3.09,0.81 4.506,1.58 0.578,0.317 1.121,1.067 1.791,0.645 0.853,-0.534 0.413,-1.45 0.207,-2.185 -0.392,-1.381 -1.354,-2.361 -2.479,-3.184 -1.56,-1.138 -3.18,-2.188 -5.282,-3.824 0.563,2.377 -0.954,3.989 -0.063,5.845 0.114,2.604 -0.211,5.229 0.575,7.805 0.198,0.649 0.575,1.819 -0.448,2.054 -1.061,0.242 -1.612,-0.786 -1.735,-1.697 -0.454,-3.461 -0.81,-6.937 -1.208,-10.403 -1.033,-1.088 -0.075,-2.449 -0.49,-3.621 z m 16.44,28.22 4.879,-14.165 c 0.25,-0.72 0.28,-1.715 1.349,-1.676 0.899,0.033 1.357,0.813 1.652,1.553 a 555.838,555.838 0 0 1 3.334,8.568 c 2.226,5.826 4.435,11.652 6.656,17.48 -1.798,1.371 -2.45,-0.113 -2.875,-1.349 a 13.426,13.426 0 0 0 -1.808,-3.536 c -1.609,-1.41 -3.478,-2.437 -5.249,-3.606 -1.87,-1.242 -3.161,-2.86 -2.747,-5.315 1.87,-2.551 2.979,0.263 4.493,0.469 -0.645,-2.121 -1.449,-4.332 -2.377,-6.771 -0.943,1.981 -1.236,4.045 -2.248,5.813 -0.469,1.193 -0.659,2.561 -1.974,3.237 -1.424,1.504 -2.231,0.295 -3.085,-0.702 z m 19.264,11.7 c -2.339,-5.274 -4.438,-10.59 -2.632,-16.525 1.246,-2.058 2.882,-1.468 4.366,-0.472 2.64,1.771 5.146,3.747 7.774002,5.536 1.166,0.795 1.026,1.599 0.462,2.609 -0.881,1.565 -1.552,0.113 -2.11,-0.238 -1.646002,-1.035 -3.146002,-2.289 -4.770002,-3.365 -2.45,-1.625 -3.946,-0.984 -3.942,1.979 0.004,4.737 1.424,9.044 5.313,12.125 a 100.917,100.917 0 0 0 6.674002,4.829 c 1.272,0.849 1.711,1.681 0.865,3.076 -1.144,1.894 -2.326,-0.04 -2.67,-0.344 -3.266002,-2.902 -7.710002,-4.655 -9.330002,-9.21 z"
     id="path394" />
  <path
     fill="#354461"
     d="m 60.446618,194.397 c -0.89,-2.183 -0.563,-4.491 -0.871,-7.801 3.663,3.529 8.388,4.596 9.795,9.389 0.334,1.139 0.857,2.68 -0.368,3.458 -0.97,0.615 -1.75,-0.741 -2.621,-1.2 -1.582,-0.832 -2.644,-2.549 -4.613,-2.72 -0.105,-0.386 -0.348,-0.791 -0.288,-1.148 0.114,-0.686 0.849,-1.697 -0.276,-1.813 -0.993,-0.101 -0.541,1.179 -0.758,1.835 z"
     id="path396" />
  <path
     fill="#344461"
     d="m 78.951618,211.384 c 0.209,3.663 3.238,5.013 5.657,6.827 0.807,0.607 1.668,1.085 1.948,2.138 -3.704,-1.51 -6.906,-3.834 -10.102,-6.176 0.466,-1.145 0.46,-2.479 1.392,-3.435 0.57,-0.121 0.942,0.087 1.105,0.646 z m -21.81,-22.852 c 0.599,1.15 0.599,2.377 0.493,3.619 -0.363,0.673 -0.724,1.344 -1.088,2.013 -0.054,-1.595 -0.105,-3.19 -0.159,-4.784 z"
     id="path398" />
  <path
     fill="#2c3854"
     d="m 39.122618,177.658 c -0.003,-1.236 -0.209,-2.626 1.057,-3.409 1.394,-0.865 2.321,0.35 3.332,0.993 5.216,3.316 9.874,7.052 10.52,13.857 0.12,1.272 0.166,2.5 -0.354,3.692 -0.413,0.94 -0.995,1.41 -2.138,1.104 -6.22,-1.673 -12.397,-9.699 -12.417,-16.237 z"
     id="path400" />
  <path
     fill="#565b70"
     d="m 227.05562,342.168 c -3.847,4.252 -8.684,7.327 -13.009,11.005 -8.422,7.155 -18.563,11.029 -28.507,15.313 -1.138,0.491 -2.388,0.849 -3.215,1.889 -3.619,2.683 -7.85,2.688 -12.051,2.667 -9.319,-0.05 -16.402,-5.268 -23.364,-10.495 -15.378,-11.534 -29.78,-24.301 -45.014,-36.022 -7.349002,-5.656 -14.899002,-11.021 -22.408002,-16.451 -1.369,-0.99 -2.784,-2.04 -4.562,-2.278 -1.195,-1.477 -0.411,-3.205 -0.605,-4.809 4.043,1.912 7.362,4.891 10.896,7.523 10.971,8.183 21.930002,16.382 32.709002,24.812 9.878,7.725 19.391,15.917 29.305,23.598 6.006,4.659 11.96,9.688 19.959,10.773 3.72,1.796 7.514,0.572 10.946,-0.452 14.772,-4.397 28.306,-11.326 40.43,-20.941 2.729,-2.16 5.094,-4.875 8.49,-6.132 z"
     id="path402" />
  <path
     fill="#a4aabb"
     d="m 82.532618,323.584 c -0.375,-3.353 -2.825,-3.916 -5.538,-4.124 -0.402,-1.14 -0.807,-2.273 -1.209,-3.409 1.948,-1.096 3.208,0.473 4.631,1.242 10.662,5.773 19.713002,13.743 29.074002,21.308 10.429,8.428 20.129,17.753 31.067,25.553 5.869,4.188 11.738,8.406 18.388,11.379 3.422,1.532 7.007,1.8 10.649,2.335 12.767,1.872 23.999,-3.554 35.681,-6.901 1.643,-0.469 3.148,-1.389 4.853,-1.72 0.343,-0.002 0.673,0.068 0.98,0.222 0.75,1.675 -0.75,2.347 -1.508,3.332 -0.862,1.114 -2.332,1.757 -2.6,3.346 -2.232,1.963 -5.135,2.245 -7.81,3.069 a 82.287,82.287 0 0 1 -14.914,3.143 c -2.644,0.347 -5.272,0.883 -7.962,0.697 -0.572,-0.007 -1.146,-0.005 -1.715,-0.007 -2.241,-0.123 -4.499,0.161 -6.728,-0.242 -3.903,-1.599 -7.776,-3.243 -11.847,-4.5 -4.393,-1.355 -7.778,-4.742 -11.671,-7.138 -15.234,-9.373 -27.514,-22.372 -41.194,-33.653 -5.217002,-4.308 -10.553002,-8.45 -16.163002,-12.242 -1.379,-0.938 -2.925,-1.271 -4.464,-1.69 z"
     id="path404" />
  <path
     fill="#8c91a7"
     d="m 210.52162,369.667 c -6.617,3.207 -13.646,5.157 -20.763,6.859 -2.433,0.58 -4.757,1.724 -7.206,2.065 -12.554,1.76 -23.815,-0.877 -34.561,-8.179 -16.971,-11.526 -31.699,-25.724 -47.726,-38.352 -7.683002,-6.053 -15.411002,-12.067 -24.480002,-16.013 -0.219,-1.146 -0.441,-2.288 -0.661,-3.435 1.275,-1.174 2.306,-0.124 3.397,0.374 6.803,3.118 12.672,7.702 18.513,12.236 7.467002,5.802 14.979002,11.567 22.001002,17.925 8.813,8.555 18.259,16.342 28.39,23.285 6.073,4.161 12.418,7.74 19.781,9.28 6.839,1.432 13.605,1.166 20.223,-0.725 6.378,-1.82 12.594,-4.219 18.748,-6.723 1.69,-0.334 3.234,-1.601 5.103,-0.792 0.64,1.045 0.17,1.701 -0.759,2.195 z"
     id="path406" />
  <path
     fill="#6b6c86"
     d="m 74.922618,307.796 c 0.547,-2.098 1.616,-0.58 2.219,-0.187 8.673,5.673 17.02,11.806 25.162002,18.207 8.674,6.82 17.36,13.629 25.883,20.638 8,6.586 16.018,13.107 24.451,19.159 9.239,6.63 18.988,8.197 29.688,4.766 l 3.445,0.004 c -0.833,2.994 -3.983,2.251 -5.823,3.62 -5.474,1.396 -10.955,0.877 -16.438,0.087 -1.134,-0.03 -2.228,-0.275 -3.292,-0.653 -1.477,-0.516 -3.021,-0.89 -4.247,-1.953 -4.189,-3.673 -8.624,-6.996 -13.679,-9.413 -2.892,-1.316 -5.146,-3.471 -7.422,-5.608 -6.015,-6.638 -13.266,-11.878 -20.194,-17.438 -9.441,-7.572 -18.746002,-15.338 -28.722002,-22.242 -3.648,-2.526 -7.85,-4.284 -10.918,-7.633 -0.038,-0.449 -0.077,-0.903 -0.113,-1.354 z"
     id="path408" />
  <path
     fill="#787d93"
     d="m 75.033618,309.149 c 7.923,4.065 15.041,9.348 21.986,14.842 11.584002,9.167 23.083002,18.445 34.561002,27.747 1.479,1.194 2.631,2.788 3.939,4.192 -1.791,1.378 -2.789,-0.324 -3.79,-1.163 -4.476,-3.739 -8.972,-7.447 -13.407,-11.229 -10.864,-9.115 -21.810002,-18.14 -33.523002,-26.15 -2.94,-2.013 -6.092,-3.919 -9.676,-4.771 z"
     id="path410" />
  <path
     fill="#c5cad5"
     d="m 85.281618,329.813 c -0.433,-0.877 -0.796,-1.77 -0.683,-2.778 1.854,-1.075 2.988,0.411 4.227,1.273 10.043,7.021 19.164002,15.2 28.470002,23.117 9.501,8.082 19.289,15.752 29.487,22.905 2.322,1.626 5.145,2.509 7.451,4.208 1.037,0.761 3.029,1.297 1.526,3.321 -2.427,0.759 -4.713,-0.361 -7.078,-0.481 -2.201,-0.479 -4.431,-0.865 -6.583,-1.544 -0.985,-0.31 -2.359,-0.273 -2.438,-1.847 -0.642,-2.557 -2.563,-4.097 -4.715,-5.08 -7.413,-3.384 -12.687,-9.555 -19.035,-14.313 -8.164,-6.12 -15.248,-13.578 -24.097002,-18.924 -3.366,-2.026 -4.742,-6.292 -6.532,-9.857 z"
     id="path412" />
  <path
     fill="#eff1f4"
     d="m 100.39462,364.974 c -0.896002,-0.98 -1.788002,-1.96 -2.678002,-2.94 -0.976,-2.877 1.632,-2.938 3.223002,-4.086 -3.005002,-3.022 -6.049002,-6.041 -9.076002,-9.072 -1.296,-1.365 -2.229,-3.025 -3.579,-4.354 -0.604,-0.928 -1.488,-1.773 -0.931,-3.056 1.261,-1.208 2.229,-0.025 2.901,0.63 1.887,1.854 4.396,2.985 6.152,4.829 7.416002,7.774 15.906002,14.287 24.027002,21.235 0.639,0.546 1.217,1.322 0.976,2.436 -2.801,-0.462 -4.547,-3.062 -7.63,-3.468 0.627,3.546 4.379,5.728 3.847,9.515 -0.757,0.595 -1.547,0.354 -2.24,-0.045 -4.654,-2.679 -9.107,-5.648 -13.199,-9.151 -0.803,-0.683 -1.093,-1.724 -1.793,-2.473 z"
     id="path414" />
  <path
     fill="#9da7be"
     d="m 139.66162,377.991 c 2.751,1.653 6.115,1.261 8.945,2.656 1.166,1.263 1.901,2.807 2.649,4.31 1.36,2.729 0.491,4.19 -2.537,4.035 -1.922,-0.098 -3.575,0.012 -4.853,1.599 -4.671,0.004 -8.939,-1.245 -12.708,-4.072 -0.078,-1.162 0.258,-2.138 1.291,-2.78 1.644,-0.64 3.104,0.171 4.619,0.578 0.629,0.166 1.347,0.644 1.885,-0.019 0.494,-0.609 0.024,-1.29 -0.17,-1.927 -0.438,-1.442 -1.793,-2.783 -0.506,-4.423 0.462,0.013 0.922,0.026 1.385,0.043 z"
     id="path416" />
  <path
     fill="#c5cad5"
     d="m 132.77862,384.137 c -1.376,-0.69 -2.751,-1.385 -4.13,-2.074 1.742,-2.417 -0.556,-3.919 -1.339,-5.743 -0.307,-0.713 -1.042,-1.339 -0.304,-2.1 0.577,-0.594 1.247,-0.166 1.879,0.085 3.128,1.221 6.263,2.427 9.395,3.643 -0.147,2.054 1.405,3.509 1.878,5.331 0.466,1.793 0.411,3.238 -2.219,2.26 -1.664,-0.618 -3.439,-0.943 -5.16,-1.402 z"
     id="path418" />
  <path
     fill="#a8adbe"
     d="m 156.12762,381.33 c -1.031,-2.181 -3.333,-2.78 -5.148,-3.805 -12.566,-7.096 -23.393,-16.467 -34.399,-25.654 -9.608,-8.024 -18.967002,-16.376 -29.167002,-23.681 -0.84,-0.602 -1.734,-1.12 -2.815,-1.153 -0.69,-1.149 -1.379,-2.302 -2.066,-3.453 1.324,-0.932 2.582,-0.619 3.813,0.204 6.07,4.056 11.916,8.414 17.460002,13.161 8.049,6.889 16.343,13.522 24.016,20.806 7.867,7.473 17.324,12.577 26.081,18.706 2.858,2.001 6.759,2.495 10.15,3.77 1.122,0.421 2.573,0.393 3.127,1.83 -2.904,1.855 -6.031,0.942 -9.105,0.738 -0.831,-0.246 -1.545,-0.653 -1.947,-1.469 z"
     id="path420" />
  <path
     fill="#66718e"
     d="m 180.25962,373.128 c 1.552,-1.483 4.095,-0.984 5.509,-2.747 15.657,-5.212 29.64,-13.337 42.248,-23.965 7.511,-6.327 15.007,-12.646 21.779,-19.771 2.507,-2.641 4.433,-5.826 7.537,-7.891 -0.156,2.75 -2.146,4.402 -3.812,6.205 -13.085,14.182 -27.487,26.831 -43.654,37.423 -4.303,2.816 -9.299,4.174 -13.779,6.614 -4.868,2.943 -9.935,5.123 -15.828,4.132 z"
     id="path422" />
  <path
     fill="#7f89a2"
     d="m 118.32262,343.538 c 4.066,1.94 6.889,5.505 10.493,8.034 2.175,1.529 3.628,4.205 6.703,4.358 2.061,2.132 4.413,3.895 6.883,5.51 4.594,3.201 9.185,6.417 13.773,9.622 1.372,0.463 2.749,0.923 4.121,1.386 1.421,1.922 3.746,1.523 5.611,1.873 6.307,1.177 12.636,0.982 18.82,-1.004 8.412,-2.032 16.712,-4.405 24.434,-8.438 13.769,-7.855 25.513,-18.314 37.162,-28.896 0.959,1.658 -0.409,2.521 -1.278,3.447 -7.438,7.951 -15.905,14.716 -24.721,21.03 -4.423,3.168 -8.735,6.587 -13.923,8.545 -7.044,3.24 -14.328,6.31 -21.805,7.799 -12.006,2.388 -23.492,-0.323 -33.935,-7.08 -11.34,-7.339 -21.525,-16.099 -31.552,-25.066 -0.328,-0.304 -0.524,-0.747 -0.786,-1.12 z"
     id="path424" />
  <path
     fill="#7f8eae"
     d="m 206.40562,368.998 c 3.725,-2.548 7.467,-5.067 11.168,-7.649 9.75,-6.79 18.981,-14.201 27.212,-22.808 0.708,-0.74 1.566,-1.387 1.542,-2.563 2.182,-2.193 3.688,-5.132 6.875,-6.213 -0.093,3.6 -2.083,6.262 -4.335,8.802 -3.515,1.874 -5.733,5.212 -8.438,7.913 -5.793,5.783 -12.321,10.544 -18.981,15.161 -2.353,1.629 -4.578,3.416 -6.924,5.046 -0.957,0.661 -1.831,1.932 -3.294,0.936 -1.61,0.459 -3.216,0.919 -4.825,1.375 z"
     id="path426" />
  <path
     fill="#96a4bc"
     d="m 248.39062,338.027 c 2.253,-2.378 3.329,-5.438 4.811,-8.262 1.422,-2.922 2.474,-6.307 6.877,-5.497 a 10.8,10.8 0 0 0 -0.029,0.62 l -4.08,9.705 c -1.633,1.277 -1.55,3.747 -3.396,4.874 -1.366,-0.659 -2.972,0.295 -4.299,-0.645 -0.179,-0.296 -0.136,-0.56 0.116,-0.795 z"
     id="path428" />
  <path
     fill="#767c92"
     d="m 209.16462,364.876 c -1.103,2.08 -3.413,2.072 -5.205,2.879 -5.036,2.271 -10.207,4.235 -15.534,5.722 -1.065,0.298 -2.229,0.236 -3.353,0.345 -6.285,1.886 -12.661,2.306 -19.095,0.966 -1.065,-0.22 -2.547,-0.069 -2.925,-1.658 5.735,0.741 11.471,1.325 17.205,0 5.528,-0.417 10.563,-2.711 15.829,-4.131 4.747,-0.153 8.654,-2.949 13.078,-4.123 z"
     id="path430" />
  <path
     fill="#222a42"
     d="m 184.40862,381.491 c 7.781,-1.466 15.597,-2.803 22.864,-6.171 4.708,-2.84 9.522,-5.44 14.914,-6.793 2.97,2.426 1.114,4.934 0.132,7.427 -6.749,4.588 -14.221,7.511 -22.056,9.604 -4.054,0.7 -8.122,1.321 -12.243,0.914 -3.307,-0.331 -4.301,-1.805 -3.611,-4.981 z"
     id="path432" />
  <path
     fill="#6d7b93"
     d="m 181.60562,392.35 c -8.021,1.142 -16.045,1.235 -24.072,0.063 2.732,-2.459 2.788,-3.055 0.541,-6.097 -0.731,-0.989 -1.726,-1.831 -1.958,-3.105 -0.209,-1.139 0.108,-1.803 1.418,-1.118 3.215,-0.013 6.433,-0.021 9.648,-0.032 l 7.584,0.068 c -0.439,1.909 -2.079,1.22 -3.27,1.547 -1.16,0.318 -2.959,-0.89 -3.41,1.013 -0.37,1.552 2.229,4.466 3.823,4.644 1.381,0.154 2.708,-0.298 4.06,-0.465 0.794,-0.098 1.588,-0.147 2.391,-0.081 0.729,0.091 1.416,0.265 1.886,0.896 0.45,0.888 0.903,1.779 1.359,2.667 z"
     id="path434" />
  <path
     fill="#323c58"
     d="m 180.24362,389.68 c -0.675,-0.021 -1.35,-0.04 -2.026,-0.063 -1.054,-1.646 -0.515,-4.017 -2.617,-5.275 -0.68,-0.404 -0.59,-1.668 0.545,-2.172 2.754,-0.227 5.509,-0.453 8.262,-0.681 0.024,3.026 1.516,4.206 4.551,4.064 3.756,-0.176 7.535,-0.014 11.305,0.002 -6.435,2.545 -13.297,3 -20.02,4.125 z"
     id="path436" />
  <path
     fill="#364567"
     d="m 222.31962,375.954 c -0.114,-1.355 -0.023,-2.654 0.396,-3.991 0.339,-1.095 0.776,-2.553 -1.117,-2.941 1.822,-3.388 5.187,-4.552 8.468,-5.801 0.396,-0.149 0.769,0.375 0.993,0.785 0.642,2.418 0.854,4.797 -0.611,7.029 -2.724,1.622 -4.98,4.01 -8.129,4.919 z"
     id="path438" />
  <path
     fill="#4e6089"
     d="m 230.44762,371.038 c 0.01,-2.58 0.021,-5.162 0.028,-7.738 1.288,-2.531 3.065,-4.429 6.093,-4.696 1.373,3.311 0.189,7.866 -2.698,10.002 -0.99,0.734 -2.13,1.263 -2.683,2.458 a 44.93,44.93 0 0 0 -0.74,-0.026 z"
     id="path440" />
  <path
     fill="#b2bed2"
     d="m 236.57062,358.601 c -2.032,1.563 -4.061,3.132 -6.093,4.696 l -8.881,5.724 c -4.747,2.161 -9.227,4.934 -14.324,6.295 -0.223,-2.968 3.204,-3.351 3.982,-5.609 1.969,-2.728 5.199,-3.595 7.901,-5.172 10.171,-5.941 18.905,-13.464 26.016,-22.85 0.914,-1.201 1.796,-2.354 3.227,-2.946 1.313,0.693 3.262,-2.261 4.174,0.729 -0.27,0.646 -0.543,1.285 -0.813,1.93 -2.704,5.157 -5.875,9.923 -10.955,13.091 z"
     id="path442" />
  <path
     fill="#7b8fb9"
     d="m 240.80562,354.488 c 3.652,-4.363 7.304,-8.724 10.957,-13.09 -0.228,2.261 2.281,4.226 0.868,6.546 -2.788,4.592 -5.916,8.938 -9.91,12.587 -0.326,0.3 -0.693,0.669 -1.188,0.367 -0.692,-0.434 -0.799,-1.151 -0.512,-1.809 0.702,-1.593 0.617,-3.104 -0.215,-4.601 z"
     id="path444" />
  <path
     fill="#35435f"
     d="m 272.55062,203.566 c 0,-2.265 -0.063,-4.292 0.022,-6.319 0.063,-1.511 1.2,-2.423 2.495,-2.301 1.616,0.146 1.153,1.71 1.053,2.755 -0.231,2.434 -0.948,4.641 -3.57,5.865 z"
     id="path446" />
  <path
     fill="#384561"
     d="m 272.99962,192.058 c 0.119,-2.27 0.113,-4.076 0.348,-5.854 0.125,-0.965 1.04,-1.682 1.956,-1.608 1.247,0.098 1.115,1.296 0.99,2.154 -0.291,1.923 -0.759,3.809 -3.294,5.308 z"
     id="path448" />
  <path
     fill="#fbfbfa"
     d="m 258.84362,201.764 c -0.276,5.505 -0.557,11.005 -0.83,16.512 -2.322,0.571 -3.907,2.039 -5.169,4.019 -0.473,0.745 -1.387,1.396 -2.33,1.112 -1.188,-0.356 -1.264,-1.554 -1.236,-2.571 0.123,-4.021 1.35,-7.62 4.312,-10.484 0.575,-0.557 1.225,-1.031 1.787,-1.598 0.946,-0.951 0.969,-2.316 0.253,-3.104 -0.743,-0.822 -1.591,0.305 -2.26,0.833 -0.706,0.554 -1.323,1.214 -1.984,1.835 -0.657,-0.815 -0.371,-1.645 -0.428,-2.425 0.709,-1.98 2.354,-3.212 3.777,-4.592 1.455,-1.414 2.925,-1.369 4.108,0.463 z"
     id="path450" />
  <path
     fill="#344361"
     d="m 240.17962,212.57 c 1.292,-0.463 2.848,-0.026 3.947,-1.148 -0.211,3.988 -0.402,7.979 -0.663,11.961 a 3.991,3.991 0 0 1 -0.641,1.896 c -0.465,0.692 -0.902,1.825 -1.983,1.417 -0.88,-0.331 -0.631,-1.392 -0.59,-2.156 0.161,-3.074 0.434,-6.146 0.555,-9.227 0.037,-0.922 0.652,-2.082 -0.625,-2.743 z"
     id="path452" />
  <path
     fill="#384764"
     d="m 78.951618,211.384 c -0.369,-0.215 -0.734,-0.432 -1.103,-0.646 0.81,-2.447 1.615,-4.892 2.719,-8.226 l 4.115,11.226 c -2.446,0.004 -3.164,-3.313 -5.731,-2.354 z"
     id="path454" />
  <path
     fill="#929fbe"
     d="m 248.39962,338.74 c -9.481,13.799 -22.146,23.784 -37.145,30.969 -0.245,-0.015 -0.488,-0.024 -0.734,-0.041 0.234,-0.68 0.474,-1.359 0.708,-2.041 4.766,-3.276 9.518,-6.571 14.299,-9.822 6.226,-4.238 11.684,-9.391 17.186,-14.483 1.896,-1.759 2.915,-4.456 5.679,-5.29 z"
     id="path456" />
  <path
     fill="#4d5a79"
     d="m 176.14762,382.171 c -0.643,0.919 -0.381,2.108 0.328,2.42 2.543,1.108 1.619,3.21 1.742,5.027 -0.684,0.025 -1.375,0.002 -2.052,0.085 -6.839,0.856 -7.441,0.512 -9.823,-5.463 -0.657,-1.652 0.574,-1.33 1.394,-1.436 2.336,-0.296 4.784,0.556 7.031,-0.679 0.458,0.019 0.92,0.032 1.38,0.046 z"
     id="path458" />
  <path
     fill="#767c92"
     d="m 156.17962,371.06 c -5.244,-2.272 -9.869,-5.434 -13.774,-9.622 1.249,-0.189 2.142,0.491 3.088,1.152 3.054,2.146 6.12,4.277 9.229,6.345 0.814,0.545 1.432,1.095 1.457,2.125 z"
     id="path460" />
  <path
     fill="#787d93"
     d="m 163.05462,373.128 c 6.182,2.932 12.575,2.27 18.998,1.139 1.003,-0.179 2.015,-0.303 3.021,-0.444 -8.088,3.213 -16.148,2.734 -24.171,-0.241 -0.3,-0.112 -0.409,-0.747 -0.605,-1.134 0.864,0.451 1.756,0.79 2.757,0.68 z"
     id="path462" />
  <path
     fill="#8290a8"
     d="m 157.53262,382.092 c -2.105,0.593 -0.458,1.634 -0.094,2.147 0.831,1.178 1.956,2.11 2.606,3.469 1.492,3.095 1.069,3.944 -2.514,4.702 -4.706,-0.016 -9.257,-0.987 -13.773,-2.186 0.4,-2.229 1.472,-3.125 3.803,-2.214 1.104,0.435 2.667,0.813 3.428,-0.341 0.786,-1.188 -0.417,-2.279 -1.099,-3.278 -0.776,-1.139 -1.41,-2.309 -1.285,-3.745 2.506,0.225 5.016,0.453 7.521,0.68 0.472,0.257 0.941,0.511 1.407,0.766 z"
     id="path464" />
  <path
     fill="#3e4c69"
     d="m 255.04162,212.176 c 0.292,0.187 0.444,0.229 0.452,0.296 0.28,2.22 0.026,4.265 -2.008,5.652 -0.417,0.282 -0.98,0.146 -1.061,-0.358 -0.386,-2.359 0.605,-4.139 2.617,-5.59 z"
     id="path466" />
</svg>
